<svg width="172" height="55" viewBox="0 0 172 55" fill="none" xmlns="http://www.w3.org/2000/svg">
<path d="M13.4646 0.717066C11.0265 1.30886 8.71228 2.39742 6.73107 3.95682C2.13244 7.56807 -0.497792 13.6286 0.0786378 19.486C0.275051 21.499 0.860022 23.4731 1.75242 25.283C2.64482 27.093 3.86173 28.7647 5.32202 30.1643C6.78231 31.5638 8.5543 32.7172 10.4501 33.5034C12.568 34.3803 14.7627 35.0585 17.0043 35.5207L16.9873 28.661C12.8327 28.1815 9.0923 25.0498 7.84977 21.0109C6.60724 16.972 7.92663 12.2463 11.0778 9.4644C14.2289 6.68253 18.8019 6.62206 22.8241 7.79269C23.2469 7.91364 24.1094 8.2117 24.1094 8.2117C24.1094 8.2117 24.1478 7.46007 24.1563 7.26137C24.2076 6.1037 24.2417 4.12961 24.2161 3.03241C24.2033 2.50109 24.2033 1.98705 24.1435 1.47733L24.135 1.46437C24.135 1.46437 23.5329 1.16631 23.2597 1.0756C20.1042 0.0604753 16.6884 -0.0647943 13.4689 0.717066H13.4646Z" fill="white"/>
<path d="M30.6252 35.2572L37.0727 35.5163V25.1059C37.0727 18.8424 37.2434 14.7387 37.4569 14.8251C37.6704 14.8683 41.0863 19.5336 45.0573 25.1059L52.2306 35.2572L57.568 35.5163V0.0518356H50.7362L50.6508 10.5054L50.5227 21.0022L43.0931 10.5054L35.6636 0.0518356H30.4544L30.6252 35.2572Z" fill="white"/>
<path d="M63.5457 6.53134H79.3442V0.0518356H63.5457V6.53134Z" fill="white"/>
<path d="M85.322 17.7625C85.322 20.0908 85.322 22.4234 85.322 24.7517C85.322 27.6805 85.322 30.6092 85.322 33.5379C85.322 33.9656 85.1298 35.2917 85.4501 35.512C85.7703 35.7323 87.1922 35.4429 87.6106 35.4256L91.9403 35.2572C92.0257 31.1535 92.1111 27.0498 92.1964 22.9461H97.2733C99.3356 27.1232 101.398 31.296 103.465 35.4688C105.834 35.5466 108.204 35.4861 110.57 35.2831C109.148 32.3371 107.726 29.3867 106.304 26.4407C105.676 25.1362 105.044 23.8273 104.588 22.4493C104.536 22.2981 104.489 22.1383 104.515 21.9785C104.562 21.702 104.822 21.5206 105.057 21.3694C108.742 18.9461 111.159 14.4277 110.557 10.026C110.249 7.77541 109.203 5.66309 107.73 3.94386C106.496 2.50541 104.933 1.31318 103.136 0.747303C101.646 0.276459 100.057 0.246221 98.4945 0.220303C94.1051 0.146868 89.7114 0.0734344 85.322 0C85.322 5.91795 85.322 11.8402 85.322 17.7582V17.7625ZM101.932 7.61126C104.579 9.90069 104.579 13.5292 101.932 15.8186C100.736 16.8122 100.309 16.8986 96.3809 16.8986H92.1537V6.53134H96.3809C100.309 6.53134 100.736 6.61774 101.932 7.61126Z" fill="white"/>
<path d="M114.784 6.53134H122.043C126.056 6.53134 129.301 6.61774 129.301 6.70413C129.301 6.83372 126.056 12.0605 122.043 18.4104L114.784 29.944V35.4731H138.268V28.9936H131.009C127.038 28.9936 123.751 28.864 123.751 28.6481C123.751 28.4753 127.038 23.2053 131.009 16.8986L138.268 5.45143V0.0518356H114.784V6.53134Z" fill="white"/>
<path d="M142.068 0.78618C142.282 1.21815 144.972 6.01298 148.046 11.4558L153.64 21.3046V35.5163L160.258 35.2572L160.429 20.8727L166.193 10.635C169.395 5.01946 172 0.311017 172 0.224623C172 0.13823 170.335 0.0518356 168.243 0.0518356H164.528L160.898 6.96331C158.892 10.7646 157.141 13.8748 156.97 13.8748C156.799 13.8748 155.006 10.7646 152.999 6.96331L149.327 0.0518356H145.484C141.983 0.0518356 141.684 0.0950326 142.068 0.78618Z" fill="white"/>
<path d="M63.5457 20.7863H77.2093V14.3068H63.5457V20.7863Z" fill="white"/>
<path d="M24.2588 33.9181C24.2887 31.2831 24.2674 28.6481 24.2033 26.0131C23.6653 26.4105 23.1572 26.769 22.6021 27.0973C21.4364 27.7928 20.3989 28.3414 19.1435 28.5574C18.8446 28.6092 17.9138 28.7042 17.9138 28.7042C17.9138 28.7042 17.8882 29.4126 17.8797 29.8187C17.8711 30.35 17.8668 30.8813 17.8583 31.4127C17.8455 32.4753 17.8412 33.5336 17.8412 34.5962C17.8412 34.795 17.8412 35.5293 17.8412 35.5293C17.8412 35.5293 20.0402 35.4472 21.2486 35.1448C22.4569 34.8425 23.4604 34.4494 24.2545 33.9267L24.2588 33.9181Z" fill="white"/>
<path d="M63.5457 35.4731H79.3442V28.9936H63.5457V35.4731Z" fill="white"/>
<path d="M17.5594 22.0822V14.0303C17.8668 14.0087 19.5662 13.918 20.9966 15.2096C22.5594 16.6178 22.5551 18.5443 22.5509 18.8294C22.5594 19.1189 22.585 20.7474 21.3297 22.0562C20.2281 23.2053 18.8703 23.3478 18.5287 23.3737C18.5201 24.4493 18.5116 25.5249 18.5031 26.6005C19.2674 26.4969 21.1973 26.1297 22.8839 24.5228C23.8916 23.5638 24.4339 22.5271 24.7157 21.8575C24.9591 21.1102 25.2409 19.9353 25.1598 18.4925C25.1042 17.5465 24.9121 16.756 24.7157 16.1642C24.5022 15.6199 23.8532 14.1685 22.2733 13.1059C20.8686 12.1599 19.4809 12.0303 18.8916 12.013C18.4604 11.9828 16.6115 11.905 15.0103 13.2484C14.0752 14.0346 13.4689 15.1361 13.2341 16.337C12.9992 17.5379 13.2255 19.067 13.9642 20.0519C14.8779 21.2657 16.0522 22.0174 17.5637 22.0865L17.5594 22.0822Z" fill="white"/>
<path d="M18.5031 22.2506C18.5031 22.2506 18.3963 14.959 18.3963 14.9547C18.3963 14.9417 18.8745 15.0109 18.9002 15.0152C19.2289 15.08 19.5492 15.188 19.8481 15.3392C20.6807 15.7625 21.2656 16.5271 21.5133 17.4299C21.5859 17.702 21.6286 17.9828 21.6457 18.2679C21.6926 19.2398 21.4322 20.3068 20.796 21.0541C19.8779 22.134 18.7336 22.2334 18.5073 22.2463L18.5031 22.2506Z" fill="white"/>
<path d="M3.14844 49.4805V45.5849H5.56272V46.1765H3.82088V47.2341H5.43765V47.8257H3.82088V48.889H5.57722V49.4805H3.14844Z" fill="white"/>
<path d="M7.57581 45.5849H8.39869L9.50071 48.4077H9.54421L10.6462 45.5849H11.4691V49.4805H10.8238V46.8042H10.7894L9.76352 49.4691H9.28139L8.25551 46.7985H8.22107V49.4805H7.57581V45.5849Z" fill="white"/>
<path d="M13.5284 49.4805V45.5849H14.9204C15.2056 45.5849 15.4449 45.6407 15.6382 45.7523C15.8327 45.8639 15.9796 46.0174 16.0786 46.2126C16.1789 46.4067 16.2291 46.6273 16.2291 46.8746C16.2291 47.1244 16.1789 47.3463 16.0786 47.5403C15.9783 47.7344 15.8303 47.8872 15.6346 47.9988C15.4388 48.1091 15.1978 48.1643 14.9114 48.1643H13.9888V47.5841H14.8207C14.9875 47.5841 15.124 47.5537 15.2304 47.4928C15.3367 47.4319 15.4153 47.3482 15.466 47.2417C15.518 47.1352 15.5439 47.0128 15.5439 46.8746C15.5439 46.7364 15.518 46.6146 15.466 46.5094C15.4153 46.4041 15.3361 46.3223 15.2286 46.264C15.1222 46.2044 14.9851 46.1746 14.8171 46.1746H14.2009V49.4805H13.5284Z" fill="white"/>
<path d="M21.4571 47.5327C21.4571 47.9525 21.3822 48.312 21.2324 48.6113C21.0837 48.9093 20.8807 49.1375 20.6234 49.296C20.3672 49.4545 20.0766 49.5338 19.7515 49.5338C19.4265 49.5338 19.1353 49.4545 18.8779 49.296C18.6217 49.1362 18.4187 48.9074 18.2689 48.6094C18.1203 48.3101 18.046 47.9512 18.046 47.5327C18.046 47.113 18.1203 46.7541 18.2689 46.4561C18.4187 46.1569 18.6217 45.928 18.8779 45.7694C19.1353 45.6109 19.4265 45.5317 19.7515 45.5317C20.0766 45.5317 20.3672 45.6109 20.6234 45.7694C20.8807 45.928 21.0837 46.1569 21.2324 46.4561C21.3822 46.7541 21.4571 47.113 21.4571 47.5327ZM20.7811 47.5327C20.7811 47.2373 20.737 46.9881 20.6487 46.7852C20.5617 46.581 20.4409 46.427 20.2862 46.323C20.1316 46.2177 19.9533 46.1651 19.7515 46.1651C19.5498 46.1651 19.3715 46.2177 19.2169 46.323C19.0622 46.427 18.9407 46.581 18.8525 46.7852C18.7655 46.9881 18.722 47.2373 18.722 47.5327C18.722 47.8282 18.7655 48.078 18.8525 48.2822C18.9407 48.4851 19.0622 48.6392 19.2169 48.7444C19.3715 48.8484 19.5498 48.9004 19.7515 48.9004C19.9533 48.9004 20.1316 48.8484 20.2862 48.7444C20.4409 48.6392 20.5617 48.4851 20.6487 48.2822C20.737 48.078 20.7811 47.8282 20.7811 47.5327Z" fill="white"/>
<path d="M24.1064 49.4805L23.0588 45.5849H23.782L24.4508 48.4477H24.4852L25.1994 45.5849H25.8573L26.5733 48.4496H26.6059L27.2747 45.5849H27.9979L26.9503 49.4805H26.2869L25.5437 46.7472H25.5147L24.7698 49.4805H24.1064Z" fill="white"/>
<path d="M29.7912 49.4805V45.5849H32.2055V46.1765H30.4637V47.2341H32.0804V47.8257H30.4637V48.889H32.22V49.4805H29.7912Z" fill="white"/>
<path d="M34.2186 49.4805V45.5849H35.6106C35.8958 45.5849 36.135 45.6369 36.3284 45.7409C36.5229 45.8449 36.6697 45.9907 36.7688 46.1784C36.8691 46.3648 36.9193 46.5823 36.9193 46.8308C36.9193 47.0807 36.8685 47.2975 36.767 47.4814C36.6667 47.664 36.5187 47.8054 36.3229 47.9056C36.1272 48.0045 35.8867 48.0539 35.6016 48.0539H34.6101V47.4681H35.5109C35.6777 47.4681 35.8142 47.444 35.9206 47.3958C36.0269 47.3463 36.1054 47.2747 36.1562 47.1808C36.2081 47.0857 36.2341 46.9691 36.2341 46.8308C36.2341 46.6926 36.2081 46.5747 36.1562 46.477C36.1042 46.3781 36.0251 46.3033 35.9187 46.2526C35.8124 46.2006 35.6753 46.1746 35.5073 46.1746H34.891V49.4805H34.2186ZM36.1362 47.7153L37.0552 49.4805H36.3048L35.4022 47.7153H36.1362Z" fill="white"/>
<path d="M39.5377 45.5849V49.4805H38.8653V45.5849H39.5377Z" fill="white"/>
<path d="M44.6434 45.5849V49.4805H44.0453L42.2962 46.827H42.2654V49.4805H41.593V45.5849H42.1947L43.942 48.2403H43.9746V45.5849H44.6434Z" fill="white"/>
<path d="M49.19 46.8289C49.1598 46.7262 49.1181 46.6343 49.0649 46.5531C49.013 46.4707 48.9501 46.4003 48.8764 46.342C48.8039 46.2837 48.7205 46.2399 48.6263 46.2107C48.532 46.1803 48.4293 46.1651 48.3182 46.1651C48.1188 46.1651 47.9412 46.2177 47.7853 46.323C47.6294 46.4282 47.5068 46.5829 47.4173 46.7871C47.3291 46.99 47.285 47.2373 47.285 47.5289C47.285 47.8231 47.3291 48.0723 47.4173 48.2765C47.5056 48.4806 47.6282 48.636 47.7853 48.7425C47.9424 48.8478 48.1248 48.9004 48.3327 48.9004C48.5212 48.9004 48.6843 48.8623 48.822 48.7863C48.961 48.7102 49.0679 48.6024 49.1429 48.4629C49.2178 48.3221 49.2552 48.1573 49.2552 47.9683L49.4075 47.9931H48.3997V47.4414H49.9059V47.9094C49.9059 48.2429 49.8383 48.5314 49.7029 48.7748C49.5676 49.0183 49.3815 49.206 49.1447 49.3379C48.9078 49.4685 48.636 49.5338 48.329 49.5338C47.9871 49.5338 47.6868 49.4533 47.4282 49.2922C47.1708 49.1299 46.9697 48.8997 46.8246 48.6017C46.6809 48.3025 46.609 47.9474 46.609 47.5365C46.609 47.2221 46.6513 46.9412 46.7358 46.6939C46.8216 46.4466 46.9413 46.2367 47.0947 46.0643C47.2482 45.8905 47.4282 45.7587 47.6348 45.6686C47.8415 45.5773 48.0662 45.5317 48.3091 45.5317C48.5145 45.5317 48.706 45.5634 48.8837 45.6268C49.0613 45.6889 49.219 45.7777 49.3567 45.8931C49.4957 46.0085 49.6099 46.1454 49.6993 46.3039C49.7887 46.4625 49.8473 46.6375 49.8751 46.8289H49.19Z" fill="white"/>
<path d="M54.2647 45.5849H55.519L56.3817 47.7914H56.4252L57.288 45.5849H58.5423V49.4805H57.5563V47.2284H57.5273L56.7007 49.4501H56.1062L55.2797 47.2132H55.2507V49.4805H54.2647V45.5849Z" fill="white"/>
<path d="M61.3112 49.4805H60.2237L61.4489 45.5849H62.8265L64.0517 49.4805H62.9642L62.1522 46.6577H62.1232L61.3112 49.4805ZM61.1082 47.9436H63.1527V48.7349H61.1082V47.9436Z" fill="white"/>
<path d="M68.9481 45.5849V49.4805H68.1071L66.7658 47.4338H66.7441V49.4805H65.7363V45.5849H66.5918L67.9113 47.624H67.9403V45.5849H68.9481Z" fill="white"/>
<path d="M72.9486 45.5849H73.9564V48.0806C73.9564 48.3773 73.8887 48.6341 73.7534 48.8509C73.6192 49.0665 73.4319 49.2333 73.1915 49.3512C72.951 49.4679 72.6719 49.5262 72.3541 49.5262C72.0339 49.5262 71.7535 49.4679 71.5131 49.3512C71.2726 49.2333 71.0853 49.0665 70.9512 48.8509C70.8183 48.6341 70.7518 48.3773 70.7518 48.0806V45.5849H71.7596V47.9893C71.7596 48.1097 71.785 48.2175 71.8357 48.3126C71.8865 48.4065 71.9566 48.48 72.046 48.5333C72.1366 48.5865 72.2393 48.6132 72.3541 48.6132C72.4701 48.6132 72.5728 48.5865 72.6622 48.5333C72.7516 48.48 72.8217 48.4065 72.8725 48.3126C72.9232 48.2175 72.9486 48.1097 72.9486 47.9893V45.5849Z" fill="white"/>
<path d="M75.7624 49.4805V45.5849H78.3724V46.4371H76.7701V47.1067H78.2129V47.9588H76.7701V49.4805H75.7624Z" fill="white"/>
<path d="M80.5708 49.4805H79.4833L80.7086 45.5849H82.0861L83.3114 49.4805H82.2239L81.4118 46.6577H81.3828L80.5708 49.4805ZM80.3678 47.9436H82.4124V48.7349H80.3678V47.9436Z" fill="white"/>
<path d="M88.287 47.0458H87.2648C87.2575 46.957 87.2382 46.8765 87.2068 46.8042C87.1766 46.7319 87.1343 46.6698 87.0799 46.6178C87.0267 46.5645 86.9621 46.524 86.8859 46.4961C86.8098 46.4669 86.7234 46.4523 86.6268 46.4523C86.4576 46.4523 86.3144 46.4954 86.1972 46.5817C86.0812 46.6679 85.993 46.7915 85.9326 46.9526C85.8734 47.1136 85.8438 47.307 85.8438 47.5327C85.8438 47.7711 85.874 47.9709 85.9344 48.1319C85.996 48.2917 86.0848 48.4122 86.2008 48.4933C86.3168 48.5732 86.4564 48.6132 86.6195 48.6132C86.7125 48.6132 86.7959 48.6011 86.8696 48.577C86.9433 48.5517 87.0074 48.5155 87.0618 48.4686C87.1161 48.4217 87.1602 48.3652 87.1941 48.2993C87.2291 48.2321 87.2527 48.1566 87.2648 48.0729L88.287 48.0806C88.2749 48.2454 88.2308 48.4134 88.1547 48.5846C88.0786 48.7546 87.9704 48.9118 87.8303 49.0564C87.6913 49.1997 87.5191 49.3151 87.3137 49.4025C87.1083 49.49 86.8696 49.5338 86.5978 49.5338C86.257 49.5338 85.9513 49.4571 85.6806 49.3036C85.4112 49.1502 85.1979 48.9245 85.0408 48.6265C84.8849 48.3285 84.807 47.9639 84.807 47.5327C84.807 47.099 84.8867 46.7338 85.0462 46.4371C85.2057 46.1391 85.4208 45.914 85.6915 45.7618C85.9622 45.6084 86.2643 45.5317 86.5978 45.5317C86.8322 45.5317 87.0479 45.5653 87.2448 45.6325C87.4418 45.6997 87.6146 45.798 87.7632 45.9273C87.9118 46.0554 88.0315 46.2133 88.1221 46.401C88.2127 46.5886 88.2677 46.8036 88.287 47.0458Z" fill="white"/>
<path d="M89.9698 46.4371V45.5849H93.1961V46.4371H92.0796V49.4805H91.0863V46.4371H89.9698Z" fill="white"/>
<path d="M97.0992 45.5849H98.1069V48.0806C98.1069 48.3773 98.0393 48.6341 97.9039 48.8509C97.7698 49.0665 97.5825 49.2333 97.3421 49.3512C97.1016 49.4679 96.8225 49.5262 96.5047 49.5262C96.1845 49.5262 95.9041 49.4679 95.6637 49.3512C95.4232 49.2333 95.2359 49.0665 95.1018 48.8509C94.9689 48.6341 94.9024 48.3773 94.9024 48.0806V45.5849H95.9102V47.9893C95.9102 48.1097 95.9355 48.2175 95.9863 48.3126C96.037 48.4065 96.1071 48.48 96.1965 48.5333C96.2872 48.5865 96.3899 48.6132 96.5047 48.6132C96.6207 48.6132 96.7234 48.5865 96.8128 48.5333C96.9022 48.48 96.9723 48.4065 97.023 48.3126C97.0738 48.2175 97.0992 48.1097 97.0992 47.9893V45.5849Z" fill="white"/>
<path d="M99.9129 49.4805V45.5849H101.515C101.791 45.5849 102.032 45.6376 102.238 45.7428C102.445 45.8481 102.606 45.9996 102.721 46.1974C102.835 46.3953 102.893 46.6324 102.893 46.9088C102.893 47.1878 102.834 47.423 102.715 47.6145C102.598 47.806 102.433 47.9506 102.22 48.0482C102.009 48.1459 101.762 48.1947 101.479 48.1947H100.522V47.373H101.276C101.394 47.373 101.495 47.3577 101.579 47.3273C101.663 47.2956 101.728 47.2455 101.773 47.177C101.819 47.1086 101.841 47.0192 101.841 46.9088C101.841 46.7972 101.819 46.7066 101.773 46.6368C101.728 46.5658 101.663 46.5138 101.579 46.4808C101.495 46.4466 101.394 46.4295 101.276 46.4295H100.921V49.4805H99.9129ZM102.088 47.6925L103.016 49.4805H101.921L101.015 47.6925H102.088Z" fill="white"/>
<path d="M105.657 45.5849V49.4805H104.649V45.5849H105.657Z" fill="white"/>
<path d="M110.674 45.5849V49.4805H109.833L108.491 47.4338H108.47V49.4805H107.462V45.5849H108.317L109.637 47.624H109.666V45.5849H110.674Z" fill="white"/>
<path d="M114.888 46.8708C114.872 46.8036 114.847 46.7446 114.814 46.6939C114.78 46.6419 114.738 46.5981 114.687 46.5626C114.637 46.5259 114.579 46.4986 114.513 46.4808C114.448 46.4618 114.376 46.4523 114.297 46.4523C114.128 46.4523 113.984 46.4948 113.864 46.5798C113.745 46.6647 113.655 46.7871 113.592 46.9469C113.53 47.1067 113.5 47.2994 113.5 47.5251C113.5 47.7534 113.529 47.9487 113.588 48.111C113.648 48.2733 113.736 48.3976 113.853 48.4838C113.97 48.57 114.116 48.6132 114.29 48.6132C114.443 48.6132 114.571 48.5897 114.672 48.5428C114.775 48.4959 114.852 48.4293 114.902 48.3431C114.953 48.2568 114.979 48.1554 114.979 48.0387L115.153 48.0577H114.304V47.3045H115.95V47.8447C115.95 48.1998 115.878 48.5035 115.734 48.7558C115.592 49.0069 115.395 49.1997 115.144 49.3341C114.893 49.4672 114.606 49.5338 114.283 49.5338C113.921 49.5338 113.604 49.4533 113.331 49.2922C113.058 49.1312 112.845 48.9017 112.691 48.6036C112.539 48.3056 112.463 47.9512 112.463 47.5403C112.463 47.2182 112.509 46.9329 112.602 46.6844C112.697 46.4358 112.827 46.226 112.994 46.0548C113.161 45.8823 113.353 45.7523 113.572 45.6648C113.791 45.5761 114.025 45.5317 114.275 45.5317C114.495 45.5317 114.699 45.5646 114.888 45.6306C115.078 45.6953 115.245 45.7878 115.39 45.9083C115.536 46.0275 115.654 46.1689 115.743 46.3325C115.833 46.4961 115.887 46.6755 115.907 46.8708H114.888Z" fill="white"/>
<path d="M120.382 49.4805V45.5849H122.797V46.1765H121.055V47.2341H122.672V47.8257H121.055V48.889H122.811V49.4805H120.382Z" fill="white"/>
<path d="M127.987 46.8993H127.309C127.29 46.7827 127.254 46.6793 127.202 46.5893C127.15 46.498 127.086 46.4206 127.008 46.3572C126.931 46.2938 126.843 46.2463 126.744 46.2145C126.646 46.1816 126.54 46.1651 126.426 46.1651C126.225 46.1651 126.046 46.2184 125.89 46.3249C125.734 46.4301 125.612 46.5848 125.524 46.789C125.436 46.9919 125.391 47.2398 125.391 47.5327C125.391 47.8307 125.436 48.0818 125.524 48.286C125.613 48.4889 125.735 48.6423 125.89 48.7463C126.046 48.849 126.224 48.9004 126.425 48.9004C126.536 48.9004 126.64 48.8852 126.736 48.8547C126.834 48.823 126.922 48.7767 126.999 48.7159C127.078 48.655 127.144 48.5802 127.197 48.4914C127.251 48.4027 127.289 48.3012 127.309 48.1871L127.987 48.1909C127.962 48.376 127.907 48.5498 127.822 48.7121C127.739 48.8744 127.629 49.0177 127.494 49.142C127.359 49.265 127.2 49.3613 127.019 49.4311C126.838 49.4996 126.637 49.5338 126.416 49.5338C126.089 49.5338 125.798 49.4545 125.542 49.296C125.286 49.1375 125.084 48.9086 124.937 48.6094C124.789 48.3101 124.715 47.9512 124.715 47.5327C124.715 47.113 124.79 46.7541 124.938 46.4561C125.087 46.1569 125.289 45.928 125.546 45.7694C125.802 45.6109 126.092 45.5317 126.416 45.5317C126.622 45.5317 126.814 45.5621 126.992 45.623C127.17 45.6838 127.328 45.7733 127.467 45.8912C127.606 46.0078 127.72 46.1511 127.809 46.3211C127.9 46.4897 127.959 46.6825 127.987 46.8993Z" fill="white"/>
<path d="M133.247 47.5327C133.247 47.9525 133.172 48.312 133.022 48.6113C132.873 48.9093 132.67 49.1375 132.413 49.296C132.157 49.4545 131.866 49.5338 131.541 49.5338C131.216 49.5338 130.925 49.4545 130.668 49.296C130.411 49.1362 130.208 48.9074 130.059 48.6094C129.91 48.3101 129.836 47.9512 129.836 47.5327C129.836 47.113 129.91 46.7541 130.059 46.4561C130.208 46.1569 130.411 45.928 130.668 45.7694C130.925 45.6109 131.216 45.5317 131.541 45.5317C131.866 45.5317 132.157 45.6109 132.413 45.7694C132.67 45.928 132.873 46.1569 133.022 46.4561C133.172 46.7541 133.247 47.113 133.247 47.5327ZM132.571 47.5327C132.571 47.2373 132.527 46.9881 132.438 46.7852C132.351 46.581 132.231 46.427 132.076 46.323C131.921 46.2177 131.743 46.1651 131.541 46.1651C131.339 46.1651 131.161 46.2177 131.007 46.323C130.852 46.427 130.73 46.581 130.642 46.7852C130.555 46.9881 130.512 47.2373 130.512 47.5327C130.512 47.8282 130.555 48.078 130.642 48.2822C130.73 48.4851 130.852 48.6392 131.007 48.7444C131.161 48.8484 131.339 48.9004 131.541 48.9004C131.743 48.9004 131.921 48.8484 132.076 48.7444C132.231 48.6392 132.351 48.4851 132.438 48.2822C132.527 48.078 132.571 47.8282 132.571 47.5327Z" fill="white"/>
<path d="M137.227 46.6558C137.21 46.4897 137.139 46.3604 137.013 46.2678C136.889 46.1752 136.727 46.129 136.527 46.129C136.387 46.129 136.267 46.1511 136.167 46.1955C136.066 46.2399 135.99 46.3001 135.936 46.3762C135.883 46.4523 135.856 46.5392 135.855 46.6368C135.855 46.718 135.872 46.7884 135.907 46.848C135.944 46.9076 135.993 46.9583 136.054 47.0001C136.116 47.0407 136.184 47.075 136.259 47.1029C136.334 47.1308 136.409 47.1542 136.486 47.1732L136.834 47.2645C136.974 47.2988 137.109 47.3451 137.238 47.4034C137.368 47.4617 137.485 47.5353 137.588 47.624C137.692 47.7128 137.774 47.82 137.834 47.9455C137.895 48.071 137.925 48.2181 137.925 48.3868C137.925 48.6151 137.869 48.8161 137.758 48.9898C137.647 49.1622 137.486 49.2973 137.276 49.3949C137.067 49.4913 136.814 49.5395 136.516 49.5395C136.228 49.5395 135.977 49.4926 135.764 49.3987C135.553 49.3049 135.387 49.168 135.268 48.9879C135.149 48.8078 135.085 48.5884 135.075 48.3297H135.737C135.747 48.4654 135.787 48.5783 135.857 48.6683C135.927 48.7584 136.018 48.8256 136.13 48.8699C136.244 48.9143 136.371 48.9365 136.511 48.9365C136.657 48.9365 136.785 48.9137 136.895 48.868C137.006 48.8211 137.093 48.7565 137.156 48.674C137.219 48.5903 137.251 48.4927 137.252 48.3811C137.251 48.2796 137.223 48.196 137.167 48.13C137.112 48.0628 137.034 48.007 136.933 47.9626C136.834 47.917 136.718 47.8764 136.585 47.8409L136.163 47.7268C135.857 47.6443 135.616 47.5194 135.438 47.352C135.262 47.1834 135.173 46.9596 135.173 46.6806C135.173 46.451 135.233 46.2501 135.351 46.0776C135.471 45.9051 135.633 45.7713 135.839 45.6762C136.044 45.5799 136.277 45.5317 136.536 45.5317C136.8 45.5317 137.031 45.5799 137.229 45.6762C137.428 45.7713 137.585 45.9039 137.698 46.0738C137.812 46.2424 137.87 46.4365 137.874 46.6558H137.227Z" fill="white"/>
<path d="M139.598 45.5849H140.357L141.265 47.3083H141.301L142.209 45.5849H142.969L141.618 48.0273V49.4805H140.948V48.0273L139.598 45.5849Z" fill="white"/>
<path d="M146.789 46.6558C146.773 46.4897 146.701 46.3604 146.576 46.2678C146.451 46.1752 146.289 46.129 146.09 46.129C145.95 46.129 145.829 46.1511 145.729 46.1955C145.629 46.2399 145.552 46.3001 145.499 46.3762C145.446 46.4523 145.419 46.5392 145.417 46.6368C145.417 46.718 145.435 46.7884 145.47 46.848C145.506 46.9076 145.555 46.9583 145.617 47.0001C145.678 47.0407 145.747 47.075 145.822 47.1029C145.896 47.1308 145.972 47.1542 146.048 47.1732L146.396 47.2645C146.536 47.2988 146.671 47.3451 146.8 47.4034C146.931 47.4617 147.047 47.5353 147.15 47.624C147.254 47.7128 147.336 47.82 147.397 47.9455C147.457 48.071 147.487 48.2181 147.487 48.3868C147.487 48.6151 147.432 48.8161 147.321 48.9898C147.209 49.1622 147.049 49.2973 146.838 49.3949C146.629 49.4913 146.376 49.5395 146.079 49.5395C145.79 49.5395 145.539 49.4926 145.327 49.3987C145.115 49.3049 144.95 49.168 144.83 48.9879C144.712 48.8078 144.648 48.5884 144.638 48.3297H145.3C145.309 48.4654 145.349 48.5783 145.419 48.6683C145.489 48.7584 145.581 48.8256 145.693 48.8699C145.806 48.9143 145.933 48.9365 146.074 48.9365C146.22 48.9365 146.348 48.9137 146.458 48.868C146.569 48.8211 146.656 48.7565 146.719 48.674C146.782 48.5903 146.814 48.4927 146.815 48.3811C146.814 48.2796 146.785 48.196 146.73 48.13C146.674 48.0628 146.596 48.007 146.496 47.9626C146.397 47.917 146.281 47.8764 146.148 47.8409L145.726 47.7268C145.42 47.6443 145.178 47.5194 145.001 47.352C144.824 47.1834 144.736 46.9596 144.736 46.6806C144.736 46.451 144.795 46.2501 144.914 46.0776C145.033 45.9051 145.196 45.7713 145.401 45.6762C145.606 45.5799 145.839 45.5317 146.099 45.5317C146.362 45.5317 146.593 45.5799 146.791 45.6762C146.991 45.7713 147.147 45.9039 147.261 46.0738C147.374 46.2424 147.433 46.4365 147.437 46.6558H146.789Z" fill="white"/>
<path d="M149.251 46.1765V45.5849H152.212V46.1765H151.065V49.4805H150.398V46.1765H149.251Z" fill="white"/>
<path d="M154.11 49.4805V45.5849H156.525V46.1765H154.783V47.2341H156.4V47.8257H154.783V48.889H156.539V49.4805H154.11Z" fill="white"/>
<path d="M158.538 45.5849H159.361L160.463 48.4077H160.506L161.608 45.5849H162.431V49.4805H161.786V46.8042H161.751L160.725 49.4691H160.243L159.217 46.7985H159.183V49.4805H158.538V45.5849Z" fill="white"/>
<path d="M166.508 46.6558C166.491 46.4897 166.419 46.3604 166.294 46.2678C166.169 46.1752 166.007 46.129 165.808 46.129C165.668 46.129 165.548 46.1511 165.447 46.1955C165.347 46.2399 165.27 46.3001 165.217 46.3762C165.164 46.4523 165.137 46.5392 165.136 46.6368C165.136 46.718 165.153 46.7884 165.188 46.848C165.224 46.9076 165.273 46.9583 165.335 47.0001C165.397 47.0407 165.465 47.075 165.54 47.1029C165.615 47.1308 165.69 47.1542 165.766 47.1732L166.114 47.2645C166.255 47.2988 166.389 47.3451 166.519 47.4034C166.649 47.4617 166.766 47.5353 166.868 47.624C166.972 47.7128 167.054 47.82 167.115 47.9455C167.175 48.071 167.205 48.2181 167.205 48.3868C167.205 48.6151 167.15 48.8161 167.039 48.9898C166.928 49.1622 166.767 49.2973 166.557 49.3949C166.348 49.4913 166.094 49.5395 165.797 49.5395C165.508 49.5395 165.258 49.4926 165.045 49.3987C164.834 49.3049 164.668 49.168 164.548 48.9879C164.43 48.8078 164.366 48.5884 164.356 48.3297H165.018C165.027 48.4654 165.067 48.5783 165.137 48.6683C165.207 48.7584 165.299 48.8256 165.411 48.8699C165.525 48.9143 165.652 48.9365 165.792 48.9365C165.938 48.9365 166.066 48.9137 166.176 48.868C166.287 48.8211 166.374 48.7565 166.437 48.674C166.5 48.5903 166.532 48.4927 166.533 48.3811C166.532 48.2796 166.503 48.196 166.448 48.13C166.392 48.0628 166.314 48.007 166.214 47.9626C166.115 47.917 165.999 47.8764 165.866 47.8409L165.444 47.7268C165.138 47.6443 164.896 47.5194 164.719 47.352C164.542 47.1834 164.454 46.9596 164.454 46.6806C164.454 46.451 164.513 46.2501 164.632 46.0776C164.751 45.9051 164.914 45.7713 165.119 45.6762C165.325 45.5799 165.557 45.5317 165.817 45.5317C166.081 45.5317 166.311 45.5799 166.509 45.6762C166.709 45.7713 166.865 45.9039 166.979 46.0738C167.093 46.2424 167.151 46.4365 167.155 46.6558H166.508Z" fill="white"/>
<path d="M0 41.143H170.846" stroke="white" stroke-width="0.5" stroke-miterlimit="10"/>
<path d="M0 54.0112H170.846" stroke="white" stroke-width="0.5" stroke-miterlimit="10"/>
</svg>
