<svg width="158" height="51" viewBox="0 0 158 51" fill="none" xmlns="http://www.w3.org/2000/svg">
<path d="M3.08301 46.0103V42.5782H5.30936V43.0994H3.70311V44.0311H5.19403V44.5523H3.70311V45.4891H5.32273V46.0103H3.08301Z" fill="#1A1C43"/>
<path d="M7.16576 42.5782H7.92459L8.94083 45.0652H8.98094L9.99718 42.5782H10.756V46.0103H10.161V43.6524H10.1292L9.18319 46.0003H8.73858L7.79255 43.6474H7.76079V46.0103H7.16576V42.5782Z" fill="#1A1C43"/>
<path d="M12.655 46.0103V42.5782H13.9387C14.2017 42.5782 14.4223 42.6273 14.6006 42.7256C14.78 42.824 14.9154 42.9592 15.0067 43.1312C15.0992 43.3021 15.1455 43.4965 15.1455 43.7144C15.1455 43.9345 15.0992 44.13 15.0067 44.301C14.9143 44.4719 14.7778 44.6065 14.5972 44.7048C14.4167 44.802 14.1944 44.8506 13.9303 44.8506H13.0796V44.3395H13.8468C14.0005 44.3395 14.1264 44.3127 14.2245 44.2591C14.3226 44.2054 14.395 44.1317 14.4418 44.0378C14.4897 43.944 14.5137 43.8362 14.5137 43.7144C14.5137 43.5926 14.4897 43.4854 14.4418 43.3926C14.395 43.2999 14.322 43.2278 14.2228 43.1765C14.1248 43.1239 13.9983 43.0977 13.8434 43.0977H13.2751V46.0103H12.655Z" fill="#1A1C43"/>
<path d="M19.9666 44.2943C19.9666 44.6641 19.8975 44.9808 19.7593 45.2445C19.6223 45.507 19.4351 45.7081 19.1977 45.8478C18.9615 45.9874 18.6935 46.0573 18.3938 46.0573C18.094 46.0573 17.8255 45.9874 17.5881 45.8478C17.3519 45.707 17.1647 45.5053 17.0265 45.2428C16.8895 44.9791 16.8209 44.6629 16.8209 44.2943C16.8209 43.9244 16.8895 43.6083 17.0265 43.3457C17.1647 43.082 17.3519 42.8804 17.5881 42.7407C17.8255 42.6011 18.094 42.5312 18.3938 42.5312C18.6935 42.5312 18.9615 42.6011 19.1977 42.7407C19.4351 42.8804 19.6223 43.082 19.7593 43.3457C19.8975 43.6083 19.9666 43.9244 19.9666 44.2943ZM19.3431 44.2943C19.3431 44.0339 19.3025 43.8144 19.2211 43.6356C19.1409 43.4558 19.0295 43.32 18.8868 43.2284C18.7442 43.1357 18.5798 43.0893 18.3938 43.0893C18.2077 43.0893 18.0433 43.1357 17.9007 43.2284C17.7581 43.32 17.6461 43.4558 17.5647 43.6356C17.4845 43.8144 17.4444 44.0339 17.4444 44.2943C17.4444 44.5546 17.4845 44.7747 17.5647 44.9545C17.6461 45.1333 17.7581 45.269 17.9007 45.3618C18.0433 45.4534 18.2077 45.4992 18.3938 45.4992C18.5798 45.4992 18.7442 45.4534 18.8868 45.3618C19.0295 45.269 19.1409 45.1333 19.2211 44.9545C19.3025 44.7747 19.3431 44.5546 19.3431 44.2943Z" fill="#1A1C43"/>
<path d="M22.4097 46.0103L21.4436 42.5782H22.1105L22.7272 45.1003H22.759L23.4175 42.5782H24.0243L24.6845 45.102H24.7146L25.3313 42.5782H25.9982L25.0321 46.0103H24.4204L23.7351 43.6021H23.7084L23.0214 46.0103H22.4097Z" fill="#1A1C43"/>
<path d="M27.652 46.0103V42.5782H29.8783V43.0994H28.2721V44.0311H29.763V44.5523H28.2721V45.4891H29.8917V46.0103H27.652Z" fill="#1A1C43"/>
<path d="M31.7347 46.0103V42.5782H33.0184C33.2814 42.5782 33.502 42.624 33.6803 42.7156C33.8597 42.8072 33.9951 42.9357 34.0864 43.101C34.1789 43.2653 34.2252 43.4569 34.2252 43.6759C34.2252 43.896 34.1784 44.087 34.0848 44.249C33.9923 44.4099 33.8558 44.5345 33.6753 44.6227C33.4947 44.7099 33.273 44.7534 33.01 44.7534H32.0957V44.2373H32.9265C33.0802 44.2373 33.2061 44.216 33.3042 44.1736C33.4023 44.13 33.4747 44.0669 33.5215 43.9842C33.5694 43.9004 33.5934 43.7976 33.5934 43.6759C33.5934 43.5541 33.5694 43.4502 33.5215 43.3642C33.4736 43.277 33.4006 43.2111 33.3025 43.1664C33.2045 43.1206 33.078 43.0977 32.9231 43.0977H32.3548V46.0103H31.7347ZM33.5031 44.4551L34.3505 46.0103H33.6585L32.8262 44.4551H33.5031Z" fill="#1A1C43"/>
<path d="M36.6398 42.5782V46.0103H36.0197V42.5782H36.6398Z" fill="#1A1C43"/>
<path d="M41.3481 42.5782V46.0103H40.7965L39.1836 43.6725H39.1552V46.0103H38.5351V42.5782H39.09L40.7013 44.9177H40.7313V42.5782H41.3481Z" fill="#1A1C43"/>
<path d="M45.5408 43.6742C45.5129 43.5837 45.4745 43.5027 45.4254 43.4312C45.3775 43.3586 45.3196 43.2966 45.2516 43.2452C45.1847 43.1938 45.1079 43.1552 45.0209 43.1295C44.934 43.1027 44.8393 43.0893 44.7368 43.0893C44.5529 43.0893 44.3891 43.1357 44.2454 43.2284C44.1017 43.3211 43.9885 43.4574 43.9061 43.6373C43.8247 43.8161 43.7841 44.0339 43.7841 44.2909C43.7841 44.5501 43.8247 44.7696 43.9061 44.9495C43.9874 45.1294 44.1005 45.2663 44.2454 45.3601C44.3903 45.4528 44.5585 45.4992 44.7502 45.4992C44.924 45.4992 45.0744 45.4657 45.2015 45.3986C45.3296 45.3316 45.4282 45.2366 45.4973 45.1138C45.5664 44.9897 45.6009 44.8445 45.6009 44.678L45.7413 44.6998H44.812V44.2138H46.201V44.6261C46.201 44.9199 46.1386 45.1741 46.0138 45.3886C45.889 45.6031 45.7174 45.7685 45.499 45.8846C45.2806 45.9997 45.0299 46.0573 44.7468 46.0573C44.4315 46.0573 44.1546 45.9863 43.9161 45.8444C43.6788 45.7014 43.4932 45.4986 43.3595 45.2361C43.2269 44.9724 43.1606 44.6596 43.1606 44.2976C43.1606 44.0205 43.1996 43.7731 43.2776 43.5552C43.3567 43.3373 43.4671 43.1524 43.6086 43.0005C43.7501 42.8474 43.9161 42.7312 44.1067 42.6519C44.2972 42.5715 44.5045 42.5312 44.7284 42.5312C44.9179 42.5312 45.0945 42.5592 45.2583 42.615C45.4221 42.6698 45.5675 42.748 45.6945 42.8497C45.8227 42.9513 45.928 43.072 46.0104 43.2116C46.0929 43.3513 46.1469 43.5055 46.1726 43.6742H45.5408Z" fill="#1A1C43"/>
<path d="M50.2205 42.5782H51.3771L52.1727 44.5222H52.2128L53.0084 42.5782H54.1651V46.0103H53.2558V44.0261H53.2291L52.4669 45.9835H51.9187L51.1565 44.0127H51.1297V46.0103H50.2205V42.5782Z" fill="#1A1C43"/>
<path d="M56.7185 46.0103H55.7156L56.8455 42.5782H58.1158L59.2457 46.0103H58.2428L57.494 43.5234H57.4673L56.7185 46.0103ZM56.5313 44.6562H58.4166V45.3534H56.5313V44.6562Z" fill="#1A1C43"/>
<path d="M63.7609 42.5782V46.0103H62.9854L61.7485 44.2071H61.7284V46.0103H60.7991V42.5782H61.588L62.8048 44.3747H62.8316V42.5782H63.7609Z" fill="#1A1C43"/>
<path d="M67.45 42.5782H68.3794V44.7769C68.3794 45.0383 68.317 45.2646 68.1922 45.4556C68.0685 45.6456 67.8958 45.7925 67.674 45.8964C67.4523 45.9992 67.1949 46.0506 66.9018 46.0506C66.6065 46.0506 66.348 45.9992 66.1263 45.8964C65.9045 45.7925 65.7318 45.6456 65.6081 45.4556C65.4855 45.2646 65.4243 45.0383 65.4243 44.7769V42.5782H66.3536V44.6965C66.3536 44.8026 66.377 44.8976 66.4238 44.9814C66.4706 45.064 66.5352 45.1288 66.6177 45.1758C66.7012 45.2227 66.7959 45.2461 66.9018 45.2461C67.0088 45.2461 67.1035 45.2227 67.1859 45.1758C67.2684 45.1288 67.333 45.064 67.3798 44.9814C67.4266 44.8976 67.45 44.8026 67.45 44.6965V42.5782Z" fill="#1A1C43"/>
<path d="M70.0448 46.0103V42.5782H72.4517V43.329H70.9741V43.9189H72.3046V44.6696H70.9741V46.0103H70.0448Z" fill="#1A1C43"/>
<path d="M74.479 46.0103H73.4761L74.606 42.5782H75.8763L77.0062 46.0103H76.0033L75.2545 43.5234H75.2278L74.479 46.0103ZM74.2918 44.6562H76.1771V45.3534H74.2918V44.6562Z" fill="#1A1C43"/>
<path d="M81.5945 43.8652H80.6519C80.6452 43.787 80.6273 43.7161 80.5984 43.6524C80.5705 43.5887 80.5315 43.534 80.4814 43.4882C80.4323 43.4412 80.3727 43.4055 80.3025 43.3809C80.2323 43.3552 80.1526 43.3424 80.0635 43.3424C79.9075 43.3424 79.7755 43.3804 79.6674 43.4563C79.5604 43.5323 79.4791 43.6412 79.4233 43.7831C79.3687 43.925 79.3414 44.0954 79.3414 44.2943C79.3414 44.5043 79.3693 44.6803 79.425 44.8222C79.4818 44.9629 79.5637 45.0691 79.6707 45.1406C79.7777 45.211 79.9064 45.2461 80.0568 45.2461C80.1426 45.2461 80.2195 45.2355 80.2875 45.2143C80.3554 45.192 80.4145 45.1601 80.4646 45.1188C80.5148 45.0774 80.5555 45.0277 80.5867 44.9696C80.619 44.9104 80.6407 44.8439 80.6519 44.7702L81.5945 44.7769C81.5834 44.9221 81.5427 45.0702 81.4725 45.221C81.4023 45.3707 81.3026 45.5093 81.1733 45.6366C81.0452 45.7629 80.8864 45.8645 80.697 45.9416C80.5075 46.0187 80.2875 46.0573 80.0368 46.0573C79.7225 46.0573 79.4406 45.9897 79.191 45.8545C78.9425 45.7193 78.7459 45.5204 78.601 45.2579C78.4573 44.9953 78.3854 44.6741 78.3854 44.2943C78.3854 43.9122 78.4589 43.5904 78.606 43.329C78.7531 43.0664 78.9514 42.8681 79.201 42.734C79.4506 42.5988 79.7292 42.5312 80.0368 42.5312C80.2529 42.5312 80.4518 42.5609 80.6335 42.6201C80.8151 42.6793 80.9744 42.7659 81.1115 42.8798C81.2486 42.9927 81.3589 43.1318 81.4424 43.2971C81.526 43.4625 81.5767 43.6518 81.5945 43.8652Z" fill="#1A1C43"/>
<path d="M83.1463 43.329V42.5782H86.1215V43.329H85.0919V46.0103H84.1759V43.329H83.1463Z" fill="#1A1C43"/>
<path d="M89.7208 42.5782H90.6501V44.7769C90.6501 45.0383 90.5877 45.2646 90.4629 45.4556C90.3392 45.6456 90.1665 45.7925 89.9447 45.8964C89.723 45.9992 89.4656 46.0506 89.1725 46.0506C88.8773 46.0506 88.6187 45.9992 88.397 45.8964C88.1752 45.7925 88.0025 45.6456 87.8788 45.4556C87.7563 45.2646 87.695 45.0383 87.695 44.7769V42.5782H88.6243V44.6965C88.6243 44.8026 88.6477 44.8976 88.6945 44.9814C88.7413 45.064 88.8059 45.1288 88.8884 45.1758C88.972 45.2227 89.0667 45.2461 89.1725 45.2461C89.2795 45.2461 89.3742 45.2227 89.4567 45.1758C89.5391 45.1288 89.6038 45.064 89.6506 44.9814C89.6974 44.8976 89.7208 44.8026 89.7208 44.6965V42.5782Z" fill="#1A1C43"/>
<path d="M92.3155 46.0103V42.5782H93.7931C94.0471 42.5782 94.2694 42.6245 94.46 42.7173C94.6505 42.81 94.7987 42.9435 94.9046 43.1178C95.0104 43.2921 95.0634 43.501 95.0634 43.7446C95.0634 43.9904 95.0088 44.1976 94.8996 44.3663C94.7915 44.535 94.6394 44.6624 94.4433 44.7484C94.2483 44.8344 94.0204 44.8775 93.7596 44.8775H92.8771V44.1535H93.5724C93.6816 44.1535 93.7747 44.1401 93.8516 44.1133C93.9296 44.0853 93.9892 44.0412 94.0304 43.9809C94.0728 43.9205 94.0939 43.8418 94.0939 43.7446C94.0939 43.6463 94.0728 43.5664 94.0304 43.5049C93.9892 43.4424 93.9296 43.3966 93.8516 43.3675C93.7747 43.3373 93.6816 43.3223 93.5724 43.3223H93.2448V46.0103H92.3155ZM94.3212 44.435L95.177 46.0103H94.1675L93.3318 44.435H94.3212Z" fill="#1A1C43"/>
<path d="M97.6126 42.5782V46.0103H96.6833V42.5782H97.6126Z" fill="#1A1C43"/>
<path d="M102.239 42.5782V46.0103H101.463L100.226 44.2071H100.206V46.0103H99.2768V42.5782H100.066L101.282 44.3747H101.309V42.5782H102.239Z" fill="#1A1C43"/>
<path d="M106.125 43.7111C106.11 43.6518 106.088 43.5999 106.056 43.5552C106.025 43.5094 105.986 43.4708 105.939 43.4396C105.894 43.4072 105.84 43.3831 105.779 43.3675C105.719 43.3507 105.652 43.3424 105.58 43.3424C105.424 43.3424 105.291 43.3798 105.181 43.4546C105.071 43.5295 104.988 43.6373 104.93 43.7781C104.873 43.9189 104.845 44.0887 104.845 44.2876C104.845 44.4887 104.872 44.6607 104.926 44.8037C104.981 44.9467 105.062 45.0562 105.171 45.1322C105.279 45.2082 105.413 45.2461 105.573 45.2461C105.715 45.2461 105.832 45.2255 105.926 45.1841C106.021 45.1428 106.091 45.0841 106.138 45.0082C106.185 44.9322 106.208 44.8428 106.208 44.74L106.369 44.7568H105.587V44.0932H107.104V44.5691C107.104 44.8819 107.038 45.1495 106.905 45.3718C106.774 45.593 106.592 45.7629 106.361 45.8813C106.13 45.9986 105.865 46.0573 105.567 46.0573C105.233 46.0573 104.941 45.9863 104.689 45.8444C104.437 45.7025 104.241 45.5003 104.099 45.2378C103.959 44.9752 103.889 44.6629 103.889 44.301C103.889 44.0172 103.931 43.7658 104.017 43.5468C104.104 43.3278 104.224 43.1429 104.378 42.9921C104.532 42.8402 104.71 42.7256 104.911 42.6486C105.113 42.5704 105.329 42.5312 105.56 42.5312C105.763 42.5312 105.951 42.5603 106.125 42.6184C106.3 42.6754 106.454 42.7569 106.588 42.8631C106.723 42.9681 106.831 43.0927 106.914 43.2368C106.996 43.3809 107.046 43.539 107.064 43.7111H106.125Z" fill="#1A1C43"/>
<path d="M111.192 46.0103V42.5782H113.418V43.0994H111.812V44.0311H113.303V44.5523H111.812V45.4891H113.431V46.0103H111.192Z" fill="#1A1C43"/>
<path d="M118.204 43.7362H117.579C117.561 43.6334 117.529 43.5424 117.481 43.463C117.433 43.3826 117.373 43.3144 117.302 43.2586C117.23 43.2027 117.149 43.1608 117.058 43.1329C116.967 43.1038 116.87 43.0893 116.765 43.0893C116.579 43.0893 116.414 43.1362 116.27 43.2301C116.127 43.3228 116.014 43.4591 115.933 43.639C115.852 43.8178 115.811 44.0362 115.811 44.2943C115.811 44.5568 115.852 44.778 115.933 44.9579C116.015 45.1367 116.128 45.2718 116.27 45.3635C116.414 45.454 116.579 45.4992 116.764 45.4992C116.866 45.4992 116.962 45.4858 117.051 45.459C117.141 45.431 117.222 45.3903 117.293 45.3366C117.366 45.283 117.427 45.2171 117.476 45.1389C117.526 45.0607 117.56 44.9713 117.579 44.8708L118.204 44.8741C118.181 45.0372 118.13 45.1903 118.052 45.3333C117.975 45.4763 117.875 45.6025 117.75 45.712C117.625 45.8204 117.479 45.9053 117.312 45.9668C117.145 46.0271 116.959 46.0573 116.755 46.0573C116.454 46.0573 116.186 45.9874 115.95 45.8478C115.713 45.7081 115.527 45.5065 115.391 45.2428C115.255 44.9791 115.187 44.6629 115.187 44.2943C115.187 43.9244 115.256 43.6083 115.393 43.3457C115.53 43.082 115.717 42.8804 115.953 42.7407C116.189 42.6011 116.457 42.5312 116.755 42.5312C116.946 42.5312 117.123 42.5581 117.287 42.6117C117.451 42.6653 117.597 42.7441 117.725 42.848C117.853 42.9508 117.958 43.077 118.041 43.2267C118.124 43.3753 118.179 43.5451 118.204 43.7362Z" fill="#1A1C43"/>
<path d="M123.055 44.2943C123.055 44.6641 122.986 44.9808 122.847 45.2445C122.71 45.507 122.523 45.7081 122.286 45.8478C122.05 45.9874 121.782 46.0573 121.482 46.0573C121.182 46.0573 120.914 45.9874 120.676 45.8478C120.44 45.707 120.253 45.5053 120.115 45.2428C119.978 44.9791 119.909 44.6629 119.909 44.2943C119.909 43.9244 119.978 43.6083 120.115 43.3457C120.253 43.082 120.44 42.8804 120.676 42.7407C120.914 42.6011 121.182 42.5312 121.482 42.5312C121.782 42.5312 122.05 42.6011 122.286 42.7407C122.523 42.8804 122.71 43.082 122.847 43.3457C122.986 43.6083 123.055 43.9244 123.055 44.2943ZM122.431 44.2943C122.431 44.0339 122.391 43.8144 122.309 43.6356C122.229 43.4558 122.118 43.32 121.975 43.2284C121.832 43.1357 121.668 43.0893 121.482 43.0893C121.296 43.0893 121.131 43.1357 120.989 43.2284C120.846 43.32 120.734 43.4558 120.653 43.6356C120.573 43.8144 120.533 44.0339 120.533 44.2943C120.533 44.5546 120.573 44.7747 120.653 44.9545C120.734 45.1333 120.846 45.269 120.989 45.3618C121.131 45.4534 121.296 45.4992 121.482 45.4992C121.668 45.4992 121.832 45.4534 121.975 45.3618C122.118 45.269 122.229 45.1333 122.309 44.9545C122.391 44.7747 122.431 44.5546 122.431 44.2943Z" fill="#1A1C43"/>
<path d="M126.725 43.5217C126.709 43.3753 126.644 43.2614 126.528 43.1798C126.413 43.0982 126.264 43.0575 126.08 43.0575C125.951 43.0575 125.84 43.077 125.747 43.1161C125.655 43.1552 125.584 43.2083 125.535 43.2753C125.486 43.3424 125.461 43.4189 125.46 43.5049C125.46 43.5764 125.476 43.6384 125.508 43.6909C125.542 43.7435 125.587 43.7881 125.644 43.825C125.7 43.8608 125.763 43.8909 125.832 43.9155C125.902 43.9401 125.971 43.9608 126.041 43.9775L126.362 44.058C126.492 44.0881 126.616 44.1289 126.735 44.1803C126.855 44.2317 126.963 44.2965 127.058 44.3747C127.153 44.4529 127.229 44.5473 127.285 44.6579C127.341 44.7685 127.369 44.8981 127.369 45.0467C127.369 45.2478 127.317 45.4249 127.215 45.578C127.112 45.7299 126.964 45.8489 126.77 45.9349C126.577 46.0198 126.344 46.0623 126.07 46.0623C125.804 46.0623 125.572 46.021 125.376 45.9383C125.181 45.8556 125.029 45.7349 124.918 45.5763C124.809 45.4176 124.75 45.2244 124.741 44.9964H125.351C125.36 45.116 125.397 45.2154 125.461 45.2947C125.526 45.3741 125.61 45.4333 125.714 45.4724C125.819 45.5115 125.936 45.531 126.065 45.531C126.2 45.531 126.318 45.5109 126.419 45.4707C126.522 45.4294 126.602 45.3724 126.66 45.2998C126.718 45.226 126.747 45.14 126.748 45.0417C126.747 44.9523 126.721 44.8786 126.67 44.8205C126.619 44.7613 126.547 44.7121 126.454 44.673C126.363 44.6328 126.256 44.597 126.133 44.5657L125.744 44.4652C125.462 44.3926 125.239 44.2825 125.075 44.135C124.913 43.9865 124.831 43.7893 124.831 43.5435C124.831 43.3412 124.886 43.1642 124.995 43.0122C125.105 42.8603 125.255 42.7424 125.445 42.6586C125.634 42.5737 125.849 42.5312 126.088 42.5312C126.331 42.5312 126.544 42.5737 126.727 42.6586C126.911 42.7424 127.055 42.8592 127.16 43.0089C127.264 43.1575 127.318 43.3284 127.322 43.5217H126.725Z" fill="#1A1C43"/>
<path d="M128.911 42.5782H129.611L130.449 44.0965H130.482L131.32 42.5782H132.02L130.775 44.73V46.0103H130.156V44.73L128.911 42.5782Z" fill="#1A1C43"/>
<path d="M135.543 43.5217C135.528 43.3753 135.462 43.2614 135.346 43.1798C135.231 43.0982 135.082 43.0575 134.898 43.0575C134.769 43.0575 134.658 43.077 134.565 43.1161C134.473 43.1552 134.402 43.2083 134.353 43.2753C134.304 43.3424 134.279 43.4189 134.278 43.5049C134.278 43.5764 134.294 43.6384 134.326 43.6909C134.36 43.7435 134.405 43.7881 134.462 43.825C134.519 43.8608 134.582 43.8909 134.651 43.9155C134.72 43.9401 134.789 43.9608 134.86 43.9775L135.181 44.058C135.31 44.0881 135.434 44.1289 135.553 44.1803C135.674 44.2317 135.781 44.2965 135.876 44.3747C135.972 44.4529 136.047 44.5473 136.103 44.6579C136.159 44.7685 136.187 44.8981 136.187 45.0467C136.187 45.2478 136.135 45.4249 136.033 45.578C135.93 45.7299 135.782 45.8489 135.588 45.9349C135.396 46.0198 135.162 46.0623 134.888 46.0623C134.622 46.0623 134.391 46.021 134.194 45.9383C133.999 45.8556 133.847 45.7349 133.736 45.5763C133.627 45.4176 133.568 45.2244 133.559 44.9964H134.169C134.178 45.116 134.215 45.2154 134.28 45.2947C134.344 45.3741 134.428 45.4333 134.532 45.4724C134.637 45.5115 134.754 45.531 134.883 45.531C135.018 45.531 135.136 45.5109 135.237 45.4707C135.34 45.4294 135.42 45.3724 135.478 45.2998C135.536 45.226 135.566 45.14 135.567 45.0417C135.566 44.9523 135.539 44.8786 135.488 44.8205C135.437 44.7613 135.365 44.7121 135.272 44.673C135.181 44.6328 135.074 44.597 134.952 44.5657L134.562 44.4652C134.28 44.3926 134.057 44.2825 133.894 44.135C133.731 43.9865 133.649 43.7893 133.649 43.5435C133.649 43.3412 133.704 43.1642 133.813 43.0122C133.924 42.8603 134.073 42.7424 134.263 42.6586C134.452 42.5737 134.667 42.5312 134.906 42.5312C135.149 42.5312 135.362 42.5737 135.545 42.6586C135.729 42.7424 135.873 42.8592 135.978 43.0089C136.083 43.1575 136.137 43.3284 136.14 43.5217H135.543Z" fill="#1A1C43"/>
<path d="M137.813 43.0994V42.5782H140.544V43.0994H139.486V46.0103H138.871V43.0994H137.813Z" fill="#1A1C43"/>
<path d="M142.294 46.0103V42.5782H144.521V43.0994H142.914V44.0311H144.405V44.5523H142.914V45.4891H144.534V46.0103H142.294Z" fill="#1A1C43"/>
<path d="M146.377 42.5782H147.136L148.152 45.0652H148.192L149.208 42.5782H149.967V46.0103H149.372V43.6524H149.34L148.394 46.0003H147.95L147.004 43.6474H146.972V46.0103H146.377V42.5782Z" fill="#1A1C43"/>
<path d="M153.727 43.5217C153.711 43.3753 153.645 43.2614 153.529 43.1798C153.415 43.0982 153.265 43.0575 153.081 43.0575C152.952 43.0575 152.841 43.077 152.749 43.1161C152.656 43.1552 152.586 43.2083 152.537 43.2753C152.488 43.3424 152.462 43.4189 152.461 43.5049C152.461 43.5764 152.477 43.6384 152.51 43.6909C152.543 43.7435 152.588 43.7881 152.645 43.825C152.702 43.8608 152.765 43.8909 152.834 43.9155C152.903 43.9401 152.973 43.9608 153.043 43.9775L153.364 44.058C153.493 44.0881 153.617 44.1289 153.737 44.1803C153.857 44.2317 153.965 44.2965 154.059 44.3747C154.155 44.4529 154.231 44.5473 154.287 44.6579C154.342 44.7685 154.37 44.8981 154.37 45.0467C154.37 45.2478 154.319 45.4249 154.216 45.578C154.114 45.7299 153.966 45.8489 153.772 45.9349C153.579 46.0198 153.346 46.0623 153.071 46.0623C152.805 46.0623 152.574 46.021 152.378 45.9383C152.183 45.8556 152.03 45.7349 151.92 45.5763C151.811 45.4176 151.752 45.2244 151.743 44.9964H152.353C152.362 45.116 152.398 45.2154 152.463 45.2947C152.528 45.3741 152.612 45.4333 152.715 45.4724C152.82 45.5115 152.937 45.531 153.066 45.531C153.201 45.531 153.319 45.5109 153.421 45.4707C153.523 45.4294 153.603 45.3724 153.661 45.2998C153.719 45.226 153.749 45.14 153.75 45.0417C153.749 44.9523 153.723 44.8786 153.671 44.8205C153.62 44.7613 153.548 44.7121 153.456 44.673C153.364 44.6328 153.257 44.597 153.135 44.5657L152.745 44.4652C152.464 44.3926 152.241 44.2825 152.077 44.135C151.914 43.9865 151.833 43.7893 151.833 43.5435C151.833 43.3412 151.887 43.1642 151.997 43.0122C152.107 42.8603 152.257 42.7424 152.446 42.6586C152.636 42.5737 152.85 42.5312 153.09 42.5312C153.333 42.5312 153.546 42.5737 153.728 42.6586C153.912 42.7424 154.056 42.8592 154.161 43.0089C154.266 43.1575 154.32 43.3284 154.323 43.5217H153.727Z" fill="#1A1C43"/>
<path d="M0.180664 38.6641H157.728" stroke="#D22027" stroke-width="0.5" stroke-miterlimit="10"/>
<path d="M0.180664 50.002H157.728" stroke="#D22027" stroke-width="0.5" stroke-miterlimit="10"/>
<path d="M12.3687 0.652827C10.129 1.1916 8.00314 2.18264 6.18319 3.60234C1.95887 6.89007 -0.457274 12.4076 0.072237 17.7404C0.252663 19.573 0.79002 21.3702 1.60978 23.018C2.42954 24.6658 3.5474 26.1878 4.88883 27.462C6.23026 28.7361 7.85802 29.7862 9.59952 30.5019C11.545 31.3003 13.5611 31.9177 15.6203 32.3385L15.6046 26.0934C11.7882 25.6569 8.35223 22.8057 7.21083 19.1286C6.06944 15.4515 7.28144 11.1492 10.1761 8.61652C13.0708 6.08387 17.2716 6.02881 20.9664 7.09457C21.3547 7.20468 22.147 7.47604 22.147 7.47604C22.147 7.47604 22.1823 6.79175 22.1901 6.61085C22.2372 5.55689 22.2686 3.75965 22.245 2.76075C22.2333 2.27703 22.2333 1.80904 22.1784 1.34498L22.1705 1.33318C22.1705 1.33318 21.6175 1.06183 21.3664 0.979239C18.4679 0.0550576 15.33 -0.0589896 12.3726 0.652827H12.3687Z" fill="#1A1C43"/>
<path d="M28.1324 32.0986L34.0551 32.3346V22.8568C34.0551 17.1544 34.212 13.4183 34.4081 13.497C34.6042 13.5363 37.7421 17.7836 41.3898 22.8568L47.9793 32.0986L52.8822 32.3346V0.0471918H46.6065L46.528 9.56429L46.4104 19.1207L39.5856 9.56429L32.7607 0.0471918H27.9755L28.1324 32.0986Z" fill="#1A1C43"/>
<path d="M58.3734 5.94622H72.8859V0.0471918H58.3734V5.94622Z" fill="#1A1C43"/>
<path d="M78.3772 16.1712C78.3772 18.2909 78.3772 20.4146 78.3772 22.5343C78.3772 25.2007 78.3772 27.867 78.3772 30.5334C78.3772 30.9227 78.2007 32.1301 78.4948 32.3306C78.789 32.5312 80.0951 32.2677 80.4795 32.252L84.4567 32.0986C84.5352 28.3625 84.6136 24.6265 84.6921 20.8904H89.3557C91.2502 24.6933 93.1447 28.4923 95.0431 32.2913C97.2199 32.3621 99.3968 32.307 101.57 32.1222C100.264 29.4401 98.9575 26.7541 97.6514 24.072C97.0748 22.8843 96.4943 21.6927 96.0746 20.4382C96.0275 20.3005 95.9844 20.155 96.0079 20.0095C96.0511 19.7578 96.2903 19.5926 96.5061 19.455C99.891 17.2488 102.111 13.1352 101.558 9.12777C101.276 7.07884 100.315 5.15575 98.9614 3.59054C97.8279 2.28096 96.3923 1.19554 94.741 0.680355C93.3721 0.251692 91.913 0.224162 90.4775 0.200566C86.4454 0.133711 82.4093 0.0668557 78.3772 0C78.3772 5.38778 78.3772 10.7795 78.3772 16.1673V16.1712ZM93.6349 6.92939C96.0668 9.01372 96.0668 12.3172 93.6349 14.4015C92.5367 15.306 92.1445 15.3847 88.5359 15.3847H84.6529V5.94622H88.5359C92.1445 5.94622 92.5367 6.02488 93.6349 6.92939Z" fill="#1A1C43"/>
<path d="M105.441 5.94622H112.109C115.796 5.94622 118.777 6.02488 118.777 6.10353C118.777 6.22151 115.796 10.9801 112.109 16.7611L105.441 27.2614V32.2952H127.014V26.3962H120.346C116.698 26.3962 113.678 26.2782 113.678 26.0816C113.678 25.9243 116.698 21.1264 120.346 15.3847L127.014 4.96305V0.0471918H105.441V5.94622Z" fill="#1A1C43"/>
<path d="M130.505 0.715749C130.701 1.10902 133.172 5.4743 135.996 10.4295L141.134 19.396V32.3346L147.214 32.0986L147.371 19.0027L152.666 9.68227C155.607 4.56978 158 0.283154 158 0.2045C158 0.125846 156.47 0.0471918 154.548 0.0471918H151.136L147.802 6.33949C145.959 9.80025 144.35 12.6318 144.193 12.6318C144.037 12.6318 142.389 9.80025 140.546 6.33949L137.173 0.0471918H133.642C130.426 0.0471918 130.152 0.086519 130.505 0.715749Z" fill="#1A1C43"/>
<path d="M58.3734 18.9241H70.9248V13.0251H58.3734V18.9241Z" fill="#1A1C43"/>
<path d="M22.2843 30.8795C22.3117 28.4805 22.2921 26.0816 22.2333 23.6826C21.7391 24.0444 21.2723 24.3709 20.7624 24.6697C19.6916 25.3029 18.7385 25.8024 17.5853 25.999C17.3108 26.0462 16.4557 26.1327 16.4557 26.1327C16.4557 26.1327 16.4322 26.7777 16.4243 27.1473C16.4165 27.6311 16.4126 28.1148 16.4047 28.5985C16.393 29.5659 16.389 30.5294 16.389 31.4969C16.389 31.6778 16.389 32.3463 16.389 32.3463C16.389 32.3463 18.409 32.2716 19.519 31.9963C20.629 31.7211 21.5508 31.3632 22.2803 30.8873L22.2843 30.8795Z" fill="#1A1C43"/>
<path d="M58.3734 32.2952H72.8859V26.3962H58.3734V32.2952Z" fill="#1A1C43"/>
<path d="M16.1302 20.1039V12.7734C16.4126 12.7537 17.9736 12.6711 19.2876 13.847C20.7232 15.129 20.7193 16.883 20.7153 17.1426C20.7232 17.4061 20.7467 18.8887 19.5936 20.0803C18.5816 21.1264 17.3343 21.2562 17.0205 21.2798C17.0127 22.259 17.0048 23.2382 16.997 24.2175C17.6991 24.1231 19.472 23.7888 21.0213 22.3259C21.9469 21.4528 22.4451 20.509 22.7039 19.8994C22.9275 19.219 23.1864 18.1493 23.1119 16.8358C23.0609 15.9746 22.8844 15.2549 22.7039 14.7161C22.5078 14.2206 21.9116 12.8992 20.4604 11.9318C19.17 11.0705 17.8952 10.9525 17.3539 10.9368C16.9578 10.9093 15.2594 10.8385 13.7885 12.0615C12.9296 12.7773 12.3726 13.7801 12.1569 14.8734C11.9411 15.9667 12.149 17.3589 12.8276 18.2555C13.667 19.3606 14.7456 20.0449 16.1341 20.1078L16.1302 20.1039Z" fill="#D22027"/>
<path d="M16.997 20.2573C16.997 20.2573 16.8989 13.6189 16.8989 13.615C16.8989 13.6032 17.3382 13.6661 17.3618 13.67C17.6638 13.729 17.958 13.8273 18.2325 13.965C18.9974 14.3504 19.5347 15.0465 19.7622 15.8684C19.8289 16.1161 19.8681 16.3718 19.8838 16.6313C19.927 17.5162 19.6877 18.4876 19.1033 19.1679C18.26 20.1511 17.2088 20.2415 17.0009 20.2533L16.997 20.2573Z" fill="#D22027"/>
</svg>
