<svg width="124" height="41" viewBox="0 0 124 41" fill="none" xmlns="http://www.w3.org/2000/svg">
<path d="M9.70706 0.516955C7.94937 0.943598 6.28095 1.72837 4.85263 2.85259C1.53734 5.45605 -0.358874 9.82524 0.0566924 14.0481C0.198293 15.4993 0.620016 16.9225 1.26337 18.2273C1.90673 19.5321 2.78404 20.7373 3.8368 21.7463C4.88957 22.7553 6.16705 23.5868 7.5338 24.1536C9.06062 24.7858 10.6428 25.2747 12.2589 25.6079L12.2466 20.6626C9.25147 20.3169 6.55491 18.0591 5.65914 15.1474C4.76336 12.2356 5.71455 8.82871 7.98631 6.82317C10.2581 4.81764 13.5549 4.77404 16.4546 5.61798C16.7594 5.70518 17.3812 5.92006 17.3812 5.92006C17.3812 5.92006 17.4089 5.37819 17.415 5.23494C17.452 4.40034 17.4766 2.97716 17.4581 2.18616C17.4489 1.80311 17.4489 1.43252 17.4058 1.06505L17.3996 1.05571C17.3996 1.05571 16.9656 0.840829 16.7686 0.775431C14.4938 0.0435985 12.0311 -0.0467122 9.71014 0.516955H9.70706Z" fill="white"/>
<path d="M22.0786 25.4179L26.7268 25.6048V18.0996C26.7268 13.5841 26.8499 10.6256 27.0038 10.6879C27.1577 10.719 29.6204 14.0823 32.4832 18.0996L37.6546 25.4179L41.5025 25.6048V0.0373698H36.5772L36.5157 7.57369L36.4233 15.1412L31.0671 7.57369L25.711 0.0373698H21.9555L22.0786 25.4179Z" fill="white"/>
<path d="M45.812 4.70864H57.2016V0.0373698H45.812V4.70864Z" fill="white"/>
<path d="M61.5112 12.8055C61.5112 14.4841 61.5112 16.1657 61.5112 17.8443C61.5112 19.9557 61.5112 22.0671 61.5112 24.1785C61.5112 24.4868 61.3727 25.4429 61.6035 25.6017C61.8344 25.7605 62.8595 25.5519 63.1611 25.5394L66.2825 25.4179C66.3441 22.4595 66.4056 19.501 66.4672 16.5425H70.1273C71.6141 19.5539 73.1009 22.5622 74.5908 25.5705C76.2992 25.6266 78.0076 25.583 79.713 25.4366C78.6879 23.3128 77.6629 21.1858 76.6378 19.0619C76.1853 18.1214 75.7297 17.1778 75.4003 16.1844C75.3634 16.0754 75.3295 15.9602 75.348 15.845C75.3819 15.6456 75.5696 15.5149 75.7389 15.4059C78.3955 13.6588 80.1378 10.4014 79.7038 7.22802C79.4821 5.60553 78.7279 4.08269 77.6659 2.84325C76.7763 1.80622 75.6497 0.946711 74.3537 0.538753C73.2794 0.199307 72.1343 0.177508 71.0076 0.158823C67.8432 0.105882 64.6757 0.0529411 61.5112 0C61.5112 4.26643 61.5112 8.53597 61.5112 12.8024V12.8055ZM73.4856 5.48719C75.3942 7.1377 75.3942 9.75362 73.4856 11.4041C72.6237 12.1204 72.3159 12.1827 69.4839 12.1827H66.4364V4.70864H69.4839C72.3159 4.70864 72.6237 4.77093 73.4856 5.48719Z" fill="white"/>
<path d="M82.7512 4.70864H87.9843C90.8779 4.70864 93.2173 4.77093 93.2173 4.83321C93.2173 4.92664 90.8779 8.69479 87.9843 13.2726L82.7512 21.5875V25.5737H99.6817V20.9024H94.4486C91.5859 20.9024 89.2156 20.809 89.2156 20.6533C89.2156 20.5287 91.5859 16.7294 94.4486 12.1827L99.6817 3.9301V0.0373698H82.7512V4.70864Z" fill="white"/>
<path d="M102.421 0.566781C102.575 0.878199 104.515 4.33494 106.731 8.25881L110.763 15.3591V25.6048L115.535 25.4179L115.658 15.0477L119.814 7.66712C122.122 3.61868 124 0.224221 124 0.161938C124 0.099654 122.799 0.0373698 121.291 0.0373698H118.613L115.997 5.02006C114.55 7.76054 113.288 10.0028 113.165 10.0028C113.041 10.0028 111.748 7.76054 110.302 5.02006L107.654 0.0373698H104.884C102.36 0.0373698 102.144 0.0685119 102.421 0.566781Z" fill="white"/>
<path d="M45.812 14.9854H55.6625V10.3142H45.812V14.9854Z" fill="white"/>
<path d="M17.4889 24.4526C17.5105 22.5529 17.4951 20.6533 17.4489 18.7536C17.061 19.0401 16.6947 19.2986 16.2945 19.5353C15.4542 20.0366 14.7062 20.4321 13.8012 20.5879C13.5857 20.6252 12.9146 20.6937 12.9146 20.6937C12.9146 20.6937 12.8961 21.2045 12.89 21.4972C12.8838 21.8802 12.8807 22.2633 12.8746 22.6463C12.8654 23.4124 12.8623 24.1754 12.8623 24.9415C12.8623 25.0847 12.8623 25.6141 12.8623 25.6141C12.8623 25.6141 14.4476 25.555 15.3187 25.337C16.1899 25.119 16.9133 24.8356 17.4858 24.4588L17.4889 24.4526Z" fill="white"/>
<path d="M45.812 25.5737H57.2016V20.9024H45.812V25.5737Z" fill="white"/>
<path d="M12.6591 15.9197V10.1149C12.8807 10.0993 14.1059 10.0339 15.1371 10.965C16.2638 11.9803 16.2607 13.3692 16.2576 13.5747C16.2638 13.7834 16.2822 14.9574 15.3772 15.901C14.583 16.7294 13.6041 16.8322 13.3579 16.8508C13.3517 17.6263 13.3456 18.4017 13.3394 19.1771C13.8904 19.1024 15.2818 18.8377 16.4977 17.6792C17.2242 16.9879 17.6151 16.2405 17.8183 15.7578C17.9937 15.219 18.1969 14.3719 18.1384 13.3318C18.0984 12.6498 17.9599 12.0799 17.8183 11.6533C17.6644 11.2609 17.1965 10.2145 16.0575 9.44843C15.0448 8.76642 14.0443 8.673 13.6195 8.66054C13.3086 8.63874 11.9757 8.58268 10.8214 9.5512C10.1472 10.118 9.71013 10.9121 9.54083 11.7778C9.37152 12.6436 9.53467 13.746 10.0672 14.456C10.726 15.3311 11.5725 15.873 12.6622 15.9228L12.6591 15.9197Z" fill="#D22027"/>
<path d="M13.3394 16.0412C13.3394 16.0412 13.2625 10.7844 13.2625 10.7813C13.2625 10.772 13.6072 10.8218 13.6257 10.8249C13.8627 10.8716 14.0936 10.9495 14.3091 11.0585C14.9093 11.3637 15.331 11.9149 15.5096 12.5657C15.5619 12.7619 15.5927 12.9643 15.605 13.1699C15.6389 13.8706 15.4511 14.6398 14.9924 15.1785C14.3306 15.9571 13.5056 16.0287 13.3425 16.038L13.3394 16.0412Z" fill="#D22027"/>
<path d="M2.26953 36.7336V33.9251H4.01006V34.3516H2.75432V35.114H3.91989V35.5405H2.75432V36.3071H4.02051V36.7336H2.26953Z" fill="white"/>
<path d="M5.46136 33.9251H6.0546L6.84907 35.9601H6.88044L7.67491 33.9251H8.26815V36.7336H7.80297V34.8041H7.77814L7.03855 36.7253H6.69096L5.95137 34.8H5.92654V36.7336H5.46136V33.9251Z" fill="white"/>
<path d="M9.75277 36.7336V33.9251H10.7563C10.9619 33.9251 11.1344 33.9653 11.2738 34.0458C11.414 34.1262 11.5199 34.2369 11.5913 34.3777C11.6636 34.5175 11.6998 34.6766 11.6998 34.8549C11.6998 35.035 11.6636 35.195 11.5913 35.3348C11.519 35.4747 11.4123 35.5849 11.2712 35.6653C11.13 35.7449 10.9562 35.7846 10.7498 35.7846H10.0847V35.3664H10.6845C10.8047 35.3664 10.9031 35.3444 10.9798 35.3005C11.0564 35.2567 11.113 35.1963 11.1496 35.1195C11.1871 35.0427 11.2058 34.9545 11.2058 34.8549C11.2058 34.7552 11.1871 34.6675 11.1496 34.5916C11.113 34.5157 11.056 34.4567 10.9785 34.4147C10.9018 34.3717 10.8029 34.3502 10.6818 34.3502H10.2376V36.7336H9.75277Z" fill="white"/>
<path d="M15.4688 35.3293C15.4688 35.6319 15.4148 35.8911 15.3068 36.1069C15.1996 36.3217 15.0533 36.4863 14.8677 36.6006C14.6831 36.7148 14.4736 36.772 14.2392 36.772C14.0049 36.772 13.7949 36.7148 13.6094 36.6006C13.4247 36.4854 13.2784 36.3203 13.1703 36.1055C13.0632 35.8898 13.0096 35.631 13.0096 35.3293C13.0096 35.0267 13.0632 34.768 13.1703 34.5532C13.2784 34.3374 13.4247 34.1724 13.6094 34.0581C13.7949 33.9439 14.0049 33.8867 14.2392 33.8867C14.4736 33.8867 14.6831 33.9439 14.8677 34.0581C15.0533 34.1724 15.1996 34.3374 15.3068 34.5532C15.4148 34.768 15.4688 35.0267 15.4688 35.3293ZM14.9814 35.3293C14.9814 35.1163 14.9496 34.9367 14.886 34.7904C14.8233 34.6432 14.7362 34.5322 14.6247 34.4572C14.5132 34.3813 14.3847 34.3434 14.2392 34.3434C14.0937 34.3434 13.9652 34.3813 13.8537 34.4572C13.7422 34.5322 13.6547 34.6432 13.5911 34.7904C13.5284 34.9367 13.497 35.1163 13.497 35.3293C13.497 35.5424 13.5284 35.7225 13.5911 35.8696C13.6547 36.0159 13.7422 36.127 13.8537 36.2029C13.9652 36.2778 14.0937 36.3153 14.2392 36.3153C14.3847 36.3153 14.5132 36.2778 14.6247 36.2029C14.7362 36.127 14.8233 36.0159 14.886 35.8696C14.9496 35.7225 14.9814 35.5424 14.9814 35.3293Z" fill="white"/>
<path d="M17.3788 36.7336L16.6235 33.9251H17.1449L17.627 35.9889H17.6519L18.1667 33.9251H18.641L19.1572 35.9903H19.1807L19.6629 33.9251H20.1843L19.429 36.7336H18.9507L18.415 34.763H18.3941L17.857 36.7336H17.3788Z" fill="white"/>
<path d="M21.4771 36.7336V33.9251H23.2177V34.3516H21.9619V35.114H23.1275V35.5405H21.9619V36.3071H23.2281V36.7336H21.4771Z" fill="white"/>
<path d="M24.669 36.7336V33.9251H25.6725C25.8781 33.9251 26.0506 33.9626 26.19 34.0376C26.3302 34.1125 26.436 34.2177 26.5075 34.353C26.5798 34.4874 26.6159 34.6441 26.6159 34.8233C26.6159 35.0034 26.5793 35.1598 26.5062 35.2923C26.4339 35.424 26.3272 35.5259 26.186 35.5981C26.0449 35.6694 25.8716 35.7051 25.666 35.7051H24.9512V35.2827H25.6006C25.7208 35.2827 25.8193 35.2653 25.8959 35.2306C25.9726 35.195 26.0292 35.1433 26.0658 35.0757C26.1033 35.0071 26.122 34.923 26.122 34.8233C26.122 34.7237 26.1033 34.6387 26.0658 34.5683C26.0284 34.497 25.9713 34.443 25.8946 34.4064C25.818 34.369 25.7191 34.3502 25.598 34.3502H25.1537V36.7336H24.669ZM26.0514 35.461L26.7139 36.7336H26.173L25.5222 35.461H26.0514Z" fill="white"/>
<path d="M28.5037 33.9251V36.7336H28.0189V33.9251H28.5037Z" fill="white"/>
<path d="M32.1845 33.9251V36.7336H31.7533L30.4924 34.8206H30.4701V36.7336H29.9854V33.9251H30.4192L31.6788 35.8395H31.7024V33.9251H32.1845Z" fill="white"/>
<path d="M35.4623 34.822C35.4405 34.7479 35.4104 34.6816 35.3721 34.6231C35.3347 34.5637 35.2894 34.513 35.2362 34.4709C35.184 34.4288 35.1238 34.3973 35.0559 34.3763C34.9879 34.3543 34.9139 34.3434 34.8338 34.3434C34.69 34.3434 34.562 34.3813 34.4496 34.4572C34.3372 34.5331 34.2488 34.6446 34.1843 34.7918C34.1207 34.9381 34.0889 35.1163 34.0889 35.3266C34.0889 35.5387 34.1207 35.7183 34.1843 35.8655C34.2479 36.0127 34.3363 36.1247 34.4496 36.2015C34.5628 36.2774 34.6944 36.3153 34.8442 36.3153C34.9801 36.3153 35.0977 36.2879 35.197 36.233C35.2972 36.1782 35.3743 36.1005 35.4283 35.9999C35.4823 35.8984 35.5093 35.7796 35.5093 35.6434L35.6191 35.6612H34.8926V35.2635H35.9784V35.6009C35.9784 35.8413 35.9296 36.0493 35.8321 36.2248C35.7345 36.4003 35.6004 36.5356 35.4296 36.6307C35.2589 36.7249 35.0629 36.772 34.8416 36.772C34.5951 36.772 34.3786 36.7139 34.1922 36.5978C34.0066 36.4808 33.8616 36.3149 33.757 36.1C33.6534 35.8843 33.6015 35.6283 33.6015 35.3321C33.6015 35.1054 33.632 34.9029 33.693 34.7246C33.7549 34.5463 33.8411 34.395 33.9517 34.2707C34.0624 34.1454 34.1922 34.0504 34.3411 33.9855C34.4901 33.9196 34.6521 33.8867 34.8272 33.8867C34.9753 33.8867 35.1134 33.9096 35.2414 33.9553C35.3695 34.0001 35.4832 34.0641 35.5825 34.1473C35.6827 34.2305 35.765 34.3292 35.8295 34.4435C35.8939 34.5577 35.9362 34.6839 35.9562 34.822H35.4623Z" fill="white"/>
<path d="M39.1208 33.9251H40.025L40.647 35.5158H40.6784L41.3004 33.9251H42.2046V36.7336H41.4938V35.1099H41.4729L40.877 36.7116H40.4484L39.8526 35.099H39.8317V36.7336H39.1208V33.9251Z" fill="white"/>
<path d="M44.2008 36.7336H43.4168L44.3001 33.9251H45.2932L46.1765 36.7336H45.3925L44.8071 34.6985H44.7862L44.2008 36.7336ZM44.0545 35.6255H45.5284V36.196H44.0545V35.6255Z" fill="white"/>
<path d="M49.7065 33.9251V36.7336H49.1002L48.1332 35.258H48.1175V36.7336H47.391V33.9251H48.0078L48.959 35.3952H48.98V33.9251H49.7065Z" fill="white"/>
<path d="M52.5906 33.9251H53.3171V35.7243C53.3171 35.9382 53.2683 36.1233 53.1708 36.2797C53.0741 36.4351 52.939 36.5553 52.7657 36.6403C52.5923 36.7244 52.3911 36.7665 52.162 36.7665C51.9311 36.7665 51.729 36.7244 51.5557 36.6403C51.3823 36.5553 51.2473 36.4351 51.1506 36.2797C51.0548 36.1233 51.0069 35.9382 51.0069 35.7243V33.9251H51.7334V35.6585C51.7334 35.7453 51.7517 35.823 51.7883 35.8916C51.8249 35.9592 51.8754 36.0123 51.9398 36.0507C52.0052 36.0891 52.0792 36.1083 52.162 36.1083C52.2456 36.1083 52.3197 36.0891 52.3841 36.0507C52.4486 36.0123 52.4991 35.9592 52.5357 35.8916C52.5723 35.823 52.5906 35.7453 52.5906 35.6585V33.9251Z" fill="white"/>
<path d="M54.6191 36.7336V33.9251H56.5008V34.5395H55.3456V35.0222H56.3858V35.6365H55.3456V36.7336H54.6191Z" fill="white"/>
<path d="M58.0857 36.7336H57.3017L58.185 33.9251H59.1781L60.0614 36.7336H59.2774L58.692 34.6985H58.6711L58.0857 36.7336ZM57.9393 35.6255H59.4133V36.196H57.9393V35.6255Z" fill="white"/>
<path d="M63.6485 34.9783H62.9115C62.9063 34.9143 62.8924 34.8562 62.8697 34.8041C62.8479 34.752 62.8175 34.7072 62.7783 34.6697C62.7399 34.6313 62.6933 34.6021 62.6384 34.582C62.5836 34.5609 62.5213 34.5504 62.4516 34.5504C62.3296 34.5504 62.2264 34.5815 62.1419 34.6437C62.0583 34.7059 61.9947 34.795 61.9511 34.9111C61.9084 35.0272 61.8871 35.1666 61.8871 35.3293C61.8871 35.5012 61.9089 35.6452 61.9524 35.7613C61.9968 35.8765 62.0609 35.9633 62.1445 36.0219C62.2281 36.0795 62.3287 36.1083 62.4463 36.1083C62.5134 36.1083 62.5735 36.0996 62.6267 36.0822C62.6798 36.0639 62.726 36.0379 62.7652 36.004C62.8044 35.9702 62.8362 35.9295 62.8606 35.882C62.8858 35.8335 62.9028 35.7791 62.9115 35.7188L63.6485 35.7243C63.6398 35.8431 63.608 35.9643 63.5531 36.0877C63.4982 36.2102 63.4203 36.3235 63.3192 36.4278C63.219 36.5311 63.0949 36.6143 62.9468 36.6773C62.7987 36.7404 62.6267 36.772 62.4307 36.772C62.185 36.772 61.9646 36.7167 61.7695 36.606C61.5752 36.4954 61.4215 36.3327 61.3082 36.1179C61.1958 35.903 61.1396 35.6402 61.1396 35.3293C61.1396 35.0167 61.1971 34.7534 61.3121 34.5395C61.4271 34.3246 61.5822 34.1624 61.7773 34.0526C61.9725 33.942 62.1902 33.8867 62.4307 33.8867C62.5997 33.8867 62.7552 33.9109 62.8972 33.9594C63.0392 34.0079 63.1637 34.0787 63.2709 34.172C63.378 34.2643 63.4643 34.3781 63.5296 34.5134C63.5949 34.6487 63.6346 34.8037 63.6485 34.9783Z" fill="white"/>
<path d="M64.8617 34.5395V33.9251H67.1876V34.5395H66.3827V36.7336H65.6666V34.5395H64.8617Z" fill="white"/>
<path d="M70.0015 33.9251H70.728V35.7243C70.728 35.9382 70.6792 36.1233 70.5816 36.2797C70.4849 36.4351 70.3499 36.5553 70.1766 36.6403C70.0032 36.7244 69.802 36.7665 69.5729 36.7665C69.342 36.7665 69.1399 36.7244 68.9666 36.6403C68.7932 36.5553 68.6582 36.4351 68.5615 36.2797C68.4657 36.1233 68.4177 35.9382 68.4177 35.7243V33.9251H69.1443V35.6585C69.1443 35.7453 69.1626 35.823 69.1992 35.8916C69.2357 35.9592 69.2863 36.0123 69.3507 36.0507C69.4161 36.0891 69.4901 36.1083 69.5729 36.1083C69.6565 36.1083 69.7305 36.0891 69.795 36.0507C69.8595 36.0123 69.91 35.9592 69.9466 35.8916C69.9832 35.823 70.0015 35.7453 70.0015 35.6585V33.9251Z" fill="white"/>
<path d="M72.03 36.7336V33.9251H73.1851C73.3837 33.9251 73.5575 33.9631 73.7065 34.0389C73.8555 34.1148 73.9713 34.2241 74.0541 34.3667C74.1368 34.5093 74.1782 34.6803 74.1782 34.8796C74.1782 35.0807 74.1355 35.2503 74.0502 35.3883C73.9657 35.5264 73.8467 35.6306 73.6934 35.701C73.541 35.7714 73.3628 35.8066 73.159 35.8066H72.469V35.2142H73.0126C73.098 35.2142 73.1707 35.2032 73.2309 35.1812C73.2918 35.1584 73.3384 35.1223 73.3707 35.0729C73.4038 35.0235 73.4203 34.9591 73.4203 34.8796C73.4203 34.7991 73.4038 34.7337 73.3707 34.6835C73.3384 34.6323 73.2918 34.5948 73.2309 34.571C73.1707 34.5463 73.098 34.534 73.0126 34.534H72.7565V36.7336H72.03ZM73.598 35.4445L74.2671 36.7336H73.4778L72.8245 35.4445H73.598Z" fill="white"/>
<path d="M76.1712 33.9251V36.7336H75.4446V33.9251H76.1712Z" fill="white"/>
<path d="M79.7877 33.9251V36.7336H79.1813L78.2144 35.258H78.1987V36.7336H77.4722V33.9251H78.0889L79.0402 35.3952H79.0611V33.9251H79.7877Z" fill="white"/>
<path d="M82.8259 34.8521C82.8146 34.8037 82.7968 34.7612 82.7724 34.7246C82.748 34.6871 82.7175 34.6556 82.6809 34.63C82.6452 34.6035 82.6034 34.5838 82.5555 34.571C82.5084 34.5573 82.4566 34.5504 82.4 34.5504C82.278 34.5504 82.1739 34.5811 82.0877 34.6423C82.0023 34.7036 81.937 34.7918 81.8916 34.907C81.8472 35.0222 81.825 35.1611 81.825 35.3239C81.825 35.4884 81.8464 35.6292 81.889 35.7462C81.9317 35.8632 81.9953 35.9528 82.0798 36.015C82.1643 36.0772 82.2693 36.1083 82.3947 36.1083C82.5054 36.1083 82.5973 36.0913 82.6704 36.0575C82.7445 36.0237 82.7998 35.9757 82.8364 35.9135C82.873 35.8514 82.8913 35.7782 82.8913 35.6941L83.0167 35.7078H82.4052V35.1648H83.5917V35.5542C83.5917 35.8102 83.5398 36.0292 83.4362 36.2111C83.3334 36.3921 83.1914 36.5311 83.0102 36.628C82.8299 36.724 82.623 36.772 82.3895 36.772C82.129 36.772 81.9004 36.7139 81.7035 36.5978C81.5066 36.4817 81.3529 36.3162 81.2422 36.1014C81.1325 35.8866 81.0776 35.631 81.0776 35.3348C81.0776 35.1026 81.1111 34.8969 81.1782 34.7177C81.2461 34.5386 81.3402 34.3872 81.4604 34.2638C81.5807 34.1395 81.7196 34.0458 81.8773 33.9827C82.035 33.9187 82.204 33.8867 82.3843 33.8867C82.5428 33.8867 82.69 33.9105 82.8259 33.958C82.9627 34.0047 83.0834 34.0714 83.1879 34.1582C83.2933 34.2442 83.3782 34.3461 83.4427 34.464C83.5072 34.582 83.5464 34.7113 83.5603 34.8521H82.8259Z" fill="white"/>
<path d="M86.787 36.7336V33.9251H88.5275V34.3516H87.2718V35.114H88.4373V35.5405H87.2718V36.3071H88.5379V36.7336H86.787Z" fill="white"/>
<path d="M92.2694 34.8727H91.7807C91.7668 34.7886 91.7411 34.7141 91.7036 34.6492C91.6662 34.5833 91.6196 34.5276 91.5638 34.4819C91.5081 34.4362 91.4445 34.4019 91.373 34.379C91.3025 34.3553 91.2263 34.3434 91.1444 34.3434C90.9989 34.3434 90.87 34.3818 90.7576 34.4586C90.6452 34.5344 90.5572 34.646 90.4936 34.7932C90.43 34.9394 90.3982 35.1182 90.3982 35.3293C90.3982 35.5442 90.43 35.7252 90.4936 35.8724C90.5581 36.0187 90.6461 36.1293 90.7576 36.2042C90.87 36.2783 90.9985 36.3153 91.1431 36.3153C91.2232 36.3153 91.2981 36.3043 91.3678 36.2824C91.4384 36.2596 91.5015 36.2262 91.5573 36.1823C91.6139 36.1384 91.6614 36.0845 91.6997 36.0205C91.7389 35.9565 91.7659 35.8834 91.7807 35.8011L92.2694 35.8038C92.2512 35.9373 92.2115 36.0625 92.1505 36.1796C92.0904 36.2966 92.0116 36.3999 91.914 36.4895C91.8164 36.5782 91.7023 36.6476 91.5717 36.6979C91.441 36.7473 91.296 36.772 91.1365 36.772C90.9013 36.772 90.6914 36.7148 90.5067 36.6006C90.322 36.4863 90.1765 36.3213 90.0703 36.1055C89.964 35.8898 89.9108 35.631 89.9108 35.3293C89.9108 35.0267 89.9644 34.768 90.0716 34.5532C90.1787 34.3374 90.3246 34.1724 90.5093 34.0581C90.694 33.9439 90.9031 33.8867 91.1365 33.8867C91.2855 33.8867 91.424 33.9087 91.5521 33.9525C91.6801 33.9964 91.7942 34.0609 91.8944 34.1459C91.9946 34.23 92.0769 34.3333 92.1414 34.4558C92.2067 34.5774 92.2494 34.7164 92.2694 34.8727Z" fill="white"/>
<path d="M96.0614 35.3293C96.0614 35.6319 96.0074 35.8911 95.8993 36.1069C95.7922 36.3217 95.6458 36.4863 95.4603 36.6006C95.2756 36.7148 95.0661 36.772 94.8318 36.772C94.5974 36.772 94.3875 36.7148 94.2019 36.6006C94.0173 36.4854 93.8709 36.3203 93.7629 36.1055C93.6557 35.8898 93.6022 35.631 93.6022 35.3293C93.6022 35.0267 93.6557 34.768 93.7629 34.5532C93.8709 34.3374 94.0173 34.1724 94.2019 34.0581C94.3875 33.9439 94.5974 33.8867 94.8318 33.8867C95.0661 33.8867 95.2756 33.9439 95.4603 34.0581C95.6458 34.1724 95.7922 34.3374 95.8993 34.5532C96.0074 34.768 96.0614 35.0267 96.0614 35.3293ZM95.574 35.3293C95.574 35.1163 95.5422 34.9367 95.4786 34.7904C95.4159 34.6432 95.3287 34.5322 95.2172 34.4572C95.1057 34.3813 94.9772 34.3434 94.8318 34.3434C94.6863 34.3434 94.5578 34.3813 94.4463 34.4572C94.3348 34.5322 94.2472 34.6432 94.1836 34.7904C94.1209 34.9367 94.0896 35.1163 94.0896 35.3293C94.0896 35.5424 94.1209 35.7225 94.1836 35.8696C94.2472 36.0159 94.3348 36.127 94.4463 36.2029C94.5578 36.2778 94.6863 36.3153 94.8318 36.3153C94.9772 36.3153 95.1057 36.2778 95.2172 36.2029C95.3287 36.127 95.4159 36.0159 95.4786 35.8696C95.5422 35.7225 95.574 35.5424 95.574 35.3293Z" fill="white"/>
<path d="M98.9308 34.6972C98.9186 34.5774 98.8672 34.4842 98.7766 34.4174C98.6868 34.3507 98.5701 34.3173 98.4264 34.3173C98.3253 34.3173 98.2386 34.3333 98.1663 34.3653C98.094 34.3973 98.0387 34.4407 98.0004 34.4956C97.9621 34.5504 97.9425 34.6131 97.9416 34.6835C97.9416 34.742 97.9542 34.7927 97.9795 34.8357C98.0056 34.8786 98.0409 34.9152 98.0853 34.9454C98.1298 34.9746 98.179 34.9993 98.233 35.0194C98.287 35.0395 98.3414 35.0565 98.3963 35.0702L98.6472 35.136C98.7483 35.1607 98.8454 35.194 98.9386 35.2361C99.0327 35.2781 99.1168 35.3312 99.1908 35.3952C99.2657 35.4592 99.325 35.5364 99.3685 35.6269C99.4121 35.7174 99.4338 35.8235 99.4338 35.9451C99.4338 36.1096 99.3938 36.2545 99.3136 36.3798C99.2335 36.5041 99.1176 36.6015 98.966 36.6719C98.8153 36.7413 98.6328 36.7761 98.4185 36.7761C98.2103 36.7761 98.0296 36.7423 97.8763 36.6746C97.7238 36.607 97.6045 36.5082 97.5182 36.3784C97.4328 36.2486 97.3867 36.0904 97.3797 35.9039H97.8567C97.8636 36.0017 97.8924 36.0831 97.9429 36.148C97.9934 36.2129 98.0592 36.2614 98.1402 36.2934C98.2221 36.3254 98.3136 36.3414 98.4146 36.3414C98.52 36.3414 98.6124 36.3249 98.6916 36.292C98.7718 36.2582 98.8345 36.2116 98.8798 36.1521C98.9251 36.0918 98.9482 36.0214 98.9491 35.941C98.9482 35.8678 98.9277 35.8075 98.8876 35.7599C98.8476 35.7115 98.7914 35.6713 98.7191 35.6393C98.6476 35.6063 98.564 35.5771 98.4682 35.5515L98.1637 35.4692C97.9433 35.4098 97.7691 35.3197 97.6411 35.1991C97.5139 35.0775 97.4503 34.9161 97.4503 34.715C97.4503 34.5495 97.493 34.4046 97.5783 34.2803C97.6646 34.156 97.7817 34.0595 97.9298 33.9909C98.0779 33.9215 98.2456 33.8867 98.4329 33.8867C98.6228 33.8867 98.7892 33.9215 98.9321 33.9909C99.0758 34.0595 99.1886 34.155 99.2705 34.2775C99.3524 34.3991 99.3946 34.539 99.3973 34.6972H98.9308Z" fill="white"/>
<path d="M100.64 33.9251H101.187L101.842 35.1675H101.868L102.523 33.9251H103.07L102.097 35.6859V36.7336H101.613V35.6859L100.64 33.9251Z" fill="white"/>
<path d="M105.825 34.6972C105.812 34.5774 105.761 34.4842 105.671 34.4174C105.581 34.3507 105.464 34.3173 105.32 34.3173C105.219 34.3173 105.133 34.3333 105.06 34.3653C104.988 34.3973 104.933 34.4407 104.894 34.4956C104.856 34.5504 104.836 34.6131 104.836 34.6835C104.836 34.742 104.848 34.7927 104.873 34.8357C104.9 34.8786 104.935 34.9152 104.979 34.9454C105.024 34.9746 105.073 34.9993 105.127 35.0194C105.181 35.0395 105.235 35.0565 105.29 35.0702L105.541 35.136C105.642 35.1607 105.739 35.194 105.833 35.2361C105.927 35.2781 106.011 35.3312 106.085 35.3952C106.16 35.4592 106.219 35.5364 106.262 35.6269C106.306 35.7174 106.328 35.8235 106.328 35.9451C106.328 36.1096 106.288 36.2545 106.208 36.3798C106.127 36.5041 106.012 36.6015 105.86 36.6719C105.709 36.7413 105.527 36.7761 105.312 36.7761C105.104 36.7761 104.924 36.7423 104.77 36.6746C104.618 36.607 104.498 36.5082 104.412 36.3784C104.327 36.2486 104.281 36.0904 104.274 35.9039H104.751C104.758 36.0017 104.786 36.0831 104.837 36.148C104.887 36.2129 104.953 36.2614 105.034 36.2934C105.116 36.3254 105.207 36.3414 105.309 36.3414C105.414 36.3414 105.506 36.3249 105.586 36.292C105.666 36.2582 105.728 36.2116 105.774 36.1521C105.819 36.0918 105.842 36.0214 105.843 35.941C105.842 35.8678 105.822 35.8075 105.782 35.7599C105.741 35.7115 105.685 35.6713 105.613 35.6393C105.542 35.6063 105.458 35.5771 105.362 35.5515L105.058 35.4692C104.837 35.4098 104.663 35.3197 104.535 35.1991C104.408 35.0775 104.344 34.9161 104.344 34.715C104.344 34.5495 104.387 34.4046 104.472 34.2803C104.559 34.156 104.676 34.0595 104.824 33.9909C104.972 33.9215 105.14 33.8867 105.327 33.8867C105.517 33.8867 105.683 33.9215 105.826 33.9909C105.97 34.0595 106.083 34.155 106.164 34.2775C106.246 34.3991 106.289 34.539 106.291 34.6972H105.825Z" fill="white"/>
<path d="M107.599 34.3516V33.9251H109.734V34.3516H108.907V36.7336H108.426V34.3516H107.599Z" fill="white"/>
<path d="M111.103 36.7336V33.9251H112.843V34.3516H111.587V35.114H112.753V35.5405H111.587V36.3071H112.854V36.7336H111.103Z" fill="white"/>
<path d="M114.294 33.9251H114.888L115.682 35.9601H115.713L116.508 33.9251H117.101V36.7336H116.636V34.8041H116.611L115.872 36.7253H115.524L114.784 34.8H114.76V36.7336H114.294V33.9251Z" fill="white"/>
<path d="M120.04 34.6972C120.028 34.5774 119.977 34.4842 119.886 34.4174C119.796 34.3507 119.679 34.3173 119.536 34.3173C119.435 34.3173 119.348 34.3333 119.276 34.3653C119.203 34.3973 119.148 34.4407 119.11 34.4956C119.071 34.5504 119.052 34.6131 119.051 34.6835C119.051 34.742 119.064 34.7927 119.089 34.8357C119.115 34.8786 119.15 34.9152 119.195 34.9454C119.239 34.9746 119.288 34.9993 119.342 35.0194C119.396 35.0395 119.451 35.0565 119.506 35.0702L119.757 35.136C119.858 35.1607 119.955 35.194 120.048 35.2361C120.142 35.2781 120.226 35.3312 120.3 35.3952C120.375 35.4592 120.434 35.5364 120.478 35.6269C120.521 35.7174 120.543 35.8235 120.543 35.9451C120.543 36.1096 120.503 36.2545 120.423 36.3798C120.343 36.5041 120.227 36.6015 120.075 36.6719C119.925 36.7413 119.742 36.7761 119.528 36.7761C119.32 36.7761 119.139 36.7423 118.986 36.6746C118.833 36.607 118.714 36.5082 118.628 36.3784C118.542 36.2486 118.496 36.0904 118.489 35.9039H118.966C118.973 36.0017 119.002 36.0831 119.052 36.148C119.103 36.2129 119.169 36.2614 119.25 36.2934C119.331 36.3254 119.423 36.3414 119.524 36.3414C119.629 36.3414 119.722 36.3249 119.801 36.292C119.881 36.2582 119.944 36.2116 119.989 36.1521C120.034 36.0918 120.058 36.0214 120.058 35.941C120.058 35.8678 120.037 35.8075 119.997 35.7599C119.957 35.7115 119.901 35.6713 119.828 35.6393C119.757 35.6063 119.673 35.5771 119.578 35.5515L119.273 35.4692C119.053 35.4098 118.878 35.3197 118.75 35.1991C118.623 35.0775 118.56 34.9161 118.56 34.715C118.56 34.5495 118.602 34.4046 118.688 34.2803C118.774 34.156 118.891 34.0595 119.039 33.9909C119.187 33.9215 119.355 33.8867 119.542 33.8867C119.732 33.8867 119.899 33.9215 120.041 33.9909C120.185 34.0595 120.298 34.155 120.38 34.2775C120.462 34.3991 120.504 34.539 120.507 34.6972H120.04Z" fill="white"/>
<path d="M0 30.7227H123.168" stroke="#D22027" stroke-width="0.5" stroke-miterlimit="10"/>
<path d="M0 40H123.168" stroke="#D22027" stroke-width="0.5" stroke-miterlimit="10"/>
</svg>
