<svg width="103" height="84" viewBox="0 0 103 84" fill="none" xmlns="http://www.w3.org/2000/svg">
<path fill-rule="evenodd" clip-rule="evenodd" d="M3.88608 24.6561C3.88608 12.6379 13.6111 2.9 25.6031 2.9H76.3968C88.3888 2.9 98.1138 12.6379 98.1138 24.6561C98.1138 36.6744 88.3888 46.4123 76.3968 46.4123C75.596 46.4123 74.9468 47.0615 74.9468 47.8623C74.9468 48.6631 75.596 49.3123 76.3968 49.3123C89.9951 49.3123 101.014 38.2714 101.014 24.6561C101.014 11.0409 89.9951 0 76.3968 0H25.6031C12.0049 0 0.986084 11.0409 0.986084 24.6561C0.986084 38.2714 12.0049 49.3123 25.6031 49.3123H42.4678C43.2686 49.3123 43.9178 48.6631 43.9178 47.8623C43.9178 47.0615 43.2686 46.4123 42.4678 46.4123H25.6031C13.6111 46.4123 3.88608 36.6744 3.88608 24.6561ZM54.7838 12.734C45.8757 12.734 38.577 20.0415 38.577 28.9706C38.577 34.6557 41.4704 39.6403 45.8706 42.5407C46.5392 42.9815 46.724 43.8808 46.2832 44.5494C45.8425 45.218 44.9432 45.4028 44.2746 44.962C39.0905 41.5449 35.677 35.6662 35.677 28.9706C35.677 18.4445 44.2695 9.83398 54.7838 9.83398C65.2982 9.83398 73.8907 18.4445 73.8907 28.9706C73.8907 36.2199 69.7969 42.6336 63.8025 45.9082C63.0997 46.2921 62.2188 46.0336 61.8348 45.3309C61.4509 44.6281 61.7094 43.7471 62.4122 43.3632C67.5168 40.5747 70.9907 35.1135 70.9907 28.9706C70.9907 20.0415 63.692 12.734 54.7838 12.734ZM44.8822 28.97C44.8822 23.4524 49.28 19.0494 54.7837 19.0494C60.2874 19.0494 64.6851 23.451 64.6851 28.97C64.6851 31.9468 63.3648 34.591 61.3871 36.3518C60.789 36.8843 60.7358 37.8009 61.2683 38.399C61.8008 38.9971 62.7174 39.0503 63.3155 38.5178C65.879 36.2355 67.5851 32.8166 67.5851 28.97C67.5851 21.854 61.8936 16.1494 54.7837 16.1494C47.6735 16.1494 41.9822 21.8557 41.9822 28.97C41.9822 32.1044 43.1198 34.9674 44.9845 37.121C45.5087 37.7264 46.4244 37.7923 47.0298 37.2681C47.6353 36.7439 47.7011 35.8282 47.1769 35.2228C45.7612 33.5877 44.8822 31.396 44.8822 28.97ZM51.2997 30.2291C51.2542 30.3316 51.2169 30.4215 51.1878 30.4946V69.3984C51.1878 70.1992 50.5387 70.8484 49.7378 70.8484C48.937 70.8484 48.2878 70.1992 48.2878 69.3984V64.5183C47.9811 64.4785 47.6846 64.3407 47.4492 64.1048L41.1438 57.7888C41.0786 57.7235 41.0198 57.6521 40.9681 57.5756L40.9609 57.5654C40.9515 57.5521 40.9335 57.5274 40.9073 57.4936C40.8546 57.4254 40.7706 57.3226 40.6581 57.2023C40.4283 56.9568 40.106 56.6669 39.7159 56.4436C39.3313 56.2234 38.9079 56.0826 38.4463 56.0826C37.9956 56.0827 37.4049 56.2164 36.67 56.7073C35.3933 57.56 35.1297 58.8099 35.2581 60.0953C35.3225 60.74 35.4861 61.3364 35.6392 61.7791C35.702 61.9609 35.7613 62.1117 35.808 62.2236L55.7763 80.9744C56.3601 81.5226 56.389 82.4403 55.8408 83.024C55.2926 83.6078 54.3749 83.6367 53.7912 83.0885L33.6113 64.1389C33.4863 64.0216 33.3831 63.883 33.3066 63.7297L34.6039 63.0819C33.3066 63.7297 33.3063 63.7291 33.306 63.7286L33.3054 63.7274L33.3041 63.7247L33.3007 63.7178L33.2912 63.6983C33.2838 63.6829 33.2741 63.6626 33.2624 63.6376C33.2391 63.5877 33.2079 63.5189 33.171 63.4331C33.0973 63.262 33.0002 63.0213 32.8983 62.7266C32.6965 62.1429 32.4659 61.3181 32.3725 60.3836C32.1853 58.5106 32.5521 55.9703 35.0593 54.2957C36.2163 53.5229 37.3597 53.1827 38.446 53.1826C39.5214 53.1825 40.4379 53.5153 41.1566 53.9268C41.8699 54.3351 42.4144 54.8349 42.7757 55.221C42.9587 55.4166 43.1013 55.5901 43.2012 55.7194C43.2315 55.7586 43.2581 55.7939 43.2809 55.8248L48.2878 60.8402V30.2334C48.2878 30.0778 48.3129 29.9233 48.362 29.7757L49.7378 30.2334C48.362 29.7757 48.3624 29.7743 48.3626 29.7739L48.3633 29.7718L48.3651 29.7664L48.3701 29.7516L48.3861 29.7059C48.3993 29.6686 48.4178 29.6177 48.4416 29.5552C48.489 29.4304 48.558 29.2579 48.6488 29.0532C48.8286 28.648 49.1027 28.0966 49.4765 27.5349C50.165 26.5003 51.4893 24.9932 53.5217 24.9932C54.9986 24.9932 56.5582 25.3584 57.7954 26.1847C59.0758 27.0398 60.0163 28.4087 60.0163 30.2334V58.0277C60.0163 58.8286 59.3671 59.4777 58.5663 59.4777C57.7654 59.4777 57.1163 58.8286 57.1163 58.0277V30.2334C57.1163 29.5308 56.796 29.0045 56.1848 28.5963C55.5305 28.1594 54.5678 27.8932 53.5217 27.8932C53.031 27.8932 52.4634 28.2811 51.8907 29.1416C51.634 29.5274 51.4352 29.9236 51.2997 30.2291ZM65.2271 50.5798L66.1339 51.7113C65.2271 50.5798 65.2276 50.5794 65.2281 50.579L65.2292 50.5781L65.2319 50.576L65.239 50.5704L65.2601 50.5538C65.2773 50.5404 65.3005 50.5225 65.3295 50.5005C65.3874 50.4566 65.4687 50.3963 65.5707 50.324C65.7741 50.1796 66.0631 49.9849 66.4173 49.7742C67.1144 49.3596 68.1167 48.8514 69.2497 48.5677C70.3806 48.2845 71.7598 48.1968 73.1004 48.7842C74.0292 49.1912 74.8327 49.875 75.4836 50.8462C75.6798 50.7404 75.8938 50.6356 76.1247 50.5365C77.4849 49.9525 79.4324 49.5693 81.7269 50.3362L77.1828 53.2392L77.182 53.2395C76.8705 53.3802 76.6112 53.535 76.4123 53.6703V53.7312V58.0273C76.4123 58.8281 75.7631 59.4773 74.9623 59.4773C74.1615 59.4773 73.5123 58.8281 73.5123 58.0273V53.2662C73.0092 52.1312 72.4221 51.6531 71.9365 51.4404C71.3852 51.1988 70.715 51.1903 69.9542 51.3808C69.1955 51.5708 68.4637 51.9312 67.8998 52.2667C67.6234 52.431 67.4001 52.5818 67.2488 52.6891C67.1735 52.7425 67.1168 52.7847 67.0811 52.8117C67.0633 52.8252 67.0509 52.8349 67.044 52.8402L67.0398 52.8434L67.0392 52.844L67.0382 52.8447L67.0381 52.8449C66.4132 53.3433 65.5025 53.2421 65.0024 52.6181C64.5016 51.9932 64.6022 51.0806 65.2271 50.5798ZM77.1828 53.2392L81.7275 50.3364C82.9189 50.7341 83.836 51.3789 84.4594 52.3004C85.064 53.1943 85.3019 54.2168 85.3923 55.2122C85.482 56.1998 85.4352 57.2863 85.3766 58.3633C85.3678 58.5247 85.3587 58.6867 85.3496 58.8494L85.3494 58.8523V58.8525V58.8527V58.8528V58.853C85.2958 59.8057 85.2409 60.7826 85.2409 61.8178V74.4513C85.2409 74.607 85.2158 74.7616 85.1667 74.9092L82.6436 82.4897C82.3907 83.2495 81.5697 83.6604 80.8099 83.4075C80.0501 83.1546 79.6391 82.3337 79.892 81.5738L82.3409 74.2164V61.8178C82.3409 60.6941 82.401 59.6273 82.4546 58.6766L82.4546 58.6763C82.4637 58.5161 82.4725 58.3591 82.4809 58.2057C82.5404 57.1114 82.5723 56.2239 82.5042 55.4745C82.4369 54.7329 82.2805 54.2552 82.0573 53.9253C81.853 53.6232 81.509 53.3207 80.8088 53.087L80.8081 53.0868C79.3206 52.5895 78.1156 52.8377 77.2688 53.2013C77.2397 53.2138 77.211 53.2264 77.1828 53.2392Z" fill="url(#paint0_linear_2707_3744)"/>
<defs>
<linearGradient id="paint0_linear_2707_3744" x1="18.4602" y1="24.6184" x2="29.798" y2="24.6184" gradientUnits="userSpaceOnUse">
<stop stop-color="#1A1C43"/>
<stop offset="1" stop-color="#D22027"/>
</linearGradient>
</defs>
</svg>
