<?xml version="1.0" encoding="utf-8"?>
<!-- Generator: Adobe Illustrator 24.3.0, SVG Export Plug-In . SVG Version: 6.00 Build 0)  -->
<svg version="1.1" id="Layer_1" xmlns="http://www.w3.org/2000/svg" xmlns:xlink="http://www.w3.org/1999/xlink" x="0px" y="0px"
	 viewBox="0 0 19 22" style="enable-background:new 0 0 19 22;" xml:space="preserve">
<style type="text/css">
	.st0{fill:#D22027;}
	.st1{fill:#1A1C43;}
</style>
<g>
	<g>
		<path class="st0" d="M17.1,15.1h-4.2c-0.1,0-0.2-0.1-0.2-0.2c0-0.1,0.1-0.2,0.2-0.2H17c0.1,0,0.2,0.1,0.2,0.2S17.2,15.1,17.1,15.1
			z"/>
	</g>
	<g>
		<path class="st0" d="M17.1,16.5h-4.2c-0.1,0-0.2-0.1-0.2-0.2c0-0.1,0.1-0.2,0.2-0.2H17c0.1,0,0.2,0.1,0.2,0.2
			C17.2,16.4,17.2,16.5,17.1,16.5z"/>
	</g>
	<g>
		<path class="st0" d="M17.1,17.9h-4.2c-0.1,0-0.2-0.1-0.2-0.2c0-0.1,0.1-0.2,0.2-0.2H17c0.1,0,0.2,0.1,0.2,0.2S17.2,17.9,17.1,17.9
			z"/>
	</g>
</g>
<path class="st1" d="M16.6,12.7V6.4L8.3,1.6L0,6.5v9.3l8.3,4.7l3.3-1.7c0.7,1,1.9,1.7,3.3,1.7c2.2,0,4.1-1.8,4.1-4.1
	C18.9,14.8,18,13.4,16.6,12.7z M8.3,2.4l7.2,4.2l-3.5,2L5.4,4.1L8.3,2.4z M8.3,10.7L1.2,6.6l3.5-2.1L11.3,9L8.3,10.7z M0.7,7.1
	L8,11.3v8.3l-7.3-4.1C0.7,15.5,0.7,7.1,0.7,7.1z M8.7,19.5v-8.4l2.9-1.6v2.8l0.7-0.4V9.2l3.5-2v5.3c-0.3-0.1-0.6-0.1-1-0.1
	c-2.2,0-4.1,1.8-4.1,4.1c0,0.7,0.2,1.3,0.5,1.8L8.7,19.5z M14.9,19.8c-1.9,0-3.4-1.5-3.4-3.4S13,13,14.9,13s3.4,1.5,3.4,3.4
	S16.7,19.8,14.9,19.8z"/>
</svg>
