<?xml version="1.0" encoding="utf-8"?>
<!-- Generator: Adobe Illustrator 24.3.0, SVG Export Plug-In . SVG Version: 6.00 Build 0)  -->
<svg version="1.1" id="Layer_1" xmlns="http://www.w3.org/2000/svg" xmlns:xlink="http://www.w3.org/1999/xlink" x="0px" y="0px"
	 viewBox="0 0 32 41" style="enable-background:new 0 0 32 41;" xml:space="preserve">
<style type="text/css">
	.st0{fill:none;stroke:#1A1C43;stroke-width:1.4;}
	.st1{fill-rule:evenodd;clip-rule:evenodd;fill:#1A1C43;}
	.st2{fill:#FFFFFF;}
	.st3{fill-rule:evenodd;clip-rule:evenodd;fill:#D22027;}
</style>
<path class="st0" d="M18.3,20h-4.7c-5.5,0-9.9,4.4-9.9,9.9v0c0,0.6,0.4,1,1,1h22.5c0.6,0,1-0.4,1-1v0C28.3,24.4,23.8,20,18.3,20z"/>
<path class="st1" d="M23.7,31.2c0,4-3.2,7.2-7.2,7.2s-7.2-3.2-7.2-7.2s3.2-7.2,7.2-7.2S23.7,27.2,23.7,31.2z M16.5,37.6
	c3.5,0,6.4-2.9,6.4-6.4s-2.9-6.4-6.4-6.4s-6.4,2.9-6.4,6.4S12.9,37.6,16.5,37.6z"/>
<path class="st2" d="M22.9,31.2c0,3.5-2.9,6.4-6.4,6.4s-6.4-2.9-6.4-6.4s2.9-6.4,6.4-6.4S22.9,27.6,22.9,31.2z"/>
<circle class="st0" cx="16.5" cy="10.5" r="7.1"/>
<path class="st3" d="M19.1,28.1c-0.1,0-0.6,0.6-1.1,1.3c-2.2,2.9-2.8,3.6-2.8,3.6c0,0-0.5-0.5-1-1.1c-1-1.2-1.2-1.3-1.5-1.2
	c-0.3,0.1-0.4,0.4-0.3,0.7c0.1,0.3,2.4,3,2.6,3.1c0.2,0.1,0.4,0.1,0.6-0.2c0.1-0.1,1-1.3,2-2.6c1-1.3,1.9-2.5,2-2.6
	c0.2-0.3,0.3-0.7,0.1-0.9c-0.1-0.1-0.2-0.1-0.2-0.1c0,0-0.1,0-0.2,0C19.2,28.1,19.1,28.1,19.1,28.1z"/>
</svg>
