<svg width="33" height="33" viewBox="0 0 33 33" fill="none" xmlns="http://www.w3.org/2000/svg">
<rect width="33" height="33" rx="16.5" fill="#1A1C43"/>
<path fill-rule="evenodd" clip-rule="evenodd" d="M7.67383 16.2949C7.67383 15.7426 8.12154 15.2949 8.67383 15.2949H23.6738C24.2261 15.2949 24.6738 15.7426 24.6738 16.2949C24.6738 16.8472 24.2261 17.2949 23.6738 17.2949H8.67383C8.12154 17.2949 7.67383 16.8472 7.67383 16.2949Z" fill="white"/>
<path fill-rule="evenodd" clip-rule="evenodd" d="M24.3767 15.5873C24.7672 15.9778 24.7673 16.611 24.3767 17.0015L18.377 23.0015C17.9865 23.3921 17.3534 23.3921 16.9628 23.0016C16.5723 22.611 16.5723 21.9779 16.9628 21.5873L22.9625 15.5873C23.353 15.1968 23.9862 15.1968 24.3767 15.5873Z" fill="white"/>
<path fill-rule="evenodd" clip-rule="evenodd" d="M16.9667 9.58879C17.3572 9.19827 17.9904 9.19827 18.3809 9.58879L24.3809 15.5888C24.7715 15.9793 24.7715 16.6125 24.3809 17.003C23.9904 17.3935 23.3572 17.3935 22.9667 17.003L16.9667 11.003C16.5762 10.6125 16.5762 9.97932 16.9667 9.58879Z" fill="white"/>
</svg>
