<svg width="94" height="94" viewBox="0 0 94 94" fill="none" xmlns="http://www.w3.org/2000/svg">
<path fill-rule="evenodd" clip-rule="evenodd" d="M45.7021 2.00319C47.5218 1.98404 47.8475 2.04149 48.652 2.44369C49.1692 2.69267 49.763 3.11402 49.9929 3.363C50.2227 3.59283 50.5483 4.1291 50.7016 4.51214C50.874 4.91434 51.0081 5.64213 51.0081 6.14009C51.0081 6.65721 50.8357 7.40415 50.6441 7.8255C50.4526 8.24685 49.9929 8.87888 49.6097 9.20447C49.2075 9.54921 48.5754 9.9131 48.1731 10.0089C47.79 10.1046 46.43 10.2387 45.1658 10.2961C43.9015 10.3536 41.8711 10.5643 40.6643 10.775C39.4575 10.9856 37.5995 11.407 36.546 11.7326C35.4924 12.039 33.7302 12.6902 32.6192 13.1498C31.5082 13.6287 29.9566 14.3756 29.1712 14.8161C28.3859 15.2566 27.1217 16.0227 26.3938 16.5015C25.6467 16.9995 24.5357 17.823 23.9036 18.3401C23.2715 18.8572 22.1605 19.8532 21.4326 20.5426C20.7238 21.2321 19.5171 22.5345 18.7509 23.4346C18.0038 24.3348 16.912 25.7904 16.3182 26.6905C15.7435 27.5907 14.9007 28.9697 14.4793 29.7549C14.0579 30.5402 13.3108 32.1873 12.8319 33.3939C12.3531 34.6005 11.7401 36.4199 11.4719 37.4159C11.2038 38.4118 10.859 40.0589 10.6866 41.0548C10.5142 42.0507 10.3418 44.1192 10.2652 45.6514C10.2077 47.2985 10.246 49.2711 10.3801 50.5352C10.5142 51.7035 10.7823 53.5038 10.993 54.5572C11.2038 55.6106 11.6443 57.296 11.97 58.2919C12.2956 59.2878 12.9277 60.9732 13.4066 62.0266C13.8663 63.08 14.7091 64.7271 15.2838 65.6655C15.8393 66.604 16.8545 68.117 17.5249 69.0172C18.1762 69.8982 19.4213 71.3538 20.2641 72.2539C21.1069 73.135 22.5244 74.4756 23.4247 75.2226C24.325 75.9695 25.7808 77.0803 26.6811 77.6549C27.5814 78.2486 29.2479 79.2062 30.4163 79.8C31.5656 80.3745 33.3471 81.1598 34.3431 81.5237C35.3392 81.8876 37.0632 82.4047 38.1741 82.6728C39.2851 82.9409 40.875 83.2665 41.7178 83.4198C42.6373 83.573 44.8018 83.6687 47.177 83.6496C50.3568 83.6496 51.5253 83.573 53.3067 83.2282C54.5135 82.9984 56.2757 82.5962 57.2335 82.3281C58.1721 82.0408 59.8577 81.4662 60.9687 81.0257C62.0797 80.5852 63.8803 79.7042 64.9913 79.0722C66.1023 78.4401 67.7305 77.4059 68.6116 76.7739C69.5119 76.1419 71.1784 74.7246 72.3277 73.6138C73.477 72.5029 74.952 70.9516 75.5841 70.1663C76.2162 69.3811 77.2506 67.9447 77.8635 67.0062C78.4765 66.0677 79.4534 64.344 80.0281 63.1757C80.5836 62.0075 81.4072 60.0348 81.8286 58.7707C82.25 57.5066 82.7672 55.6106 82.9779 54.5572C83.1886 53.5038 83.4568 51.7993 83.5526 50.765C83.6675 49.75 83.7633 48.371 83.7633 47.7198C83.7633 47.0495 83.8591 46.1876 83.9549 45.8046C84.0698 45.4024 84.4337 44.7703 84.7594 44.3873C85.1042 44.0043 85.7171 43.5254 86.1002 43.3339C86.5216 43.1232 87.2304 42.97 87.7859 42.97C88.3031 42.97 89.0693 43.1041 89.4524 43.2765C89.8546 43.4297 90.391 43.7553 90.6208 43.9851C90.8698 44.2149 91.2913 44.8087 91.5403 45.3258C91.9234 46.0536 92 46.5132 92 47.8156C92 48.6774 91.8276 50.631 91.6361 52.1632C91.4253 53.6953 91.0806 55.8021 90.8507 56.8555C90.6208 57.9088 90.1036 59.7666 89.7014 60.9732C89.3183 62.1798 88.5138 64.21 87.9583 65.474C87.3836 66.7381 86.3492 68.7108 85.6788 69.8599C84.9892 70.9899 83.7441 72.8477 82.9013 73.9777C82.0585 75.0885 80.4303 76.9846 79.2619 78.1912C78.1125 79.3786 76.2928 81.064 75.2393 81.9067C74.1857 82.7494 72.4235 84.0518 71.3125 84.7604C70.2015 85.4882 68.171 86.6374 66.811 87.3077C65.451 87.978 63.4589 88.8399 62.4054 89.2229C61.3518 89.606 59.4938 90.1805 58.287 90.5061C57.0802 90.8126 54.6667 91.2722 52.9236 91.5403C50.7016 91.8659 48.9393 92 46.9855 92C45.1658 92 43.2886 91.8659 41.5263 91.5978C40.0513 91.3871 38.1167 91.0424 37.2164 90.8509C36.3161 90.6402 35.0327 90.3146 34.3431 90.1039C33.6535 89.9124 32.2361 89.4336 31.1825 89.0505C30.129 88.6483 28.271 87.8439 27.0642 87.2311C25.8574 86.6182 24.1335 85.6606 23.2332 85.1052C22.3329 84.5497 20.7813 83.4772 19.7852 82.7303C18.7892 81.9833 16.7587 80.1639 15.2646 78.6891C13.7897 77.2144 11.9125 75.1076 11.0888 73.9968C10.2652 72.886 8.98176 70.9516 8.23471 69.6875C7.48767 68.4235 6.45329 66.4508 5.9361 65.2825C5.41891 64.1142 4.65271 62.1798 4.26961 60.9732C3.86735 59.7666 3.33101 57.7365 3.06284 56.4724C2.79466 55.2084 2.43072 53.0442 2.25832 51.6843C1.99015 49.75 1.95184 48.5051 2.04762 46.0344C2.10508 44.2915 2.29663 41.9741 2.46903 40.8633C2.62227 39.7524 2.92875 38.1245 3.1203 37.2243C3.33101 36.3242 3.65664 35.041 3.8482 34.3515C4.0589 33.662 4.53778 32.2447 4.94004 31.1913C5.32314 30.138 6.14681 28.2802 6.74062 27.0736C7.35358 25.867 8.31134 24.1433 8.86683 23.2431C9.42233 22.343 10.495 20.7916 11.2421 19.7957C11.9891 18.7998 13.8089 16.7696 15.2838 15.2949C16.7587 13.8202 18.7892 12.0007 19.7852 11.2538C20.7813 10.5068 22.3329 9.43429 23.2332 8.87888C24.1335 8.32346 25.8574 7.36584 27.0642 6.75297C28.271 6.15925 30.2056 5.31654 31.3741 4.89519C32.5234 4.45469 34.075 3.93757 34.822 3.7269C35.5499 3.51622 36.8524 3.20979 37.6953 3.01826C38.5381 2.84589 40.2237 2.53945 41.4305 2.36708C42.6373 2.17556 44.5528 2.02234 45.6829 2.00319H45.7021ZM62.9992 5.16332C63.4206 5.20163 64.1485 5.45061 64.6273 5.68044C65.1254 5.94857 65.7383 6.46568 66.064 6.94449C66.5429 7.61482 66.6578 7.99787 66.6961 9.03209C66.7536 10.1046 66.6769 10.4685 66.313 11.1772C66.0448 11.656 65.4702 12.3071 65.0296 12.6136C64.3783 13.0732 63.9569 13.2073 63.0375 13.2648C62.2904 13.3031 61.6008 13.2265 61.1794 13.0541C60.8155 12.9009 60.2217 12.5178 59.8577 12.2114C59.4938 11.9049 59.0341 11.3112 58.8617 10.8899C58.6701 10.4685 58.4977 9.74073 58.4977 9.26192C58.4977 8.74481 58.6893 8.01702 58.9766 7.40415C59.2831 6.75297 59.7236 6.2167 60.1642 5.91026C60.5665 5.64213 61.1986 5.33569 61.5625 5.23993C61.9265 5.14417 62.5778 5.10587 62.9992 5.16332ZM76.4844 14.05C76.8675 14.1266 77.4421 14.3181 77.7486 14.4714C78.0551 14.6437 78.5531 15.0268 78.8213 15.3332C79.1086 15.6205 79.4917 16.1759 79.6641 16.5398C79.9131 17.0378 79.9706 17.5549 79.9323 18.4933C79.8748 19.5659 79.7599 19.8723 79.2619 20.5043C78.9362 20.9065 78.3807 21.4237 78.0168 21.6726C77.6528 21.9025 76.9824 22.1514 76.5035 22.2089C76.0246 22.2664 75.2967 22.2281 74.8753 22.1131C74.4539 21.9982 73.7643 21.6152 73.3621 21.2704C72.9598 20.9257 72.4618 20.3511 72.2894 19.9872C72.0978 19.6233 71.8871 19.0105 71.8105 18.6466C71.7339 18.2827 71.7722 17.5932 71.8871 17.1144C72.0021 16.6356 72.3852 15.9078 72.73 15.5056C73.0556 15.1034 73.6111 14.6246 73.9176 14.4714C74.2241 14.299 74.7796 14.1266 75.1435 14.05C75.4883 13.9925 76.1013 13.9925 76.4844 14.05ZM47.2345 18.4933C48.2689 18.5317 48.652 18.6466 49.3224 19.1254C49.7821 19.451 50.3376 20.083 51.0272 21.4237V44.4065L58.1529 47.9496C63.1907 50.4586 65.5276 51.7226 66.1214 52.2589C66.7536 52.8335 67.0217 53.274 67.2516 54.0784C67.4048 54.6721 67.4815 55.419 67.424 55.8021C67.3474 56.166 67.0409 56.8746 66.7344 57.3917C66.2938 58.0812 65.9107 58.4068 65.0488 58.7899C64.1676 59.2112 63.7654 59.2878 62.9992 59.2112C62.2521 59.1154 60.1834 58.177 53.5174 54.8445C48.8244 52.4887 44.706 50.3628 44.3612 50.0755C43.9973 49.8074 43.5567 49.2328 43.346 48.8115C43.0012 48.0837 42.9821 47.5283 43.0779 20.9832L43.6525 20.1596C43.9781 19.7191 44.6103 19.1445 45.0891 18.8955C45.7979 18.5125 46.1618 18.4359 47.2345 18.4933ZM84.7402 27.2651C85.449 27.2651 86.0811 27.4183 86.6557 27.7056C87.1154 27.9354 87.7476 28.4717 88.0349 28.8931C88.3414 29.3144 88.667 30.0997 88.7819 30.6168C88.9352 31.2871 88.9352 31.8042 88.8011 32.3405C88.6862 32.7618 88.3414 33.4513 88.0349 33.8727C87.7476 34.294 87.1538 34.8111 86.7323 35.0027C86.3301 35.2133 85.6022 35.4049 85.1233 35.4623C84.6444 35.5198 83.9165 35.4432 83.4951 35.2899C83.0737 35.1559 82.4033 34.7345 82.001 34.3706C81.5988 33.9876 81.1391 33.3364 80.9667 32.9151C80.7943 32.4362 80.6985 31.7085 80.756 30.9615C80.7943 30.0422 80.9283 29.6209 81.3881 28.9697C81.7137 28.5292 82.3458 27.9546 82.8247 27.7056C83.4185 27.3992 83.9932 27.2651 84.7402 27.2651Z" fill="url(#paint0_linear_2705_3628)" stroke="white" stroke-width="3"/>
<defs>
<linearGradient id="paint0_linear_2705_3628" x1="2" y1="47" x2="92" y2="47" gradientUnits="userSpaceOnUse">
<stop stop-color="#1A1C43"/>
<stop offset="1" stop-color="#D22027"/>
</linearGradient>
</defs>
</svg>
