<?xml version="1.0" encoding="utf-8"?>
<!-- Generator: Adobe Illustrator 24.3.0, SVG Export Plug-In . SVG Version: 6.00 Build 0)  -->
<svg version="1.1" id="Layer_1" xmlns="http://www.w3.org/2000/svg" xmlns:xlink="http://www.w3.org/1999/xlink" x="0px" y="0px"
	 viewBox="0 0 19 22" style="enable-background:new 0 0 19 22;" xml:space="preserve">
<style type="text/css">
	.st0{fill-rule:evenodd;clip-rule:evenodd;fill:#FFFFFF;}
	.st1{fill:#F1F1F1;}
	.st2{fill:#D22027;}
</style>
<g>
	<path class="st0" d="M4.6,2.1C3.9,2.3,3.3,2.8,3,3.4s-0.3,0-0.3,8.6s0,7.9,0.3,8.6c0.3,0.5,0.6,0.9,1.2,1.2C4.8,22,4.4,22,10.6,22
		c4.9,0,5.6,0,5.9-0.1c1-0.2,1.8-1,2-1.9c0.1-0.3,0.1-0.6,0.1-6.4V7.5l-0.1-0.1c-0.2-0.2-5-5.3-5.1-5.3C13.3,2,11.9,2,9,2
		C5.1,2,4.8,2,4.6,2.1z M12.7,4.6c0,1.8,0,2,0.2,2.4c0.2,0.5,0.6,0.8,1.2,1l0.3,0.1H16h1.6v5.7c0,3.7,0,5.7,0,5.9
		c-0.1,0.6-0.6,1.1-1.2,1.3c-0.2,0-0.9,0-5.8,0c-5.4,0-5.6,0-5.8-0.1c-0.5-0.2-0.9-0.6-1.1-1.1c-0.1-0.2-0.1-0.4-0.1-7.9
		s0-7.6,0.1-7.9c0.2-0.4,0.6-0.8,1.1-1c0.2-0.1,0.4-0.1,4-0.1h3.8L12.7,4.6z M15.5,5.6l1.4,1.5h-1.2c-1.2,0-1.2,0-1.4-0.1
		c-0.3-0.1-0.5-0.3-0.6-0.5S13.6,6.3,13.6,5V3.7l0.2,0.2C14,4.1,14.8,4.8,15.5,5.6z"/>
	<circle class="st1" cx="5.2" cy="4.5" r="4.5"/>
	<g>
		<path class="st2" d="M7.7,4.9h-5c-0.2,0-0.4-0.2-0.4-0.4s0.2-0.4,0.4-0.4h5c0.2,0,0.4,0.2,0.4,0.4S7.9,4.9,7.7,4.9z"/>
	</g>
	<g>
		<g>
			<path class="st2" d="M14.7,10.2H6.5c-0.2,0-0.4-0.2-0.4-0.4s0.2-0.4,0.4-0.4h8.1c0.2,0,0.4,0.2,0.4,0.4S14.9,10.2,14.7,10.2z"/>
		</g>
		<g>
			<path class="st2" d="M14.7,12.9H6.5c-0.2,0-0.4-0.2-0.4-0.4s0.2-0.4,0.4-0.4h8.1c0.2,0,0.4,0.2,0.4,0.4S14.9,12.9,14.7,12.9z"/>
		</g>
		<g>
			<path class="st2" d="M14.7,15.6H6.5c-0.2,0-0.4-0.2-0.4-0.4s0.2-0.4,0.4-0.4h8.1c0.2,0,0.4,0.2,0.4,0.4S14.9,15.6,14.7,15.6z"/>
		</g>
	</g>
	<g>
		<path class="st2" d="M5.2,7.4C5,7.4,4.8,7.2,4.8,7V2c0-0.2,0.2-0.4,0.4-0.4S5.6,1.8,5.6,2v5C5.6,7.2,5.4,7.4,5.2,7.4z"/>
	</g>
</g>
</svg>
