<?xml version="1.0" encoding="utf-8"?>
<!-- Generator: Adobe Illustrator 24.3.0, SVG Export Plug-In . SVG Version: 6.00 Build 0)  -->
<svg version="1.1" id="Layer_1" xmlns="http://www.w3.org/2000/svg" xmlns:xlink="http://www.w3.org/1999/xlink" x="0px" y="0px"
	 viewBox="0 0 19 22" style="enable-background:new 0 0 19 22;" xml:space="preserve">
<style type="text/css">
	.st0{fill-rule:evenodd;clip-rule:evenodd;fill:#1A1C43;}
	.st1{fill:#F1F1F1;}
	.st2{fill:#D22027;}
</style>
<g>
	<path class="st0" d="M4.4,2.1C3.8,2.3,3.1,2.8,2.8,3.4s-0.3,0-0.3,8.6s0,7.9,0.3,8.6c0.3,0.5,0.6,0.9,1.2,1.2
		C4.7,22,4.2,22,10.5,22c4.9,0,5.6,0,5.9-0.1c1-0.2,1.8-1,2-1.9c0.1-0.3,0.1-0.6,0.1-6.4V7.5l-0.1-0.1c-0.2-0.2-5-5.3-5.1-5.3
		C13.1,2,11.8,2,8.9,2C4.9,2,4.7,2,4.4,2.1z M12.5,4.6c0,1.8,0,2,0.2,2.4c0.2,0.5,0.6,0.8,1.2,1l0.3,0.1h1.6h1.6v5.7
		c0,3.7,0,5.7,0,5.9c-0.1,0.6-0.6,1.1-1.2,1.3c-0.2,0-0.9,0-5.8,0c-5.4,0-5.6,0-5.8-0.1c-0.5-0.2-0.9-0.6-1.1-1.1
		c-0.1-0.2-0.1-0.4-0.1-7.9s0-7.6,0.1-7.9c0.2-0.4,0.6-0.8,1.1-1c0.2-0.1,0.4-0.1,4-0.1h3.8L12.5,4.6z M15.4,5.6l1.4,1.5h-1.2
		c-1.2,0-1.2,0-1.4-0.1c-0.3-0.1-0.5-0.3-0.6-0.5S13.4,6.3,13.4,5V3.7l0.2,0.2C13.9,4.1,14.6,4.8,15.4,5.6z"/>
	<circle class="st1" cx="5" cy="4.5" r="4.5"/>
	<g>
		<path class="st2" d="M7.6,4.9h-5c-0.2,0-0.4-0.2-0.4-0.4s0.2-0.4,0.4-0.4h5C7.8,4.1,8,4.3,8,4.5S7.8,4.9,7.6,4.9z"/>
	</g>
	<g>
		<g>
			<path class="st2" d="M14.5,10.2H6.4C6.2,10.2,6,10,6,9.8s0.2-0.4,0.4-0.4h8.1c0.2,0,0.4,0.2,0.4,0.4S14.7,10.2,14.5,10.2z"/>
		</g>
		<g>
			<path class="st2" d="M14.5,12.9H6.4c-0.2,0-0.4-0.2-0.4-0.4s0.2-0.4,0.4-0.4h8.1c0.2,0,0.4,0.2,0.4,0.4S14.7,12.9,14.5,12.9z"/>
		</g>
		<g>
			<path class="st2" d="M14.5,15.6H6.4c-0.2,0-0.4-0.2-0.4-0.4s0.2-0.4,0.4-0.4h8.1c0.2,0,0.4,0.2,0.4,0.4S14.7,15.6,14.5,15.6z"/>
		</g>
	</g>
	<g>
		<path class="st2" d="M5.1,7.4C4.8,7.4,4.7,7.2,4.7,7V2c0-0.2,0.2-0.4,0.4-0.4S5.5,1.8,5.5,2v5C5.5,7.2,5.3,7.4,5.1,7.4z"/>
	</g>
</g>
</svg>
