<svg width="16" height="16" viewBox="0 0 16 16" fill="none" xmlns="http://www.w3.org/2000/svg">
<path fill-rule="evenodd" clip-rule="evenodd" d="M15.1916 15.1914C14.7471 15.636 14.0263 15.636 13.5818 15.1914L0.805248 2.41486C0.360701 1.97032 0.360702 1.24957 0.805248 0.80502C1.24979 0.360473 1.97055 0.360473 2.41509 0.80502L15.1916 13.5816C15.6362 14.0261 15.6362 14.7469 15.1916 15.1914Z" fill="#1A1C43"/>
<path fill-rule="evenodd" clip-rule="evenodd" d="M15.1912 0.808847C15.6357 1.25339 15.6357 1.97415 15.1912 2.41869L2.41462 15.1952C1.97007 15.6398 1.24932 15.6398 0.804776 15.1952C0.360229 14.7507 0.360229 14.0299 0.804776 13.5854L13.5813 0.808847C14.0259 0.3643 14.7466 0.3643 15.1912 0.808847Z" fill="#1A1C43"/>
</svg>
