<?xml version="1.0" encoding="utf-8"?>
<!-- Generator: Adobe Illustrator 24.3.0, SVG Export Plug-In . SVG Version: 6.00 Build 0)  -->
<svg version="1.1" id="Layer_1" xmlns="http://www.w3.org/2000/svg" xmlns:xlink="http://www.w3.org/1999/xlink" x="0px" y="0px"
	 viewBox="0 0 19 22" style="enable-background:new 0 0 19 22;" xml:space="preserve">
<style type="text/css">
	.st0{fill-rule:evenodd;clip-rule:evenodd;fill:#1A1C43;}
	.st1{fill:#D22027;}
</style>
<g>
	<path class="st0" d="M3.4,1.1C2.7,1.3,2.2,1.8,1.8,2.4c-0.3,0.6-0.3,0-0.3,8.6c0,8.6,0,7.9,0.3,8.6c0.3,0.5,0.6,0.9,1.2,1.2
		C3.6,21,3.2,21,9.5,21c4.9,0,5.6,0,5.9-0.1c1-0.2,1.8-1,2-1.9c0.1-0.3,0.1-0.6,0.1-6.4V6.5l-0.1-0.1c-0.2-0.2-5-5.3-5.1-5.3
		c-0.1,0-1.5,0-4.3,0C3.9,1,3.6,1,3.4,1.1z M11.6,3.6c0,1.8,0,2,0.2,2.4c0.2,0.5,0.6,0.8,1.2,1l0.3,0.1l1.6,0l1.6,0v5.7
		c0,3.7,0,5.7,0,5.9c-0.1,0.6-0.6,1.1-1.2,1.3C15.1,20,14.4,20,9.5,20c-5.4,0-5.6,0-5.8-0.1c-0.5-0.2-0.9-0.6-1.1-1.1
		c-0.1-0.2-0.1-0.4-0.1-7.9c0-7.5,0-7.6,0.1-7.9C2.8,2.6,3.2,2.2,3.7,2c0.2-0.1,0.4-0.1,4-0.1l3.8,0L11.6,3.6z M14.4,4.6l1.4,1.5
		l-1.2,0c-1.2,0-1.2,0-1.4-0.1c-0.3-0.1-0.5-0.3-0.6-0.5c-0.1-0.2-0.1-0.2-0.1-1.5l0-1.3l0.2,0.2C12.9,3.1,13.6,3.8,14.4,4.6z"/>
	<path class="st1" d="M5.4,15c-0.4-0.1-0.5-0.7-0.1-0.9C5.4,14,5.9,14,9.5,14c4.5,0,4.2,0,4.4,0.2c0.1,0.2,0.1,0.5-0.1,0.6
		C13.7,15,13.5,15,9.6,15C6.8,15,5.5,15,5.4,15z"/>
	<path class="st1" d="M5.4,12.1C5,12,4.9,11.4,5.3,11.2c0.1-0.1,0.6-0.1,4.2-0.1c4.5,0,4.2,0,4.4,0.2c0.1,0.2,0.1,0.5-0.1,0.6
		c-0.1,0.1-0.3,0.1-4.2,0.1C6.8,12.2,5.5,12.2,5.4,12.1z"/>
	<path class="st1" d="M5.4,9.3C5,9.2,4.9,8.6,5.3,8.4c0.1-0.1,0.6-0.1,4.2-0.1c4.5,0,4.2,0,4.4,0.2C14,8.8,14,9.1,13.8,9.2
		c-0.1,0.1-0.3,0.1-4.2,0.1C6.8,9.3,5.5,9.3,5.4,9.3z"/>
</g>
</svg>
