<?xml version="1.0" encoding="utf-8"?>
<!-- Generator: Adobe Illustrator 24.3.0, SVG Export Plug-In . SVG Version: 6.00 Build 0)  -->
<svg version="1.1" id="Layer_1" xmlns="http://www.w3.org/2000/svg" xmlns:xlink="http://www.w3.org/1999/xlink" x="0px" y="0px"
	 viewBox="0 0 19 22" style="enable-background:new 0 0 19 22;" xml:space="preserve">
<style type="text/css">
	.st0{fill:#FFFFFF;}
	.st1{fill:#D22027;}
</style>
<g>
	<g>
		<path class="st0" d="M7.3,12.8H1.8C0.8,12.8,0,12,0,11V3.4c0-0.9,0.7-1.8,1.8-1.8h5.6c0.9,0,1.8,0.7,1.8,1.8V11
			C9.1,11.9,8.3,12.8,7.3,12.8z M1.8,2.3c-0.5,0-1,0.4-1,1V11c0,0.5,0.4,1,1,1h5.6c0.5,0,1-0.4,1-1V3.4c0-0.5-0.4-1-1-1
			C7.3,2.3,1.8,2.3,1.8,2.3z"/>
	</g>
	<g>
		<path class="st1" d="M17.2,20.4h-5.6c-0.9,0-1.8-0.7-1.8-1.8v-8.2c0-0.9,0.7-1.8,1.8-1.8h5.6c0.9,0,1.8,0.7,1.8,1.8v8.2
			C19,19.7,18.2,20.4,17.2,20.4z M11.7,9.5c-0.5,0-1,0.5-1,1.1v8.2c0,0.5,0.4,1,1,1h5.6c0.5,0,1-0.4,1-1v-8.3c0-0.5-0.4-1-1-1
			L11.7,9.5z"/>
	</g>
	<g>
		<path class="st0" d="M17.2,8.2h-5.6c-0.9,0-1.8-0.7-1.8-1.8v-3c0-0.9,0.7-1.8,1.8-1.8h5.6c0.9,0,1.8,0.7,1.8,1.8v3.2
			C19,7.4,18.2,8.2,17.2,8.2z M11.7,2.3c-0.5,0-1,0.4-1,1v3.2c0,0.5,0.4,1,1,1h5.6c0.5,0,1-0.4,1-1V3.4c0-0.5-0.4-1-1-1
			C17.2,2.3,11.7,2.3,11.7,2.3z"/>
	</g>
	<g>
		<path class="st0" d="M7.3,20.4H1.8c-0.9,0-1.8-0.7-1.8-1.8v-3.5c0-0.9,0.7-1.8,1.8-1.8h5.6c0.9,0,1.8,0.7,1.8,1.8v3.5
			C9.1,19.7,8.3,20.4,7.3,20.4z M1.8,14.1c-0.5,0-1,0.4-1,1v3.5c0,0.5,0.4,1,1,1h5.6c0.5,0,1-0.4,1-1v-3.5c0-0.5-0.4-1-1-1H1.8z"/>
	</g>
</g>
</svg>
