<svg width="48" height="48" viewBox="0 0 48 48" fill="none" xmlns="http://www.w3.org/2000/svg">
<path d="M48 24C48 30.6274 45.3137 36.6274 40.9706 40.9706C36.6274 45.3137 30.6274 48 24 48C17.3726 48 11.3726 45.3137 7.02944 40.9706C2.68629 36.6274 0 30.6274 0 24C0 17.3726 2.68629 11.3726 7.02944 7.02944C11.3726 2.68629 17.3726 0 24 0C30.6274 0 36.6274 2.68629 40.9706 7.02944C45.3137 11.3726 48 17.3726 48 24Z" fill="#F1F1F1"/>
<path d="M47.5 24C47.5 30.4895 44.8702 36.3638 40.617 40.617C36.3638 44.8702 30.4895 47.5 24 47.5C17.5105 47.5 11.6362 44.8702 7.38299 40.617C3.12978 36.3638 0.5 30.4895 0.5 24C0.5 17.5105 3.12978 11.6362 7.38299 7.38299C11.6362 3.12978 17.5105 0.5 24 0.5C30.4895 0.5 36.3638 3.12978 40.617 7.38299C44.8702 11.6362 47.5 17.5105 47.5 24Z" stroke="black" stroke-opacity="0.3"/>
</svg>
