<svg width="23" height="22" viewBox="0 0 23 22" fill="none" xmlns="http://www.w3.org/2000/svg">
<path fill-rule="evenodd" clip-rule="evenodd" d="M16.9192 0.203574C16.7212 0.287806 13.0648 3.85896 8.79406 8.13954C1.74394 15.2061 1.01778 15.9886 0.905813 16.6409C0.837949 17.036 0.582874 18.1675 0.338959 19.1553C-0.117728 21.005 -0.113768 21.6438 0.35588 21.8234C0.504749 21.8805 1.86221 21.6422 3.3725 21.2938L6.11856 20.6605L13.7357 13.083C17.9251 8.91558 21.4692 5.2875 21.6112 5.02079C22.1458 4.01701 21.896 2.97174 20.8425 1.8038C19.3889 0.192438 18.1424 -0.316008 16.9192 0.203574ZM19.2988 2.58111C19.8341 3.1086 20.2494 3.67936 20.2494 3.88734C20.2494 4.11058 19.6789 4.82269 18.8095 5.68513L17.3696 7.11348L16.019 5.77493L14.6685 4.43655L16.0597 3.04053C17.7721 1.32194 17.9894 1.29105 19.2988 2.58111ZM14.9409 7.0341L16.1932 8.29327L10.7418 13.7344L5.29033 19.1756L3.65368 19.5739C2.75344 19.7928 1.97994 19.9353 1.93475 19.8902C1.88957 19.8449 2.02746 19.0551 2.24131 18.1348L2.62995 16.4613L7.97339 11.1182C10.9122 8.17941 13.4004 5.77511 13.5028 5.77511C13.605 5.77511 14.2522 6.34174 14.9409 7.0341Z" fill="#1A1C43"/>
<path d="M8.80078 20.9082H22.0008" stroke="#D22027" stroke-width="1.4" stroke-linecap="round"/>
</svg>
