<svg width="30" height="30" viewBox="0 0 30 30" fill="none" xmlns="http://www.w3.org/2000/svg">
<g clip-path="url(#clip0_1553_4801)">
<path fill-rule="evenodd" clip-rule="evenodd" d="M8.33121 0.776376C7.95 0.900653 7.58648 1.13626 7.33881 1.41962C7.21476 1.56147 6.31447 3.06229 5.33812 4.75466L3.56302 7.83177L2.78929 7.8521C2.08347 7.87067 1.98644 7.88679 1.68269 8.03591C1.30552 8.22112 1.03031 8.50501 0.849958 8.89483C0.74115 9.12991 0.724275 9.29146 0.707341 10.2588C0.692282 11.1223 0.707575 11.4229 0.779294 11.6695C0.96486 12.3078 1.48963 12.7577 2.20142 12.8888C2.38927 12.9233 2.54988 12.9583 2.55838 12.9665C2.56687 12.9747 2.53388 13.0769 2.48513 13.1936C2.36121 13.4902 2.36191 15.6138 2.48607 15.9584C2.53248 16.0873 2.57092 16.1965 2.57138 16.2011C2.57185 16.2056 2.27566 16.22 1.91308 16.2331C1.34338 16.2536 1.21412 16.2776 0.960935 16.41C0.613064 16.5918 0.350798 16.857 0.161599 17.2181C0.0328097 17.4639 0.0221457 17.5584 0.0043332 18.6087C-0.0176395 19.9024 0.0348019 20.1884 0.375876 20.6351C0.5274 20.8335 0.692341 20.9597 0.979275 21.0966L1.37414 21.285L1.2658 21.6059C1.17193 21.884 1.15998 22.0798 1.17638 23.0734C1.19379 24.1262 1.20597 24.2401 1.32568 24.4639L1.45605 24.7077L1.28748 24.7665C1.03265 24.8553 0.648513 25.2315 0.472966 25.5641C0.317341 25.859 0.316404 25.8682 0.316404 27.1205C0.316404 28.281 0.326189 28.4015 0.440798 28.6491C0.603571 29.0011 0.934978 29.3267 1.30652 29.4997L1.60547 29.6388H8.95898H16.3125L16.6055 29.5018C16.9035 29.3623 17.1802 29.1342 17.3494 28.8883L17.4434 28.7517L17.8632 28.936C19.7466 29.7626 22.0795 29.873 24.0193 29.2273C26.2019 28.5009 28.0499 26.9005 29.057 24.8646C29.4568 24.0566 29.6392 23.5352 29.8259 22.6674C30.0168 21.78 30.015 20.1579 29.8221 19.2707C29.4961 17.7709 28.7722 16.3088 27.8558 15.2992C27.5718 14.9863 27.4942 14.933 27.3232 14.933C27.0758 14.933 26.8887 15.1061 26.8887 15.3349C26.8887 15.456 27.0006 15.6372 27.2929 15.9888C30.5168 19.8686 29.2978 25.6946 24.7868 27.9663C24.1929 28.2654 23.2726 28.5633 22.6113 28.6704C21.8944 28.7866 20.6783 28.7862 20.0039 28.6695C16.2833 28.0256 13.53 24.7628 13.53 20.9974C13.53 17.4367 15.9634 14.3137 19.4215 13.4365C21.4178 12.9301 23.5767 13.2519 25.3398 14.3186C25.632 14.4953 25.9298 14.64 26.0017 14.64C26.0735 14.64 26.197 14.5753 26.2761 14.4962C26.4274 14.3449 26.4574 14.1751 26.3638 14.0001C26.2245 13.7397 24.8917 13.0337 23.9883 12.7417C22.6093 12.296 20.9831 12.2039 19.6029 12.4932C19.2377 12.5697 19.2117 12.5678 19.1125 12.4582C18.9384 12.2657 18.5671 12.1092 18.2064 12.0765C18.0187 12.0595 17.8656 12.0295 17.8661 12.0098C17.8666 11.9901 17.905 11.8685 17.9514 11.7396C18.0732 11.4015 18.0746 9.44257 17.9534 9.03423C17.8423 8.66011 17.4754 8.23829 17.0814 8.03181C16.79 7.87905 16.7471 7.87384 15.6094 7.85292L14.4375 7.83136L12.6504 4.72349C10.7222 1.37046 10.5997 1.19526 9.97248 0.894559C9.69375 0.760907 9.53818 0.728446 9.10547 0.713798C8.77031 0.70243 8.48812 0.725282 8.33121 0.776376ZM8.37761 1.70942C8.23511 1.78231 8.04591 1.93319 7.9572 2.0447C7.77908 2.26858 4.12465 8.58007 3.99873 8.8813C3.95537 8.98501 3.91992 9.26843 3.91992 9.51118C3.91992 10.0279 3.81867 10.1869 3.48955 10.1869C3.14361 10.1869 3.07031 10.0364 3.07031 9.32556V8.71114L2.60156 8.73124C2.23183 8.74712 2.09408 8.77893 1.94959 8.882C1.62176 9.11585 1.57617 9.30036 1.57617 10.3928C1.57617 11.2783 1.58795 11.393 1.69886 11.5904C1.94666 12.0313 1.95375 12.0326 4.0957 12.0326H6L6.01775 11.8506L6.03545 11.6686L5.40252 11.6383C4.69365 11.6042 4.36541 11.5004 4.26416 11.2783C4.1748 11.0821 4.24142 10.8538 4.42265 10.7351C4.55074 10.6512 4.61373 10.6469 4.86562 10.705C5.02717 10.7423 5.48396 10.7728 5.88082 10.7728C6.50373 10.7728 6.62115 10.7881 6.74056 10.8848L6.8789 10.9968L6.9082 14.6201C6.93076 17.4121 6.95472 18.2736 7.0125 18.3748C7.18183 18.6711 7.31021 18.6895 9.07722 18.6709L10.7147 18.6537L10.9062 18.4621L11.0977 18.2706L11.1136 14.6559C11.1294 11.0937 11.1313 11.0394 11.2507 10.9123C11.3628 10.793 11.436 10.7818 12.2309 10.7623C12.9711 10.7441 13.1222 10.7239 13.3242 10.6159C13.9314 10.2912 14.2494 9.57153 14.0445 8.98571C13.9219 8.63503 10.2055 2.21995 9.99257 1.99126C9.59642 1.56581 8.89699 1.44376 8.37761 1.70942ZM14.9461 8.9669C15.0231 9.29989 14.9693 9.79905 14.8106 10.2244C14.7148 10.4816 14.5856 10.6647 14.2963 10.9539C13.7947 11.4556 13.4459 11.5968 12.6064 11.6378L12.0059 11.6671V11.8671V12.067L14.2764 12.0498C16.4246 12.0335 16.5575 12.0263 16.7453 11.9154C17.1126 11.6985 17.1621 11.5176 17.162 10.3929C17.1619 9.29462 17.1174 9.11187 16.7919 8.87269C16.6456 8.76528 16.5268 8.74917 15.7571 8.73253L14.8876 8.71378L14.9461 8.9669ZM3.64447 13.0556C3.29736 13.2672 3.26625 13.4051 3.28652 14.6393C3.30439 15.7253 3.3072 15.7468 3.45117 15.9008C3.73142 16.2004 3.83379 16.222 4.97168 16.222H6.02929V14.5814V12.9408L4.93066 12.941C3.94441 12.9412 3.81287 12.9529 3.64447 13.0556ZM12.0059 14.5814V16.222L13.0459 16.2184L14.0859 16.2148L14.3789 15.8054C14.7797 15.2451 15.7923 14.2768 16.4388 13.8355C16.7329 13.6347 17.2184 13.3513 17.5177 13.2056L18.0618 12.9408H15.0338H12.0059V14.5814ZM20.2969 15.0846C17.8706 15.5117 15.9493 17.379 15.4498 19.7955C15.2955 20.5422 15.3278 21.8206 15.5188 22.5209C16.3586 25.6005 19.4553 27.5087 22.5527 26.8551C24.7287 26.396 26.4433 24.785 27.1035 22.5795C27.2481 22.0963 27.2616 21.9663 27.264 21.0267C27.2672 19.7917 27.1736 19.36 26.6858 18.3607C25.5158 15.9639 22.9055 14.6254 20.2969 15.0846ZM20.2676 15.984C18.3296 16.3937 16.7992 17.8932 16.3351 19.8372C16.2307 20.2743 16.2161 20.4779 16.2394 21.1732C16.2633 21.8889 16.2901 22.0645 16.4494 22.5502C16.8914 23.8978 17.9056 25.0415 19.1813 25.6308C19.937 25.98 20.42 26.0817 21.3223 26.0817C21.9401 26.0817 22.212 26.055 22.5643 25.9597C24.5031 25.4354 25.939 23.9211 26.3412 21.9764C26.4836 21.2878 26.426 20.1566 26.2153 19.5033C25.9313 18.6226 25.534 17.9661 24.9176 17.3588C23.6866 16.1458 21.942 15.6301 20.2676 15.984ZM1.34595 17.2036C0.937321 17.412 0.904509 17.5158 0.883825 18.6656C0.863259 19.8101 0.887927 19.9287 1.20457 20.2067L1.40449 20.3822H7.02633H12.6482L12.6736 20.2504C12.6875 20.1778 12.7295 19.8973 12.7669 19.6269C12.8508 19.0187 13.0625 18.2745 13.3276 17.6552C13.4385 17.396 13.5293 17.1653 13.5293 17.1425C13.5293 17.1196 13.1894 17.1009 12.7741 17.1009H12.0188L11.995 17.7308C11.9607 18.6372 11.7314 19.0683 11.1055 19.403C10.8736 19.5271 10.7889 19.5333 9.11566 19.5505C7.1547 19.5706 7.00142 19.5482 6.57006 19.1789C6.43945 19.0671 6.26437 18.8387 6.18093 18.6713C6.04593 18.4004 6.02929 18.2975 6.02929 17.734V17.1009L3.78808 17.1011C1.77011 17.1011 1.52683 17.1113 1.34595 17.2036ZM2.71875 21.3156C2.45168 21.3802 2.30068 21.4958 2.16281 21.7411C2.04551 21.9498 2.03871 22.0313 2.05588 23.0148C2.07638 24.1886 2.10767 24.2892 2.51783 24.4983C2.70474 24.5936 3.09123 24.6008 8.0717 24.6008C13.1465 24.6009 13.4225 24.5956 13.3831 24.4984C13.0078 23.5719 12.7948 22.7586 12.7001 21.891L12.6313 21.2611L7.76291 21.2671C5.08529 21.2704 2.81543 21.2922 2.71875 21.3156ZM1.63892 25.5825C1.23029 25.7909 1.19748 25.8947 1.17679 27.0445C1.15664 28.166 1.18008 28.2888 1.46707 28.5638L1.64244 28.7318L8.93074 28.7472L16.219 28.7625L16.4269 28.5799C16.5412 28.4796 16.6348 28.3748 16.6348 28.3472C16.6348 28.3195 16.4304 28.1475 16.1807 27.9646C15.5614 27.5115 14.6228 26.5482 14.2324 25.9652L13.9102 25.4838L7.875 25.4819C2.24273 25.4801 1.82642 25.4869 1.63892 25.5825Z" fill="#1A1C43"/>
<path fill-rule="evenodd" clip-rule="evenodd" d="M16.0236 0.0986986C15.7587 0.22321 15.4658 0.529539 15.3652 0.787293C15.2624 1.05073 14.9985 2.44157 15 2.71245C15.0026 3.20628 15.4426 3.78284 15.9174 3.91468C16.2743 4.01376 16.7342 3.99126 16.9869 3.86229C17.3887 3.65733 17.5806 3.36003 17.8914 2.46108C18.1446 1.72854 18.1739 1.59325 18.1523 1.25522C18.1198 0.744753 17.9136 0.439831 17.4415 0.203816C16.9932 -0.0201881 16.3743 -0.066067 16.0236 0.0986986ZM16.2681 0.978601C16.1722 1.08454 15.8776 2.37735 15.8776 2.69223C15.8776 3.02803 16.4854 3.24858 16.7142 2.99581C16.8359 2.86128 17.2827 1.5936 17.2833 1.38085C17.2842 1.12919 17.1871 1.0004 16.9463 0.933484C16.6191 0.842664 16.3765 0.858777 16.2681 0.978601ZM20.9659 2.70823C20.6402 2.82964 20.4938 2.95731 19.9136 3.62593C19.2942 4.33954 19.1619 4.58581 19.1602 5.02831C19.1568 5.871 20.0062 6.57014 20.8016 6.3793C21.1403 6.29809 21.3365 6.16257 22.0937 5.4868C22.8386 4.82206 23.0176 4.42848 22.8489 3.82602C22.7588 3.50417 22.2972 2.97184 21.9584 2.79899C21.6585 2.646 21.2364 2.60739 20.9659 2.70823ZM21.1804 3.57718C21.1159 3.61052 20.8325 3.90489 20.5505 4.23137C20.0232 4.84186 19.954 5.00059 20.0981 5.26977C20.1819 5.42622 20.4873 5.57352 20.6324 5.52747C20.8316 5.46425 21.9689 4.44747 22.006 4.29928C22.0578 4.09303 21.991 3.9503 21.7343 3.71839C21.4948 3.50194 21.3817 3.47317 21.1804 3.57718ZM23.0554 7.67159C22.6042 7.83097 22.1691 8.01009 22.0886 8.06968C21.4731 8.52477 21.3849 9.47282 21.9018 10.0767C22.1567 10.3746 22.4944 10.537 22.8622 10.5387C23.0139 10.5394 23.4974 10.4705 23.9368 10.3856C24.5801 10.2613 24.7884 10.1956 25.0064 10.0487C25.5198 9.70245 25.6836 9.10884 25.4641 8.39001C25.3281 7.94464 25.105 7.66397 24.7569 7.50038C24.3385 7.30368 24.0009 7.33767 23.0554 7.67159ZM23.2951 8.51487C22.9113 8.65263 22.562 8.8137 22.5188 8.87282C22.3049 9.1652 22.5295 9.66108 22.8757 9.66108C23.1016 9.66108 24.2166 9.4471 24.4393 9.36097C24.6848 9.2661 24.746 9.05909 24.6382 8.68843C24.487 8.16846 24.3201 8.1469 23.2951 8.51487ZM21.165 16.8828C21.0815 16.9718 21.0353 17.1089 21.0229 17.3052C21.005 17.5895 20.9998 17.5968 20.7839 17.6414C19.6924 17.8668 19.031 19.0483 19.4858 19.9608C19.6718 20.3341 19.9669 20.5741 20.5538 20.8291L21.0046 21.025L21.0204 22.2648L21.0363 23.5046L20.7286 23.4638C20.5594 23.4413 20.2446 23.3456 20.0291 23.251C19.5852 23.0562 19.4709 23.0429 19.2958 23.1656C19.1415 23.2736 19.0827 23.494 19.1564 23.6878C19.2501 23.9342 20.0316 24.2699 20.6834 24.3436L21.0339 24.3832V24.6937C21.0339 24.9593 21.0562 25.0217 21.1883 25.1256C21.3644 25.2641 21.4391 25.2734 21.6399 25.182C21.8222 25.0989 21.9128 24.8983 21.9128 24.5779C21.9128 24.3304 21.9179 24.3237 22.1325 24.2893C22.7279 24.194 23.3924 23.6822 23.6805 23.0971C23.9213 22.608 23.941 22.1 23.737 21.6435C23.5015 21.1168 23.1281 20.8162 22.382 20.553L21.9421 20.3978L21.926 19.4172L21.9099 18.4367L22.0724 18.4755C22.1619 18.4967 22.3695 18.5789 22.5339 18.6579C22.9222 18.8448 23.1029 18.8421 23.2562 18.6473C23.411 18.4504 23.4108 18.2489 23.2554 18.0935C23.0941 17.9323 22.6023 17.7072 22.2271 17.6231L21.9262 17.5556L21.8977 17.2595C21.8772 17.0462 21.8326 16.9337 21.7381 16.8572C21.5591 16.7123 21.3147 16.7232 21.165 16.8828ZM20.6814 18.6173C20.2972 18.8214 20.1022 19.3044 20.2743 19.6259C20.332 19.7339 20.8453 20.0322 20.9733 20.0322C21.0119 20.0322 21.0339 19.7556 21.0339 19.2705C21.0339 18.4322 21.0329 18.4305 20.6814 18.6173ZM21.9128 22.3759V23.4385L22.0446 23.3992C22.2888 23.3263 22.666 23.0798 22.7813 22.9177C23.256 22.2499 22.9665 21.6352 22.0446 21.3536L21.9128 21.3133V22.3759Z" fill="#D22027"/>
</g>
<defs>
<clipPath id="clip0_1553_4801">
<rect width="30" height="30" fill="white"/>
</clipPath>
</defs>
</svg>
