<svg width="25" height="31" viewBox="0 0 25 31" fill="none" xmlns="http://www.w3.org/2000/svg">
<path fill-rule="evenodd" clip-rule="evenodd" d="M2.84684 0.110064C1.79597 0.453328 0.918508 1.21264 0.447315 2.18666C-0.0332542 3.18012 0.000512634 2.17873 0.000512634 15.4374C0.000512634 28.6961 -0.0332542 27.6947 0.447315 28.6882C0.831331 29.4819 1.42596 30.0886 2.2039 30.4805C3.16474 30.9644 2.56175 30.9362 12.0033 30.9375C19.4634 30.9384 20.4697 30.9276 20.8752 30.8423C22.3517 30.5317 23.5755 29.3351 23.9528 27.8329C24.0572 27.4173 24.0625 26.9396 24.0625 17.9456V8.49493L23.8905 8.26472C23.6343 7.92212 16.3356 0.131802 16.2027 0.0592617C16.1263 0.017542 13.9533 -0.00201595 9.63094 0.00016389C3.63368 0.00319144 3.15009 0.0110025 2.84684 0.110064ZM15.1321 4.0084C15.133 6.8365 15.1532 7.03813 15.5007 7.70335C15.869 8.40852 16.4764 8.94688 17.2451 9.2497L17.6533 9.41052L20.1309 9.43032L22.6086 9.45012V18.2181C22.6086 23.9288 22.5874 27.0998 22.548 27.312C22.3702 28.2684 21.6722 29.0546 20.7539 29.3328C20.489 29.4131 19.3869 29.4247 12.0408 29.4247C3.8237 29.4247 3.62223 29.422 3.25008 29.3047C2.48466 29.0635 1.83609 28.4017 1.59966 27.6207C1.48412 27.2389 1.48204 27.0258 1.48204 15.4374C1.48204 3.7929 1.48358 3.63771 1.60138 3.24855C1.83377 2.48076 2.4808 1.81772 3.23845 1.5708C3.57143 1.46229 3.87414 1.45648 9.35998 1.45339L15.1312 1.45012L15.1321 4.0084ZM19.4326 5.62814L21.5471 7.89881L19.7558 7.91485C17.982 7.93072 17.9616 7.9295 17.6579 7.78763C17.2485 7.59635 16.9692 7.33641 16.7913 6.98103C16.6449 6.68857 16.6444 6.68215 16.6279 4.65933L16.6113 2.63086L16.9647 2.99417C17.159 3.19399 18.2696 4.37928 19.4326 5.62814ZM5.66278 24.3718C5.09741 24.6565 5.18814 25.5505 5.80087 25.7321C5.95481 25.7778 7.88569 25.7921 12.164 25.7795C18.0828 25.762 18.3122 25.7572 18.4723 25.6464C18.8073 25.4148 18.8998 25.0032 18.6942 24.6593C18.4521 24.254 18.8673 24.2777 12.0334 24.2793C6.64237 24.2805 5.82046 24.2924 5.66278 24.3718Z" fill="#1A1C43"/>
<path d="M12.6441 21.4209C12.5765 21.5149 12.4296 21.6395 12.3177 21.6977C12.0662 21.8286 12.0067 21.8292 11.7478 21.7039C11.321 21.4972 11.3461 21.7636 11.3131 17.0876L11.2834 12.8808L9.72349 14.5854C8.42052 16.0093 8.12517 16.3018 7.93034 16.3614C7.29429 16.5558 6.77562 15.8469 7.13608 15.2758C7.25607 15.0856 10.9613 11.0054 11.4492 10.5261C11.7085 10.2714 11.772 10.2385 12.0044 10.2385C12.1487 10.2385 12.3333 10.2829 12.4146 10.3373C12.4959 10.3916 13.5431 11.511 14.7417 12.8246C16.9669 15.2633 17.1156 15.4573 17.0377 15.8192C16.9433 16.2575 16.4359 16.5159 16.0432 16.3258C15.9168 16.2645 15.2496 15.5809 14.3312 14.5717L12.8264 12.9179L12.7967 17.0839C12.7675 21.1781 12.7649 21.253 12.6441 21.4209Z" fill="#D22027"/>
</svg>
