<svg width="18" height="24" viewBox="0 0 18 24" fill="none" xmlns="http://www.w3.org/2000/svg">
<path fill-rule="evenodd" clip-rule="evenodd" d="M2.32043 0.830047C1.55616 1.07969 0.918006 1.63192 0.57532 2.3403C0.225815 3.06282 0.250373 2.33453 0.250373 11.9772C0.250373 21.6199 0.225815 20.8916 0.57532 21.6141C0.854604 22.1914 1.28706 22.6327 1.85284 22.9176C2.55163 23.2696 2.11309 23.2491 8.97966 23.25C14.4052 23.2506 15.1371 23.2428 15.432 23.1807C16.5058 22.9549 17.3958 22.0846 17.6702 20.9921C17.7462 20.6899 17.75 20.3424 17.75 13.8013V6.92813L17.6249 6.7607C17.4386 6.51154 12.1304 0.845856 12.0338 0.793099C11.9782 0.762758 10.3978 0.748534 7.25432 0.750119C2.89268 0.752321 2.54097 0.758002 2.32043 0.830047ZM11.2552 3.6652C11.2558 5.722 11.2705 5.86864 11.5232 6.35243C11.7911 6.86529 12.2328 7.25682 12.7919 7.47705L13.0888 7.59402L14.8907 7.60842L16.6926 7.62282V13.9995C16.6926 18.1528 16.6772 20.4589 16.6485 20.6133C16.5193 21.3088 16.0116 21.8806 15.3438 22.0829C15.1511 22.1413 14.3496 22.1498 9.00694 22.1498C3.03087 22.1498 2.88435 22.1478 2.6137 22.0625C2.05703 21.8871 1.58534 21.4058 1.41339 20.8378C1.32936 20.5601 1.32785 20.4051 1.32785 11.9772C1.32785 3.50847 1.32897 3.39561 1.41464 3.11258C1.58365 2.55419 2.05422 2.07198 2.60524 1.8924C2.8474 1.81348 3.06756 1.80926 7.05726 1.80701L11.2545 1.80463L11.2552 3.6652ZM14.3828 4.84319L15.9206 6.49459L14.6179 6.50626C13.3278 6.51779 13.313 6.51691 13.0921 6.41373C12.7944 6.27462 12.5912 6.08557 12.4619 5.82712C12.3554 5.61442 12.355 5.60975 12.343 4.1386L12.3309 2.66336L12.588 2.92758C12.7293 3.0729 13.537 3.93493 14.3828 4.84319Z" fill="#1A1C43"/>
<path d="M4.46829 19.4634C4.02266 19.3313 3.95667 18.6811 4.36785 18.4741C4.48253 18.4163 5.08028 18.4077 9.00106 18.4068C13.9711 18.4057 13.6692 18.3884 13.8453 18.6832C13.9948 18.9333 13.9275 19.2326 13.6839 19.4011C13.5674 19.4816 13.4006 19.4852 9.09601 19.4978C5.98452 19.507 4.58024 19.4966 4.46829 19.4634Z" fill="#D22027"/>
<path d="M4.46829 16.2603C4.02266 16.1282 3.95667 15.478 4.36785 15.2709C4.48253 15.2132 5.08028 15.2045 9.00106 15.2037C13.9711 15.2026 13.6692 15.1853 13.8453 15.48C13.9948 15.7302 13.9275 16.0295 13.6839 16.198C13.5674 16.2785 13.4006 16.282 9.09601 16.2947C5.98452 16.3039 4.58024 16.2935 4.46829 16.2603Z" fill="#D22027"/>
<path d="M4.46829 13.0611C4.02266 12.929 3.95667 12.2788 4.36785 12.0717C4.48253 12.014 5.08028 12.0053 9.00106 12.0044C13.9711 12.0033 13.6692 11.9861 13.8453 12.2808C13.9948 12.5309 13.9275 12.8303 13.6839 12.9987C13.5674 13.0793 13.4006 13.0828 9.09601 13.0955C5.98452 13.1047 4.58024 13.0943 4.46829 13.0611Z" fill="#D22027"/>
</svg>
