<svg width="96" height="113" viewBox="0 0 96 113" fill="none" xmlns="http://www.w3.org/2000/svg">
<path d="M89.0256 55.9866H0.235352V113.001H89.0256V55.9866Z" fill="#1A1C43"/>
<path d="M61.0687 50.0784H89.0236V55.9863H59.4375L61.0687 50.0784Z" fill="#1A1C43"/>
<g opacity="0.1">
<path d="M89.0256 55.9866H0.235352V113.001H89.0256V55.9866Z" fill="black"/>
<path d="M61.0687 50.0784H89.0236V55.9863H59.4375L61.0687 50.0784Z" fill="black"/>
</g>
<path d="M80.4208 90.1633L10.3418 90.1315L10.4058 0.814453L62.4453 0.846216L80.4528 17.8711L80.4208 90.1633Z" fill="#1A1C43"/>
<path d="M80.4208 90.1633L10.3418 90.1315L10.4058 0.814453L62.4453 0.846216L80.4528 17.8711L80.4208 90.1633Z" fill="#EBEBEB" stroke="#DBDBDB" stroke-miterlimit="10"/>
<path d="M62.4441 0.84668L80.4516 17.8716L62.4121 17.8398L62.4441 0.84668Z" fill="#1A1C43"/>
<path d="M62.4441 0.84668L80.4516 17.8716L62.4121 17.8398L62.4441 0.84668Z" fill="#DBDBDB"/>
<path d="M17.2445 18.0926L56.2021 18.1123L56.2033 15.8254L17.2457 15.8057L17.2445 18.0926Z" fill="white"/>
<path d="M17.2367 23.8905L56.1943 23.9102L56.1955 21.6232L17.2378 21.6035L17.2367 23.8905Z" fill="white"/>
<path d="M17.2328 29.6571L56.1904 29.6768L56.1916 27.3898L17.2339 27.3702L17.2328 29.6571Z" fill="white"/>
<path d="M17.2106 35.4599L74.3037 35.4888L74.3049 33.2018L17.2117 33.173L17.2106 35.4599Z" fill="white"/>
<path d="M17.2067 41.2583L74.2998 41.2871L74.301 39.0002L17.2078 38.9714L17.2067 41.2583Z" fill="white"/>
<path d="M17.1989 47.0239L74.292 47.0527L74.2932 44.7658L17.2 44.737L17.1989 47.0239Z" fill="white"/>
<path d="M17.1949 52.8218L74.2881 52.8506L74.2893 50.5637L17.1961 50.5349L17.1949 52.8218Z" fill="white"/>
<path d="M17.1871 58.6206L74.2803 58.6494L74.2814 56.3625L17.1883 56.3337L17.1871 58.6206Z" fill="white"/>
<path d="M17.1832 64.4179L74.2764 64.4468L74.2775 62.1599L17.1844 62.131L17.1832 64.4179Z" fill="white"/>
<path d="M17.1754 70.1851L74.2686 70.2139L74.2697 67.9269L17.1766 67.8981L17.1754 70.1851Z" fill="white"/>
<path d="M17.2028 75.9829L74.2959 76.0117L74.2971 73.7248L17.2039 73.696L17.2028 75.9829Z" fill="white"/>
<path d="M17.1949 81.7808L74.2881 81.8096L74.2893 79.5226L17.1961 79.4938L17.1949 81.7808Z" fill="white"/>
<path d="M71.8798 89.9724L1.80078 89.9407L1.86475 0.591797L53.8723 0.62356L71.9118 17.6484L71.8798 89.9724Z" fill="#1A1C43"/>
<path opacity="0.6" d="M71.8798 89.9724L1.80078 89.9407L1.86475 0.591797L53.8723 0.62356L71.9118 17.6484L71.8798 89.9724Z" fill="white"/>
<path d="M53.8711 0.624023L71.9106 17.6489H53.8711V0.624023Z" fill="#1A1C43"/>
<path opacity="0.4" d="M53.8711 0.624023L71.9106 17.6489H53.8711V0.624023Z" fill="white"/>
<path d="M9.14976 21.5702L48.1074 21.5898L48.1086 19.3029L9.15093 19.2833L9.14976 21.5702Z" fill="white"/>
<path d="M9.14194 27.368L48.0996 27.3877L48.1008 25.1008L9.14312 25.0811L9.14194 27.368Z" fill="white"/>
<path d="M9.13804 33.1659L48.0957 33.1855L48.0969 30.8986L9.13921 30.879L9.13804 33.1659Z" fill="white"/>
<path d="M9.11584 38.9375L66.209 38.9663L66.2102 36.6794L9.11702 36.6505L9.11584 38.9375Z" fill="white"/>
<path d="M9.11194 44.7359L66.2051 44.7646L66.2062 42.4777L9.11311 42.4489L9.11194 44.7359Z" fill="white"/>
<path d="M9.10413 50.5337L66.1973 50.5625L66.1984 48.2756L9.1053 48.2468L9.10413 50.5337Z" fill="white"/>
<path d="M9.10022 56.3316L66.1934 56.3604L66.1945 54.0734L9.10139 54.0446L9.10022 56.3316Z" fill="white"/>
<path d="M9.09241 62.0982L66.1855 62.127L66.1867 59.84L9.09358 59.8112L9.09241 62.0982Z" fill="white"/>
<path d="M9.11975 67.8955L66.2129 67.9243L66.2141 65.6374L9.12092 65.6086L9.11975 67.8955Z" fill="white"/>
<path d="M9.11194 73.6939L66.2051 73.7227L66.2062 71.4357L9.11311 71.4069L9.11194 73.6939Z" fill="white"/>
<path d="M9.10803 79.4605L66.2012 79.4893L66.2023 77.2023L9.1092 77.1735L9.10803 79.4605Z" fill="white"/>
<path d="M9.10022 85.2583L66.1934 85.2871L66.1945 83.0002L9.10139 82.9714L9.10022 85.2583Z" fill="white"/>
<path d="M0.458008 113H89.2482L95.3574 60.7188H6.56713L0.458008 113Z" fill="#1A1C43"/>
<path d="M68.0104 55.3193H95.9973L95.3576 60.719H65.7715L68.0104 55.3193Z" fill="#1A1C43"/>
</svg>
