<?xml version="1.0" encoding="utf-8"?>
<!-- Generator: Adobe Illustrator 24.3.0, SVG Export Plug-In . SVG Version: 6.00 Build 0)  -->
<svg version="1.1" id="Layer_1" xmlns="http://www.w3.org/2000/svg" xmlns:xlink="http://www.w3.org/1999/xlink" x="0px" y="0px"
	 viewBox="0 0 27 27" style="enable-background:new 0 0 27 27;" xml:space="preserve">
<style type="text/css">
	.st0{fill:#1A1C43;stroke:#FFFFFF;stroke-width:0.7;stroke-miterlimit:10;}
</style>
<g>
	<path class="st0" d="M15.3,13.7c1.9,1.9,3.9,3.9,5.8,5.8c0.1,0.1,0.2,0.2,0.3,0.3c0.5,0.6,0.2,1.6-0.6,1.8c-0.5,0.1-0.9,0-1.3-0.4
		c-2.3-2.3-4.5-4.5-6.8-6.8c-0.6-0.6-0.6-1.3,0-1.9c2.3-2.3,4.5-4.5,6.8-6.8c0.1-0.1,0.1-0.1,0.2-0.2c0.5-0.3,1.1-0.3,1.5,0
		c0.6,0.5,0.7,1.3,0.1,1.8c-1.6,1.6-3.1,3.1-4.6,4.6c-0.5,0.5-1,1-1.6,1.6C15.2,13.6,15.3,13.7,15.3,13.7z"/>
	<path class="st0" d="M8.2,13.7c1,1.1,2.1,2.1,3.2,3.2c0.9,0.9,1.8,1.8,2.7,2.7c0.4,0.3,0.5,0.7,0.4,1.2c-0.2,0.8-1.3,1.1-2,0.4
		c-2.2-2.3-4.5-4.5-6.8-6.8c-0.6-0.6-0.6-1.3,0-1.9c1.4-1.4,2.8-2.8,4.2-4.2c0.9-0.9,1.7-1.7,2.6-2.6c0.3-0.3,0.7-0.4,1.1-0.3
		c0.5,0.1,0.8,0.4,0.9,0.8c0.2,0.5,0,0.9-0.3,1.2c-1.5,1.5-3,3-4.5,4.5c-0.5,0.5-1.1,1.1-1.6,1.6C8.2,13.6,8.2,13.6,8.2,13.7z"/>
</g>
</svg>
