<svg width="18" height="18" viewBox="0 0 18 18" fill="none" xmlns="http://www.w3.org/2000/svg">
<path fill-rule="evenodd" clip-rule="evenodd" d="M3.4171 0.0969225C2.06658 0.473674 1.05983 1.27882 0.452847 2.46745C-0.238928 3.82238 -0.135232 5.38744 0.744038 6.86196C0.91081 7.14152 1.57039 7.87627 2.38509 8.68986C3.56942 9.87256 3.78095 10.0501 4.00452 10.0499C4.49815 10.0492 4.87256 9.56377 4.70472 9.14172C4.66352 9.03819 4.10549 8.42361 3.46466 7.77607C2.82374 7.12853 2.18934 6.43812 2.05477 6.24187C1.43788 5.34221 1.28184 4.21732 1.64362 3.27828C1.89799 2.61791 2.66885 1.8588 3.34329 1.6045C4.28787 1.24829 5.44182 1.40354 6.36047 2.01032C6.55787 2.14072 7.5112 3.02543 8.47889 3.97649C10.414 5.87811 10.723 6.30877 10.8906 7.33875C11.0843 8.52884 10.6198 9.44945 9.31316 10.4654C8.96616 10.7351 8.93388 11.1525 9.23547 11.4683C9.52642 11.7728 9.86244 11.7388 10.4639 11.3438C12.0816 10.2814 12.7863 8.11385 12.1054 6.29489C11.7162 5.25501 11.4333 4.90001 9.4034 2.90364C7.37456 0.908237 7.01459 0.630789 5.95518 0.245187C5.26026 -0.00773967 4.04629 -0.0786241 3.4171 0.0969225Z" fill="#1A1C43"/>
<path fill-rule="evenodd" clip-rule="evenodd" d="M7.93265 6.40901C7.09259 6.86574 6.31859 7.76068 5.93427 8.71953C5.73662 9.21264 5.71053 9.38713 5.71094 10.2117C5.71136 11.0184 5.74033 11.2199 5.92403 11.6929C6.3337 12.7477 6.61126 13.095 8.63375 15.0841C10.6637 17.0805 11.0246 17.3587 12.082 17.7415C14.3482 18.562 16.9227 17.3603 17.7767 15.0835C17.9766 14.5503 18.0045 14.3633 18.0001 13.5813C17.996 12.8268 17.9624 12.6032 17.7836 12.1407C17.4056 11.163 17.0653 10.7092 15.6521 9.29789C14.4677 8.11519 14.2562 7.93761 14.0326 7.93785C13.5527 7.93842 13.1684 8.41716 13.3214 8.82379C13.3562 8.91635 13.9227 9.54351 14.5803 10.2175C15.2379 10.8915 15.8768 11.5897 16.0001 11.769C16.5991 12.6407 16.7539 13.7909 16.3958 14.7095C16.138 15.3707 15.3662 16.1298 14.6939 16.3833C13.7515 16.7386 12.5953 16.5841 11.682 15.9809C11.4875 15.8524 10.5345 14.9677 9.56429 14.0148C8.03659 12.5142 7.76216 12.206 7.51506 11.7138C6.70332 10.0962 7.06155 8.81599 8.67544 7.56703C8.94492 7.35852 8.99768 7.26912 8.99768 7.02115C8.99768 6.46544 8.4295 6.13887 7.93265 6.40901Z" fill="#D22027"/>
</svg>
