<svg width="11" height="16" viewBox="0 0 11 16" fill="none" xmlns="http://www.w3.org/2000/svg">
<path d="M5.33333 7.6C4.82816 7.6 4.34368 7.38929 3.98646 7.01421C3.62925 6.63914 3.42857 6.13043 3.42857 5.6C3.42857 5.06957 3.62925 4.56086 3.98646 4.18579C4.34368 3.81071 4.82816 3.6 5.33333 3.6C5.83851 3.6 6.32299 3.81071 6.6802 4.18579C7.03742 4.56086 7.2381 5.06957 7.2381 5.6C7.2381 5.86264 7.18883 6.12272 7.0931 6.36537C6.99738 6.60802 6.85708 6.8285 6.6802 7.01421C6.50333 7.19993 6.29335 7.34725 6.06225 7.44776C5.83116 7.54827 5.58347 7.6 5.33333 7.6ZM5.33333 0C3.91885 0 2.56229 0.589998 1.5621 1.6402C0.561903 2.69041 0 4.11479 0 5.6C0 9.8 5.33333 16 5.33333 16C5.33333 16 10.6667 9.8 10.6667 5.6C10.6667 4.11479 10.1048 2.69041 9.10457 1.6402C8.10438 0.589998 6.74782 0 5.33333 0Z" fill="#1A1C43"/>
</svg>
