<?xml version="1.0" encoding="utf-8"?>
<!-- Generator: Adobe Illustrator 24.3.0, SVG Export Plug-In . SVG Version: 6.00 Build 0)  -->
<svg version="1.1" id="Layer_1" xmlns="http://www.w3.org/2000/svg" xmlns:xlink="http://www.w3.org/1999/xlink" x="0px" y="0px"
	 viewBox="0 0 24 24" style="enable-background:new 0 0 24 24;" xml:space="preserve">
<style type="text/css">
	.st0{fill:#1A1C43;}
</style>
<g>
	<g>
		<path class="st0" d="M13.3,23.9H3.7c-2,0-3.7-1.7-3.7-3.7V3.8c0-2.1,1.7-3.7,3.7-3.7h9.6c0.5,0,1,0.4,1,1s-0.4,1-1,1H3.7
			C2.7,2,2,2.8,2,3.8v16.4c0,1,0.8,1.8,1.8,1.8h9.6c0.5,0,1,0.4,1,1S13.8,23.9,13.3,23.9z"/>
	</g>
	<path class="st0" d="M5,11.1c-0.5,0-0.9,0.4-0.9,0.9c0,0.5,0.4,0.9,0.9,0.9V11.1z M22.9,12.6c0.3-0.3,0.3-0.9,0-1.2l-5.5-5.5
		c-0.3-0.3-0.9-0.3-1.2,0c-0.3,0.3-0.3,0.9,0,1.2l4.9,4.9l-4.9,4.9c-0.3,0.3-0.3,0.9,0,1.2c0.3,0.3,0.9,0.3,1.2,0L22.9,12.6z
		 M5,12.9h17.4v-1.7H5V12.9z"/>
</g>
</svg>
