<svg width="13" height="13" viewBox="0 0 13 13" fill="none" xmlns="http://www.w3.org/2000/svg">
<g clip-path="url(#clip0_1190_1026)">
<path d="M0.439258 0.546114C0.335156 0.660371 0.238672 0.797481 0.175195 0.926973C0.119336 1.03869 0.0583984 1.21135 0.0380859 1.30783C0.00507813 1.46018 0 2.19396 0 6.50022C0 10.8065 0.00507813 11.5403 0.0380859 11.6926C0.0583984 11.7916 0.124414 11.9668 0.182812 12.0862M0.439258 0.546114L0.475998 0.580028C0.476034 0.579989 0.476069 0.57995 0.476105 0.579912M0.439258 0.546114L0.476218 0.579788C0.47618 0.579829 0.476142 0.579871 0.476105 0.579912M0.439258 0.546114C0.530664 0.44709 0.665234 0.330293 0.738867 0.287129C0.815039 0.241426 0.944531 0.17541 1.02832 0.142403C1.11211 0.106856 1.27207 0.0611526 1.38379 0.0408401M0.476105 0.579912C0.374725 0.691205 0.281158 0.824404 0.220091 0.948981L0.219918 0.949334L0.219917 0.949334C0.16572 1.05773 0.106337 1.22634 0.0870134 1.31813L0.0869529 1.31842C0.0798288 1.3513 0.0733302 1.42108 0.0681835 1.57947C0.0630876 1.73629 0.0593611 1.97633 0.0566637 2.34667C0.0512698 3.08722 0.05 4.34702 0.05 6.50022C0.05 8.65341 0.0512698 9.91321 0.0566637 10.6538C0.0593611 11.0241 0.0630876 11.2641 0.0681835 11.421C0.0733302 11.5794 0.0798288 11.6491 0.0869521 11.682L0.0870691 11.6826L0.0870661 11.6826C0.106203 11.7758 0.170252 11.9467 0.227622 12.064M0.476105 0.579912C0.565988 0.482561 0.696622 0.369852 0.764153 0.330264L0.764154 0.330266L0.764592 0.330004C0.838897 0.285421 0.965906 0.22073 1.04665 0.188923L1.04665 0.188939L1.04785 0.188432C1.12752 0.15463 1.2838 0.10984 1.39273 0.0900336L1.38379 0.0408401M0.227622 12.064C0.227592 12.0639 0.227563 12.0639 0.227534 12.0638L0.182812 12.0862M0.227622 12.064C0.227656 12.064 0.227689 12.0641 0.227723 12.0642L0.182812 12.0862M0.227622 12.064C0.306254 12.2212 0.374136 12.316 0.515375 12.4597M0.182812 12.0862C0.264062 12.2487 0.335156 12.3477 0.479883 12.4949M0.479883 12.4949L0.515238 12.4596C0.515284 12.4596 0.51533 12.4597 0.515375 12.4597M0.479883 12.4949C0.62207 12.6371 0.726172 12.7133 0.875977 12.7895M0.479883 12.4949L0.515544 12.4599C0.515488 12.4598 0.515431 12.4598 0.515375 12.4597M0.515375 12.4597C0.654191 12.5985 0.754051 12.6714 0.89843 12.7448M0.875977 12.7895L0.898337 12.7448C0.898368 12.7448 0.898399 12.7448 0.89843 12.7448M0.875977 12.7895C0.987695 12.8453 1.17051 12.9139 1.28223 12.9393C1.4752 12.985 1.61738 12.9875 4.02441 12.9875H6.56348M0.875977 12.7895L0.898639 12.7449C0.898569 12.7449 0.8985 12.7448 0.89843 12.7448M0.89843 12.7448C1.00729 12.7992 1.18624 12.8662 1.29331 12.8905L1.29375 12.8906C1.38462 12.9121 1.46379 12.9242 1.82393 12.9305C2.18391 12.9369 2.82064 12.9375 4.02441 12.9375H6.55198M6.55198 12.9375C6.54859 12.9392 6.54517 12.9408 6.5417 12.9425L6.56348 12.9875M6.55198 12.9375H6.56348V12.9875M6.55198 12.9375C6.77744 12.8277 6.83282 12.777 6.87777 12.7129M6.56348 12.9875C6.79961 12.8733 6.86562 12.8174 6.91895 12.7412M6.91895 12.7412L6.87753 12.7132C6.87761 12.7131 6.87769 12.713 6.87777 12.7129M6.91895 12.7412C6.97734 12.6549 6.99512 12.599 7.00273 12.467M6.91895 12.7412L6.87798 12.7126C6.87791 12.7127 6.87784 12.7128 6.87777 12.7129M6.87777 12.7129C6.90522 12.6722 6.92139 12.6413 6.93209 12.6066L7.00273 12.467M7.00273 12.467C7.01035 12.3299 7.0002 12.2817 6.95195 12.1877C6.91641 12.1242 6.84023 12.0379 6.78184 11.9973L7.00273 12.467ZM6.65683 11.971L1.48511 11.9457L1.47276 11.9457L1.46186 11.9399C1.30483 11.8563 1.22719 11.7999 1.1903 11.7603M6.65683 11.971L1.0918 6.50022C1.0918 2.05432 1.09687 1.5135 1.13242 1.42717C1.15273 1.37639 1.1959 1.30529 1.22637 1.27482M6.65683 11.971L6.75323 12.0383L6.75328 12.0383C6.80471 12.0741 6.87553 12.154 6.9079 12.2114C6.9308 12.2561 6.94284 12.2865 6.94913 12.3203C6.95562 12.3552 6.95657 12.3966 6.95282 12.4641L6.65683 11.971ZM1.1903 11.7603C1.19008 11.76 1.18985 11.7598 1.18963 11.7595L1.22637 11.7256L1.19101 11.761C1.19078 11.7607 1.19054 11.7605 1.1903 11.7603ZM1.1903 11.7603C1.17111 11.7409 1.15057 11.7119 1.13284 11.6827C1.11474 11.6528 1.0975 11.6193 1.08599 11.5893C1.07876 11.5718 1.07433 11.5482 1.07078 11.5167C1.06705 11.4835 1.06387 11.4367 1.06112 11.3704C1.05561 11.2375 1.05164 11.0224 1.04878 10.6717C1.04307 9.97 1.0418 8.72308 1.0418 6.50022C1.0418 4.27735 1.04307 3.03043 1.04878 2.32845C1.05164 1.97758 1.05561 1.76221 1.06112 1.62898C1.06387 1.56244 1.06704 1.51551 1.07078 1.48204C1.07438 1.44978 1.07887 1.42602 1.08609 1.40836C1.09757 1.37973 1.11483 1.3468 1.13297 1.31723C1.15061 1.28847 1.17114 1.25955 1.1903 1.24019M1.1903 1.24019C1.19007 1.24043 1.18985 1.24067 1.18963 1.24091L1.22637 1.27482M1.1903 1.24019C1.19053 1.23995 1.19077 1.23971 1.19101 1.23947L1.22637 1.27482M1.1903 1.24019C1.2255 1.20237 1.30052 1.14648 1.36052 1.1163M1.22637 1.27482C1.25684 1.24182 1.32793 1.1885 1.38379 1.16057M1.38379 1.16057L1.35969 1.11676L1.36052 1.1163M1.38379 1.16057L1.48535 1.10471L6.67266 1.07932M1.38379 1.16057L1.36143 1.11585C1.36113 1.116 1.36083 1.11615 1.36052 1.1163M1.36052 1.1163L1.46126 1.0609L1.47239 1.05477L1.48511 1.05471L6.65648 1.0294M6.65648 1.0294C6.65227 1.03243 6.64799 1.0355 6.64365 1.03859L6.67266 1.07932M6.65648 1.0294L6.67241 1.02932L6.67266 1.07932M6.65648 1.0294C6.81194 0.917211 6.87831 0.84148 6.9079 0.789046M6.67266 1.07932C6.84023 0.959981 6.91641 0.876192 6.95195 0.812715M6.95195 0.812715L6.90747 0.789875C6.90762 0.789598 6.90776 0.789322 6.9079 0.789046M6.95195 0.812715C7.0002 0.71877 7.01035 0.670528 7.00273 0.533418M6.95195 0.812715L6.90833 0.788285C6.90819 0.788538 6.90804 0.788792 6.9079 0.789046M6.9079 0.789046C6.9308 0.744359 6.94284 0.713943 6.94913 0.680108C6.95562 0.645273 6.95657 0.603848 6.95282 0.536298L7.00273 0.533418M7.00273 0.533418C6.99512 0.401387 6.97734 0.345528 6.91895 0.2592L6.95281 0.536192L7.00273 0.533418ZM1.38379 0.0408401L1.3926 0.090057C1.47233 0.075777 1.61732 0.0667315 2.321 0.0625922C3.021 0.0584745 4.27014 0.0590995 6.55183 0.0628911M1.38379 0.0408401L6.55183 0.0628911M6.55183 0.0628911L6.68109 0.126349L6.68109 0.126353L6.68172 0.126652C6.7708 0.16885 6.82981 0.21916 6.87776 0.287553C6.90522 0.328188 6.92139 0.359093 6.93209 0.393874L6.55183 0.0628911ZM8.68867 9.96604L8.73238 9.94175C8.72359 9.92593 8.71465 9.89853 8.70808 9.8612C8.70166 9.82473 8.69805 9.78195 8.69805 9.73752C8.69805 9.69618 8.7022 9.6528 8.709 9.61497C8.71575 9.57743 8.72441 9.54924 8.73201 9.53406C8.73248 9.53343 8.73392 9.53149 8.73695 9.5278C8.74131 9.52248 8.74749 9.51529 8.75557 9.50618C8.77169 9.48801 8.79438 9.46331 8.82306 9.43271C8.88036 9.37158 8.96074 9.28781 9.05839 9.18746C9.25366 8.9868 9.51751 8.72041 9.80297 8.43749L9.80305 8.43741C10.3707 7.87234 10.9077 7.34288 10.9954 7.2577C11.0408 7.21615 11.0802 7.17553 11.108 7.14305C11.1218 7.12691 11.1336 7.11177 11.142 7.09895C11.146 7.09271 11.1503 7.08543 11.1534 7.07785C11.155 7.07408 11.1569 7.0687 11.1579 7.06234C11.1588 7.05657 11.1599 7.04525 11.1548 7.03262L11.1565 7.03196L11.1484 7.02119C11.142 7.0127 11.1346 7.0085 11.132 7.00705C11.1285 7.0052 11.1255 7.00412 11.1239 7.00356C11.1206 7.00244 11.1177 7.00186 11.1164 7.0016C11.1145 7.00125 11.1127 7.00099 11.1111 7.00079C11.1101 7.00067 11.1092 7.00058 11.1085 7.0005C11.1041 7.00006 11.0985 6.9997 11.0922 6.99938C11.0794 6.99873 11.0606 6.99812 11.0357 6.99753C10.9857 6.99634 10.9094 6.9952 10.8029 6.99413C10.59 6.99199 10.2555 6.99008 9.7673 6.9885C8.79251 6.98533 7.2046 6.98342 4.74715 6.98342L4.6467 6.9332C4.64659 6.93314 4.64648 6.93308 4.64637 6.93302C4.58849 6.90284 4.51322 6.84131 4.48006 6.79931L4.48008 6.7993L4.47907 6.79809C4.44409 6.75655 4.40137 6.6697 4.38512 6.607L4.38514 6.607L4.38475 6.60565C4.3713 6.55921 4.36577 6.52888 4.36577 6.4999C4.36577 6.47082 4.37134 6.43979 4.38484 6.39191L4.385 6.39134C4.40127 6.33092 4.44404 6.24394 4.47907 6.20234L4.47908 6.20236L4.48006 6.20112C4.51069 6.16233 4.58173 6.10202 4.74737 6.01701H7.9168C8.79029 6.01701 9.58639 6.01511 10.1645 6.01162C10.4535 6.00987 10.6882 6.00773 10.8508 6.00522C10.932 6.00397 10.9956 6.00263 11.039 6.00119C11.0606 6.00047 11.0777 5.99972 11.0897 5.9989C11.0955 5.99851 11.1011 5.99804 11.1056 5.99742C11.1077 5.99715 11.1112 5.99662 11.115 5.99561C11.1166 5.99517 11.1208 5.99402 11.1256 5.99159C11.128 5.99039 11.1324 5.98791 11.1371 5.98361C11.1409 5.98011 11.1471 5.97326 11.1507 5.96273C11.1545 5.95155 11.1533 5.94202 11.1527 5.93811C11.1517 5.93256 11.1501 5.92834 11.1492 5.92624C11.1473 5.9219 11.1452 5.91856 11.1442 5.91703C11.1434 5.91573 11.1425 5.91445 11.1416 5.91321C11.1401 5.91112 11.1385 5.90917 11.1372 5.90751C11.1326 5.90187 11.1263 5.89462 11.1187 5.88623C11.1033 5.86923 11.0807 5.84518 11.0519 5.81506C10.994 5.75471 10.9099 5.66879 10.8059 5.56368C10.5979 5.3534 10.3095 5.06571 9.99081 4.75078L9.99074 4.75071C9.67224 4.43729 9.37536 4.14041 9.1534 3.91497C9.04241 3.80223 8.95026 3.70746 8.88356 3.63748C8.85018 3.60247 8.82334 3.57383 8.80376 3.55232C8.79395 3.54155 8.78614 3.53276 8.78031 3.52596L8.77337 3.51764L8.77136 3.51507L8.7708 3.51431L8.77066 3.51411L8.77061 3.51404L8.77063 3.51403L8.76973 3.5128C8.73449 3.46434 8.70183 3.37607 8.69515 3.32043C8.68809 3.26162 8.69342 3.1778 8.70588 3.13832C8.71987 3.09401 8.75342 3.02247 8.77812 2.98655L8.77813 2.98656L8.77889 2.98539C8.80243 2.949 8.85824 2.89495 8.89778 2.86704L8.89822 2.86673C8.93924 2.8371 9.00512 2.80398 9.04254 2.78974C9.07606 2.7797 9.15434 2.77233 9.21281 2.77701C9.26906 2.78151 9.35224 2.80444 9.39582 2.82442C9.39666 2.82509 9.39966 2.82731 9.40567 2.83232C9.41378 2.83908 9.42486 2.84873 9.4389 2.8613C9.46693 2.8864 9.50565 2.92213 9.55397 2.96744C9.65056 3.05801 9.7847 3.18613 9.94666 3.34238C10.2705 3.65484 10.7052 4.07936 11.1723 4.54011C11.6813 5.04401 12.1102 5.47292 12.4153 5.78278C12.5679 5.93774 12.6893 6.06277 12.7743 6.15244C12.8168 6.19731 12.85 6.23307 12.8732 6.25918C12.8849 6.27226 12.8937 6.28259 12.8999 6.29024C12.9029 6.29397 12.9049 6.2965 12.906 6.29804C12.9075 6.30011 12.9077 6.30038 12.9071 6.29934C12.931 6.34717 12.95 6.43308 12.95 6.50022C12.95 6.56771 12.9308 6.6533 12.9075 6.69791L12.9074 6.6979L12.907 6.69869C12.907 6.69865 12.9052 6.70146 12.8997 6.70841C12.8935 6.71613 12.8847 6.72654 12.8731 6.73972C12.8498 6.76603 12.8167 6.80195 12.7742 6.84699C12.6893 6.93699 12.5679 7.06223 12.4153 7.21735C12.1102 7.52753 11.6813 7.95645 11.1722 8.46039C10.7052 8.92111 10.2705 9.34561 9.94666 9.65806C9.7847 9.8143 9.65056 9.94242 9.55397 10.033C9.50565 10.0783 9.46693 10.114 9.4389 10.1391C9.42486 10.1517 9.41378 10.1614 9.40567 10.1681C9.39838 10.1742 9.39552 10.1762 9.39557 10.1762L9.39532 10.1764C9.34781 10.2033 9.27409 10.2182 9.17871 10.2182C9.1356 10.2182 9.0928 10.2146 9.05591 10.2081C9.01807 10.2015 8.99016 10.1926 8.97448 10.1839L8.9502 10.2276M8.68867 9.96604L8.73225 9.94152C8.7527 9.97787 8.80021 10.0423 8.83577 10.0805C8.87397 10.116 8.93836 10.1635 8.97471 10.184L8.9502 10.2276M8.68867 9.96604C8.71152 10.0067 8.76231 10.0752 8.80039 10.1158C8.84102 10.1539 8.90957 10.2047 8.9502 10.2276M8.68867 9.96604L9.41992 10.2199C9.36152 10.2529 9.27773 10.2682 9.17871 10.2682C9.08731 10.2682 8.9959 10.2529 8.9502 10.2276M11.0797 7.09891C11.0535 7.13105 11.0114 7.17537 10.9611 7.22131C10.8748 7.3051 10.3365 7.83576 9.76777 8.40197L11.0797 7.09891ZM11.0797 7.09891C11.0825 7.09903 11.0849 7.09914 11.0872 7.09926L11.0984 7.09999C11.0995 7.1001 11.099 7.10009 11.0976 7.09983C11.0971 7.09973 11.0949 7.09931 11.092 7.09835C11.0914 7.09815 11.0906 7.09786 11.0896 7.09747C11.0882 7.09691 11.0865 7.09614 11.0845 7.09509C11.0842 7.09492 11.0838 7.0947 11.0833 7.09443M11.0797 7.09891L11.0833 7.09443M11.0833 7.09443C11.1011 7.0721 11.1105 7.05637 11.1084 7.05119C11.1076 7.05015 11.0919 7.04914 11.0589 7.04816C11.059 7.0474 11.0591 7.04676 11.0592 7.04627C11.0598 7.04245 11.0608 7.04009 11.0609 7.03978C11.0612 7.03912 11.0607 7.0405 11.0581 7.04446C11.0574 7.04558 11.0566 7.04678 11.0557 7.04806C10.7581 7.03951 9.14294 7.03342 4.73535 7.03342L11.0833 7.09443Z" fill="#1A1C43" stroke="white" stroke-width="0.1"/>
</g>
<defs>
<clipPath id="clip0_1190_1026">
<rect width="13" height="13" fill="white"/>
</clipPath>
</defs>
</svg>
