<?xml version="1.0" encoding="utf-8"?>
<!-- Generator: Adobe Illustrator 24.3.0, SVG Export Plug-In . SVG Version: 6.00 Build 0)  -->
<svg version="1.1" id="Layer_1" xmlns="http://www.w3.org/2000/svg" xmlns:xlink="http://www.w3.org/1999/xlink" x="0px" y="0px"
	 viewBox="0 0 27 27" style="enable-background:new 0 0 27 27;" xml:space="preserve">
<style type="text/css">
	.st0{fill:#1A1C43;}
</style>
<g>
	<g>
		<path class="st0" d="M13.8,13.9c-2.7,0-4.9-2.2-4.9-4.9S11,4,13.8,4s4.9,2.2,4.9,4.9S16.5,13.9,13.8,13.9z M13.8,5
			c-2.2,0-4,1.8-4,4s1.8,4,4,4s4-1.8,4-4S15.9,5,13.8,5z"/>
	</g>
	<g>
		<path class="st0" d="M22,23.1H5.4v-1.9c0-0.1,0-2.5,2-4.4c1.5-1.5,3.8-2.2,6.7-2.2c2.7,0,4.7,0.8,6.1,2.4c2.2,2.4,1.9,5.6,1.9,5.7
			L22,23.1z M6.3,22.2h14.9c0-0.9-0.2-3-1.7-4.6c-1.2-1.3-3.1-2-5.5-2.1c-2.6,0-4.7,0.6-6,1.9c-1.6,1.6-1.7,3.7-1.7,3.8V22.2z"/>
	</g>
</g>
</svg>
