<svg width="22" height="24" viewBox="0 0 22 24" fill="none" xmlns="http://www.w3.org/2000/svg">
<path d="M7.83231 1.82431L7.83232 1.82432L7.83626 1.82185C8.08165 1.66782 8.42907 1.47974 8.57884 1.41318C8.74089 1.34116 9.03212 1.23464 9.20278 1.17865C9.34874 1.13077 9.6895 1.04083 9.93459 0.989399C10.2337 0.929159 10.4625 0.904414 10.955 0.9C11.4637 0.90009 11.6895 0.917541 12.0009 0.97711C12.2508 1.02687 12.6622 1.13434 12.8925 1.21066C13.1257 1.28791 13.4676 1.43017 13.6193 1.50821C13.7962 1.59922 14.0891 1.76526 14.252 1.86743C14.3781 1.95185 14.7362 2.24238 15.0164 2.51533L15.0215 2.52027L15.0266 2.52513C15.3193 2.80137 15.6292 3.15439 15.7092 3.27095L15.7135 3.27728L15.718 3.28354C15.8235 3.4317 16.0007 3.72763 16.1076 3.9275C16.2002 4.1102 16.3363 4.42795 16.4067 4.62504C16.476 4.83403 16.5681 5.16341 16.6089 5.34751L16.609 5.34781C16.6507 5.53542 16.6756 5.78419 16.6756 6.32467C16.6756 6.86516 16.6507 7.11393 16.609 7.30154L16.6089 7.30184C16.5674 7.48894 16.4782 7.80625 16.4182 7.98695C16.3613 8.15857 16.2437 8.45045 16.1688 8.60548C16.1013 8.74518 15.9068 9.07583 15.7469 9.31017L15.7442 9.31416C15.5776 9.56107 15.348 9.82505 15.0063 10.1484L15.0062 10.1484L15.002 10.1525C14.7297 10.4136 14.3798 10.6965 14.2521 10.7819C14.0892 10.884 13.7962 11.0501 13.6193 11.1411C13.4688 11.2186 13.1218 11.3637 12.8747 11.4459C12.606 11.53 12.2352 11.6288 12.0597 11.661L12.0596 11.6609L12.0471 11.6634C11.8544 11.7016 11.5415 11.7259 11 11.7259V11.7259L10.9928 11.7259C10.4295 11.7304 10.1692 11.7068 9.95656 11.6641C9.75758 11.6235 9.42442 11.5373 9.23378 11.4791C9.05125 11.4234 8.74356 11.3094 8.57884 11.2362C8.42972 11.1699 8.08467 10.9832 7.83947 10.8295C7.57973 10.6631 7.27976 10.4227 6.95405 10.1103C6.67404 9.84181 6.37224 9.49699 6.29081 9.3784C6.17937 9.21612 5.99475 8.91296 5.89239 8.72177C5.80123 8.54176 5.66427 8.2189 5.59146 8.01911C5.52447 7.82069 5.43253 7.48867 5.39108 7.30184L5.39101 7.30153C5.34932 7.11393 5.32444 6.86516 5.32444 6.32467C5.32444 5.78419 5.34932 5.53542 5.39101 5.34781L5.39108 5.34751C5.43192 5.16342 5.52397 4.83406 5.59325 4.62508C5.66372 4.42802 5.79978 4.11032 5.89237 3.9276C5.99473 3.73642 6.17937 3.43323 6.2908 3.27095L5.54889 2.76148L6.29081 3.27095C6.37224 3.15236 6.67404 2.80753 6.95405 2.53901L6.95406 2.53902L6.95833 2.53487C7.29507 2.20763 7.57154 1.98613 7.83231 1.82431ZM11 12.6259C11.5524 12.6259 11.9387 12.6025 12.2222 12.5462L11 12.6259ZM3.61778 16.0766C3.388 16.25 2.992 16.6017 2.73778 16.8549C2.47867 17.1127 2.17067 17.4456 2.04844 17.6003C1.92622 17.755 1.71111 18.041 1.57911 18.2332C1.44711 18.4255 1.23689 18.763 1.11467 18.9834L3.61778 16.0766ZM3.37263 17.4928L3.37286 17.4926C3.60692 17.2595 3.97171 16.9371 4.16005 16.7949C4.3694 16.6368 4.71619 16.3961 4.92438 16.2641C5.12608 16.1411 5.49739 15.9391 5.74245 15.8192C5.98407 15.7058 6.37997 15.5417 6.61109 15.4561C6.83185 15.3793 7.24564 15.2594 7.51202 15.1952C7.77412 15.137 8.22215 15.0595 8.48879 15.0249C8.79281 14.9937 9.60498 14.9699 10.9055 14.9652L10.9061 14.9652C11.9915 14.9606 13.0631 14.9842 13.3147 15.0038C13.5692 15.0295 13.98 15.0894 14.2209 15.1353C14.4688 15.1875 14.8833 15.2917 15.1303 15.3693C15.3663 15.4434 15.833 15.6291 16.1492 15.7741C16.4526 15.9132 16.9021 16.1574 17.1219 16.2952C17.3528 16.44 17.7051 16.686 17.8812 16.8218C18.0424 16.9462 18.3898 17.2562 18.6271 17.4926L18.6274 17.4928C18.879 17.7432 19.1568 18.0461 19.2453 18.1582C19.3591 18.3023 19.5615 18.5716 19.679 18.7427C19.7954 18.9123 19.9805 19.2063 20.0844 19.3832C20.1752 19.5468 20.3465 19.8965 20.4487 20.1455L20.4486 20.1455L20.4537 20.1575C20.5603 20.407 20.7137 20.8437 20.7865 21.1025C20.8599 21.3632 20.9652 21.8407 21.0139 22.1381C21.0632 22.4434 21.1 22.8507 21.1 23.0154C21.1 23.0472 21.0997 23.0752 21.0992 23.1H0.900604C0.900213 23.0789 0.9 23.0555 0.9 23.0295C0.9 22.8664 0.936139 22.4762 0.981805 22.1719C1.03317 21.8643 1.12444 21.4179 1.18673 21.1869L1.18871 21.1796L1.19056 21.1722C1.24529 20.9547 1.39037 20.5335 1.50139 20.2652C1.61776 19.984 1.79592 19.6036 1.89426 19.4331L1.89804 19.4265L1.90171 19.4199C2.00942 19.2257 2.20446 18.9125 2.32103 18.7427C2.43852 18.5716 2.64087 18.3023 2.75467 18.1582C2.84323 18.0461 3.12102 17.7432 3.37263 17.4928Z" stroke="#1A1C43" stroke-width="1.8"/>
</svg>
