<?xml version="1.0" encoding="utf-8"?>
<!-- Generator: Adobe Illustrator 24.3.0, SVG Export Plug-In . SVG Version: 6.00 Build 0)  -->
<svg version="1.1" id="Layer_1" xmlns="http://www.w3.org/2000/svg" xmlns:xlink="http://www.w3.org/1999/xlink" x="0px" y="0px"
	 viewBox="0 0 100 100" style="enable-background:new 0 0 100 100;" xml:space="preserve">
<style type="text/css">
	.st0{fill:#565656;}
</style>
<g>
	<path class="st0" d="M66.8,31c-0.3,4.7-0.5,9.5-2.3,14c-0.8,1.9-1.9,3.8-3.1,5.5c-1.6,2.2-3.8,3.6-6.4,4.3
		c-3.5,0.8-6.9,0.8-10.4-0.3c-2.3-0.7-4.1-2.1-5.5-4c-2.3-2.9-3.9-6.2-4.3-9.9c-0.4-3.4-0.7-6.9-0.9-10.3c-0.1-2.5,0.5-4.9,1.6-7.2
		c1.4-2.8,2.9-3.6,6-3.3c1,0.1,2,0.3,3,0.4c2.7,0.3,4.8-0.6,6.4-2.8c0.4-0.6,0.8-1.1,1.3-1.6c2.6-3,6.4-3.2,9.2-0.3
		c1.9,2,3.1,4.4,4,7C66.4,25.1,67,28,66.8,31z"/>
	<path class="st0" d="M35.4,60.7c1.2,4.3,2.4,8.5,3.6,12.8c0.9,3.1,2.9,3.7,5.3,1.6c0.2-0.2,0.4-0.3,0.7-0.6c0.8,1.5,2,2.7,1.6,4.7
		c-1.1,6.1-1.9,12.3-2.8,18.5c-0.1,0.6-0.2,1-1,0.9c-10.2-1.2-19.3-4.9-27.3-11.3C15.3,87,14.9,86.4,15,86c0.3-3.9,0.9-7.8,2.1-11.6
		c1.1-3.4,3-6.1,6.1-7.9c3.6-2.1,7.2-4,11.1-5.4C34.6,60.9,35,60.8,35.4,60.7z"/>
	<path class="st0" d="M56.6,98.2c-0.6-3.8-1.1-7.5-1.6-11.2c-0.3-2.3-0.5-4.7-1.1-7c-0.6-2.2,0.3-3.7,1.5-5.3
		c0.3,0.2,0.6,0.5,0.8,0.7c2,1.7,4.1,1.1,4.9-1.4c1-3.5,2-7.1,3.1-10.6c0.2-0.8,0.5-1.7,0.7-2.6c1.1,0.4,2.2,0.7,3.2,1.1
		c3.8,1.5,7.4,3.5,10.8,5.8c2.2,1.5,3.5,3.7,4.2,6.1c0.9,3.3,1.5,6.7,2.2,10c0.1,0.4-0.2,0.9-0.5,1.2c-7.8,7.1-16.9,11.5-27.3,13.2
		C57.2,98.2,57,98.2,56.6,98.2z"/>
	<path class="st0" d="M33.1,24c-0.9-3.3-1.4-6.6-1.1-9.9c0.4-4.1,3.6-7.3,8.1-8c0.8-0.1,1.3-0.4,1.7-1.2c1.1-2.4,3.2-3.3,5.6-3.4
		c5.1-0.1,10,1,14.3,3.6c3.6,2.2,5.4,5.7,6,9.7c0.3,2.5,0.2,5,0.3,7.5c0,0.2-0.1,0.5-0.2,1c-0.3-1-0.5-1.7-0.8-2.3
		c-1.1-2.1-2-4.3-3.4-6.2c-3.7-4.8-9.1-4.8-13-0.2c-0.1,0.1-0.3,0.3-0.3,0.4C48.6,18.1,46,18.6,43,18c-0.4-0.1-0.7-0.1-1.1-0.2
		c-4.4-0.7-6.7,1.3-8.3,4.8C33.5,23.1,33.3,23.6,33.1,24z"/>
	<path class="st0" d="M54.6,98.7c-3,0-5.9,0-9,0c0.2-1.5,0.4-3,0.6-4.5c0.8-5.4,1.6-10.9,2.4-16.3c0.1-0.5-0.1-1.1-0.3-1.5
		c-0.6-1.1-1.2-2.1-1.9-3.2c1.1-1,2.2-1.9,3.3-2.8c0.2-0.1,0.6-0.1,0.8,0.1c1,0.8,1.9,1.6,2.8,2.4c0.2,0.2,0.2,0.7,0.1,0.8
		c-2.7,2.8-1.6,6.1-1.1,9.3c0.7,4.9,1.5,9.9,2.2,14.8C54.7,98,54.6,98.2,54.6,98.7z"/>
	<path class="st0" d="M41.8,55.5c5.6,2.5,11.1,2.4,17.1-0.1c-0.3,1-0.4,1.7-0.8,2.2c-2.2,2.9-4.5,5.8-6.7,8.6
		c-0.9,1.2-1.4,1.2-2.4,0c-2.2-2.8-4.5-5.5-6.7-8.4c-0.5-0.6-0.6-1.4-0.9-2.2C41.5,55.7,41.7,55.6,41.8,55.5z"/>
	<path class="st0" d="M39.9,57.9c2.9,3.7,5.8,7.2,8.8,10.9c-2.1,1.8-4.1,3.5-6.2,5.3c-0.7,0.5-1.2,0.2-1.5-0.9
		c-0.7-2.4-1.4-4.9-2.1-7.3c-0.4-1.4-0.8-2.9-1.2-4.3c-0.3-0.8-0.1-1.4,0.5-1.9C38.7,59.1,39.3,58.5,39.9,57.9z"/>
	<path class="st0" d="M51.8,68.8c2.9-3.7,5.7-7.3,8.6-10.9c0.7,0.7,1.5,1.3,2.2,2.1c0.3,0.3,0.3,1,0.2,1.4c-1.1,4-2.3,7.9-3.4,11.9
		c-0.3,1.1-0.9,1.3-1.7,0.6C55.6,72.2,53.7,70.6,51.8,68.8z"/>
	<path class="st0" d="M68.2,39.2c0.2-4.3,0.4-8.1,0.6-12.1c0.9-0.3,2,0.1,2.5,1.1c0.5,1.1,0.8,2.4,0.8,3.5c0,2.1-0.8,4.2-2.1,5.9
		C69.5,38.2,68.9,38.6,68.2,39.2z"/>
	<path class="st0" d="M32,27.1c0.1,4,0.2,7.9,0.4,11.9c-0.4-0.3-0.9-0.5-1.2-0.8c-2.1-2.6-2.9-5.5-2.2-8.8
		C29.3,27.6,30.5,26.9,32,27.1z"/>
</g>
</svg>
