<?xml version="1.0" encoding="utf-8"?>
<!-- Generator: Adobe Illustrator 24.3.0, SVG Export Plug-In . SVG Version: 6.00 Build 0)  -->
<svg version="1.1" id="Layer_1" xmlns="http://www.w3.org/2000/svg" xmlns:xlink="http://www.w3.org/1999/xlink" x="0px" y="0px"
	 viewBox="0 0 32 40" style="enable-background:new 0 0 32 40;" xml:space="preserve">
<style type="text/css">
	.st0{fill:#D22027;}
	.st1{fill-rule:evenodd;clip-rule:evenodd;fill:#1A1C43;}
	.st2{fill:#FFFFFF;}
	.st3{fill:#1A1C43;}
	.st4{fill-rule:evenodd;clip-rule:evenodd;fill:#D22027;}
</style>
<g>
	<g>
		<path class="st0" d="M20.9,15.5H8.1c-0.3,0-0.6-0.3-0.6-0.6s0.3-0.6,0.6-0.6h12.7c0.3,0,0.6,0.3,0.6,0.6S21.2,15.5,20.9,15.5z"/>
	</g>
	<g>
		<path class="st0" d="M20.9,19.7H8.1c-0.3,0-0.6-0.3-0.6-0.6c0-0.3,0.3-0.6,0.6-0.6h12.7c0.3,0,0.6,0.3,0.6,0.6
			C21.4,19.4,21.2,19.7,20.9,19.7z"/>
	</g>
	<g>
		<path class="st0" d="M20.9,23.9H8.1c-0.3,0-0.6-0.3-0.6-0.6c0-0.3,0.3-0.6,0.6-0.6h12.7c0.3,0,0.6,0.3,0.6,0.6
			S21.2,23.9,20.9,23.9z"/>
	</g>
</g>
<path class="st1" d="M5.3,3.5c-1,0.3-1.8,1-2.3,1.9c-0.5,0.9-0.4,0-0.4,12.4s0,11.5,0.4,12.4C3.3,31,3.9,31.6,4.7,32
	c0.9,0.5,0.3,0.4,9.4,0.4c7.1,0,8.1,0,8.5-0.1c1.4-0.3,2.6-1.4,2.9-2.8c0.1-0.4,0.1-0.8,0.1-9.3v-8.9l-0.2-0.2
	c-0.2-0.3-7.2-7.6-7.4-7.7c-0.1,0-2.2-0.1-6.3-0.1C6,3.4,5.6,3.4,5.3,3.5z M17,7.2c0,2.6,0,2.8,0.4,3.5s0.9,1.2,1.7,1.4l0.4,0.2h2.4
	h2.4v8.2c0,5.3,0,8.3-0.1,8.5c-0.2,0.9-0.8,1.6-1.7,1.9C22.2,31,21.1,31,14.1,31c-7.9,0-8.1,0-8.4-0.1c-0.7-0.2-1.4-0.8-1.6-1.6
	C4,28.9,4,28.7,4,17.9C4,7,4,6.8,4.1,6.4c0.2-0.7,0.8-1.3,1.6-1.6c0.3,0,0.6,0,5.8,0H17V7.2z M21.2,8.7l2,2.1h-1.7
	c-1.7,0-1.7,0-2-0.1c-0.4-0.2-0.7-0.4-0.8-0.8c-0.1-0.3-0.1-0.3-0.2-2.2V5.8l0.3,0.3C19,6.4,20,7.5,21.2,8.7z"/>
<g>
	<circle class="st2" cx="21.9" cy="29" r="7"/>
	<path class="st3" d="M21.9,36.6c-4.2,0-7.6-3.4-7.6-7.6s3.4-7.6,7.6-7.6s7.6,3.4,7.6,7.6S26.1,36.6,21.9,36.6z M21.9,22.6
		c-3.5,0-6.4,2.9-6.4,6.4s2.9,6.4,6.4,6.4s6.4-2.9,6.4-6.4S25.4,22.6,21.9,22.6z"/>
</g>
<path class="st4" d="M24.5,25.9c-0.1,0-0.6,0.6-1.1,1.3c-2.2,2.9-2.8,3.6-2.8,3.6s-0.5-0.5-1-1.1c-1-1.2-1.2-1.3-1.5-1.2
	c-0.3,0.1-0.4,0.4-0.3,0.7c0.1,0.3,2.4,3,2.6,3.1c0.2,0.1,0.4,0.1,0.6-0.2c0.1-0.1,1-1.3,2-2.6c1-1.3,1.9-2.5,2-2.6
	c0.2-0.3,0.3-0.7,0.1-0.9c-0.1-0.1-0.2-0.1-0.2-0.1s-0.1,0-0.2,0C24.7,25.9,24.6,25.9,24.5,25.9z"/>
</svg>
