<?xml version="1.0" encoding="utf-8"?>
<!-- Generator: Adobe Illustrator 24.3.0, SVG Export Plug-In . SVG Version: 6.00 Build 0)  -->
<svg version="1.1" id="Layer_1" xmlns="http://www.w3.org/2000/svg" xmlns:xlink="http://www.w3.org/1999/xlink" x="0px" y="0px"
	 viewBox="0 0 19 22" style="enable-background:new 0 0 19 22;" xml:space="preserve">
<style type="text/css">
	.st0{fill-rule:evenodd;clip-rule:evenodd;fill:#FFFFFF;}
	.st1{fill:#F1F1F1;}
	.st2{fill:none;stroke:#D22027;stroke-width:0.8;stroke-linecap:round;}
</style>
<path class="st0" d="M3.4,1.1C2.7,1.3,2.2,1.8,1.8,2.4c-0.3,0.6-0.3,0-0.3,8.6c0,8.6,0,7.9,0.3,8.6c0.3,0.5,0.6,0.9,1.2,1.2
	C3.6,21,3.2,21,9.5,21c4.9,0,5.6,0,5.9-0.1c1-0.2,1.8-1,2-1.9c0.1-0.3,0.1-0.6,0.1-6.4V6.5l-0.1-0.1c-0.2-0.2-5-5.3-5.1-5.3
	c-0.1,0-1.5,0-4.3,0C3.9,1,3.6,1,3.4,1.1z M11.6,3.6c0,1.8,0,2,0.2,2.4c0.2,0.5,0.6,0.8,1.2,1l0.3,0.1l1.6,0l1.6,0v5.7
	c0,3.7,0,5.7,0,5.9c-0.1,0.6-0.6,1.1-1.2,1.3C15.1,20,14.4,20,9.5,20c-5.4,0-5.6,0-5.8-0.1c-0.5-0.2-0.9-0.6-1.1-1.1
	c-0.1-0.2-0.1-0.4-0.1-7.9c0-7.5,0-7.6,0.1-7.9C2.8,2.6,3.2,2.2,3.7,2c0.2-0.1,0.4-0.1,4-0.1l3.8,0L11.6,3.6z M14.4,4.6l1.4,1.5
	l-1.2,0c-1.2,0-1.2,0-1.4-0.1c-0.3-0.1-0.5-0.3-0.6-0.5c-0.1-0.2-0.1-0.2-0.1-1.5l0-1.3l0.2,0.2C12.9,3.1,13.6,3.8,14.4,4.6z"/>
<g>
	<circle class="st1" cx="9.5" cy="12" r="4.5"/>
	<path class="st2" d="M12,12H7"/>
	<path class="st2" d="M9.5,9.5v5"/>
</g>
</svg>
