<?xml version="1.0" encoding="utf-8"?>
<!-- Generator: Adobe Illustrator 24.3.0, SVG Export Plug-In . SVG Version: 6.00 Build 0)  -->
<svg version="1.1" id="Layer_1" xmlns="http://www.w3.org/2000/svg" xmlns:xlink="http://www.w3.org/1999/xlink" x="0px" y="0px"
	 viewBox="0 0 19 22" style="enable-background:new 0 0 19 22;" xml:space="preserve">
<style type="text/css">
	.st0{fill:#1A1C43;}
	.st1{fill:#D22027;}
</style>
<path class="st0" d="M16.6,12.5V6.2L8.3,1.4L0,6.3v9.3l8.3,4.7l3.3-1.7c0.7,1,1.9,1.7,3.3,1.7c2.2,0,4.1-1.8,4.1-4.1
	C18.9,14.6,18,13.2,16.6,12.5z M8.3,2.2l7.2,4.2l-3.5,2L5.4,3.9L8.3,2.2z M8.3,10.5L1.2,6.4l3.5-2.1l6.6,4.5L8.3,10.5z M0.7,6.9
	L8,11.1v8.3l-7.3-4.1C0.7,15.3,0.7,6.9,0.7,6.9z M8.7,19.4V11l2.9-1.6v2.8l0.7-0.4V9l3.5-2v5.3c-0.3-0.1-0.6-0.1-1-0.1
	c-2.2,0-4.1,1.8-4.1,4.1c0,0.7,0.2,1.3,0.5,1.8L8.7,19.4z M14.9,19.6c-1.9,0-3.4-1.5-3.4-3.4s1.5-3.4,3.4-3.4s3.4,1.5,3.4,3.4
	S16.7,19.6,14.9,19.6z"/>
<g>
	<polygon class="st1" points="14,18.3 12.3,16.6 12.8,16.1 14,17.3 16.7,14.6 17.2,15.1 	"/>
</g>
</svg>
