<?xml version="1.0" encoding="utf-8"?>
<!-- Generator: Adobe Illustrator 24.3.0, SVG Export Plug-In . SVG Version: 6.00 Build 0)  -->
<svg version="1.1" id="Layer_1" xmlns="http://www.w3.org/2000/svg" xmlns:xlink="http://www.w3.org/1999/xlink" x="0px" y="0px"
	 viewBox="0 0 32 41" style="enable-background:new 0 0 32 41;" xml:space="preserve">
<style type="text/css">
	.st0{fill:none;stroke:#1A1C43;stroke-width:1.4;}
	.st1{fill:#FFFFFF;}
	.st2{fill-rule:evenodd;clip-rule:evenodd;fill:#1A1C43;}
	.st3{fill-rule:evenodd;clip-rule:evenodd;fill:none;stroke:#D22027;stroke-width:0.6;stroke-miterlimit:10;}
	.st4{fill-rule:evenodd;clip-rule:evenodd;fill:#D22027;}
	.st5{fill:none;stroke:#FFFFFF;stroke-width:0.3;stroke-miterlimit:10;}
</style>
<circle class="st0" cx="16" cy="10.8" r="7.1"/>
<path class="st0" d="M17.9,20.3h-4.7c-5.5,0-9.9,4.4-9.9,9.9v0c0,0.6,0.4,1,1,1h22.5c0.6,0,1-0.4,1-1v0
	C27.8,24.7,23.4,20.3,17.9,20.3z"/>
<path class="st1" d="M22.4,31.5c0,3.5-2.9,6.4-6.4,6.4S9.6,35,9.6,31.5s2.9-6.4,6.4-6.4S22.4,28,22.4,31.5z"/>
<path class="st2" d="M23.2,31.5c0,4-3.2,7.2-7.2,7.2s-7.2-3.2-7.2-7.2s3.2-7.2,7.2-7.2S23.2,27.5,23.2,31.5z M16,37.9
	c3.5,0,6.4-2.9,6.4-6.4s-2.9-6.4-6.4-6.4S9.6,28,9.6,31.5S12.5,37.9,16,37.9z"/>
<g>
	<g>
		<path class="st3" d="M12.5,31.5c0-1.9,1.6-3.5,3.5-3.5c1.6,0,2.9,1,3.3,2.4"/>
		<polygon class="st4" points="17.9,30.3 20,29.3 19.5,30.9 		"/>
		<line class="st5" x1="12" y1="30.3" x2="13.7" y2="30.3"/>
		<line class="st5" x1="12.5" y1="29.3" x2="14.1" y2="29.3"/>
	</g>
	<g>
		<path class="st3" d="M19.6,31.5c0,1.9-1.6,3.5-3.5,3.5c-1.6,0-2.9-1-3.3-2.4"/>
		<polygon class="st4" points="14.2,32.8 12.1,33.8 12.5,32.2 		"/>
		<line class="st5" x1="20.1" y1="32.7" x2="18.4" y2="32.7"/>
		<line class="st5" x1="19.6" y1="33.7" x2="18" y2="33.7"/>
	</g>
</g>
</svg>
