<?xml version="1.0" encoding="utf-8"?>
<!-- Generator: Adobe Illustrator 24.3.0, SVG Export Plug-In . SVG Version: 6.00 Build 0)  -->
<svg version="1.1" id="Layer_1" xmlns="http://www.w3.org/2000/svg" xmlns:xlink="http://www.w3.org/1999/xlink" x="0px" y="0px"
	 viewBox="0 0 32 41" style="enable-background:new 0 0 32 41;" xml:space="preserve">
<style type="text/css">
	.st0{fill:none;stroke:#1A1C43;stroke-width:1.4;}
	.st1{fill:#FFFFFF;}
	.st2{fill-rule:evenodd;clip-rule:evenodd;fill:#1A1C43;}
	.st3{fill-rule:evenodd;clip-rule:evenodd;fill:#D22027;}
</style>
<circle class="st0" cx="16.5" cy="10.5" r="7.1"/>
<path class="st0" d="M18.3,20h-4.7c-5.5,0-9.9,4.4-9.9,9.9v0c0,0.6,0.4,1,1,1h22.5c0.6,0,1-0.4,1-1v0C28.3,24.4,23.8,20,18.3,20z"/>
<path class="st1" d="M22.9,31.2c0,3.5-2.9,6.4-6.4,6.4s-6.4-2.9-6.4-6.4s2.9-6.4,6.4-6.4S22.9,27.6,22.9,31.2z"/>
<path class="st2" d="M23.7,31.2c0,4-3.2,7.2-7.2,7.2s-7.2-3.2-7.2-7.2s3.2-7.2,7.2-7.2S23.7,27.2,23.7,31.2z M16.5,37.6
	c3.5,0,6.4-2.9,6.4-6.4s-2.9-6.4-6.4-6.4s-6.4,2.9-6.4,6.4S12.9,37.6,16.5,37.6z"/>
<path class="st3" d="M19.1,33.9c-0.2,0.2-0.4,0.2-0.6,0l-4.8-4.8c-0.2-0.2-0.2-0.4,0-0.6c0.2-0.2,0.4-0.2,0.6,0l4.8,4.8
	C19.3,33.5,19.3,33.8,19.1,33.9z"/>
<path class="st3" d="M19.1,28.5c0.2,0.2,0.2,0.4,0,0.6l-4.8,4.8c-0.2,0.2-0.4,0.2-0.6,0c-0.2-0.2-0.2-0.4,0-0.6l4.8-4.8
	C18.7,28.3,19,28.3,19.1,28.5z"/>
</svg>
