<?xml version="1.0" encoding="utf-8"?>
<!-- Generator: Adobe Illustrator 24.3.0, SVG Export Plug-In . SVG Version: 6.00 Build 0)  -->
<svg version="1.1" id="Layer_1" xmlns="http://www.w3.org/2000/svg" xmlns:xlink="http://www.w3.org/1999/xlink" x="0px" y="0px"
	 viewBox="0 0 19 22" style="enable-background:new 0 0 19 22;" xml:space="preserve">
<style type="text/css">
	.st0{fill:#1A1C43;}
	.st1{fill:#F1F1F1;}
	.st2{fill:#D22027;}
</style>
<g>
	<g>
		<path class="st0" d="M9.4,11.3c-2.7,0-4.9-2.2-4.9-4.9s2.1-5,4.9-5s4.9,2.2,4.9,4.9S12.1,11.3,9.4,11.3z M9.4,2.4
			c-2.2,0-4,1.8-4,4s1.8,4,4,4s4-1.8,4-4S11.5,2.4,9.4,2.4z"/>
	</g>
	<g>
		<path class="st0" d="M17.6,20.5H1v-1.9c0-0.1,0-2.5,2-4.4c1.5-1.5,3.8-2.2,6.7-2.2c2.7,0,4.7,0.8,6.1,2.4c2.2,2.4,1.9,5.6,1.9,5.7
			L17.6,20.5z M1.9,19.7h14.9c0-0.9-0.2-3-1.7-4.6c-1.2-1.3-3.1-2-5.5-2.1c-2.6,0-4.7,0.6-6,1.9c-1.6,1.6-1.7,3.7-1.7,3.8V19.7z"/>
	</g>
</g>
<g>
	<circle class="st1" cx="5" cy="4.5" r="4.5"/>
	<g>
		<path class="st2" d="M7.6,4.9h-5c-0.2,0-0.4-0.2-0.4-0.4s0.2-0.4,0.4-0.4h5C7.8,4.1,8,4.3,8,4.5S7.8,4.9,7.6,4.9z"/>
	</g>
	<g>
		<path class="st2" d="M5.1,7.4C4.8,7.4,4.7,7.2,4.7,7V2c0-0.2,0.2-0.4,0.4-0.4S5.5,1.8,5.5,2v5C5.5,7.2,5.3,7.4,5.1,7.4z"/>
	</g>
</g>
</svg>
