<?xml version="1.0" encoding="utf-8"?>
<!-- Generator: Adobe Illustrator 24.3.0, SVG Export Plug-In . SVG Version: 6.00 Build 0)  -->
<svg version="1.1" id="Layer_1" xmlns="http://www.w3.org/2000/svg" xmlns:xlink="http://www.w3.org/1999/xlink" x="0px" y="0px"
	 viewBox="0 0 32 41" style="enable-background:new 0 0 32 41;" xml:space="preserve">
<style type="text/css">
	.st0{fill:none;stroke:#1A1C43;stroke-width:1.4;}
	.st1{fill:#FFFFFF;}
	.st2{fill-rule:evenodd;clip-rule:evenodd;fill:#1A1C43;}
	.st3{fill-rule:evenodd;clip-rule:evenodd;fill:#D22027;}
</style>
<circle class="st0" cx="16" cy="10.8" r="7.1"/>
<path class="st0" d="M17.9,20.3h-4.7c-5.5,0-9.9,4.4-9.9,9.9v0c0,0.6,0.4,1,1,1h22.5c0.6,0,1-0.4,1-1v0
	C27.8,24.7,23.4,20.3,17.9,20.3z"/>
<path class="st1" d="M22.4,31.5c0,3.5-2.9,6.4-6.4,6.4S9.6,35,9.6,31.5s2.9-6.4,6.4-6.4S22.4,28,22.4,31.5z"/>
<path class="st2" d="M23.2,31.5c0,4-3.2,7.2-7.2,7.2s-7.2-3.2-7.2-7.2s3.2-7.2,7.2-7.2S23.2,27.5,23.2,31.5z M16,37.9
	c3.5,0,6.4-2.9,6.4-6.4s-2.9-6.4-6.4-6.4S9.6,28,9.6,31.5S12.5,37.9,16,37.9z"/>
<path class="st3" d="M18.6,31.8c0,0.1,0,0.2,0,0.2c0,0.1,0,0.1,0,0.1c0,0,0.1,0,0.3,0c0.1,0,0.3,0,0.3,0c0,0,0,0,0.1,0
	c0-0.1,0-0.3,0-0.4l0-0.1H19h-0.3L18.6,31.8z M13,33.4v0.9l0.4-0.3c0.2-0.2,0.4-0.3,0.4-0.3s0.1,0.1,0.1,0.1
	c0.3,0.3,0.7,0.7,1.2,0.8c1,0.4,2.2,0.2,3-0.4c0.2-0.1,0.4-0.4,0.4-0.4c0,0-0.1-0.1-0.3-0.2l-0.3-0.2l-0.1,0.1
	c-0.1,0.1-0.4,0.3-0.5,0.3c-0.4,0.2-0.9,0.3-1.3,0.3c-0.4,0-0.6-0.1-0.9-0.3c-0.3-0.2-0.6-0.4-0.8-0.6l-0.1-0.1l0.3-0.3
	c0.2-0.2,0.3-0.3,0.3-0.3c0,0-0.4,0-0.9,0H13V33.4z M18.4,32.7c0,0.1-0.1,0.2-0.1,0.2c0,0.1-0.1,0.1-0.1,0.1c0,0,0.1,0,0.2,0.1
	c0.1,0,0.2,0.1,0.3,0.1c0.1,0,0.1,0.1,0.1,0.1c0,0,0.4-0.7,0.4-0.7c0,0-0.3,0-0.5,0l-0.2,0L18.4,32.7z"/>
<path class="st3" d="M15.8,28.5c-0.6,0.1-1.2,0.3-1.7,0.7c-0.2,0.1-0.3,0.3-0.3,0.3c0,0,0.1,0.1,0.3,0.2l0.3,0.2l0.1-0.1
	c0.7-0.6,1.6-0.7,2.4-0.5c0.2,0.1,0.5,0.2,0.7,0.3c0.2,0.1,0.4,0.3,0.5,0.4l0.1,0.1l-0.4,0.4l-0.4,0.4h0.9h0.9v-0.9v-0.9l-0.4,0.4
	l-0.4,0.4l-0.1-0.1C17.8,28.8,16.8,28.4,15.8,28.5z M13.4,30c-0.1,0.2-0.3,0.6-0.3,0.6c0,0,0.3,0,0.5,0l0.2,0l0.1-0.1
	c0-0.1,0.1-0.2,0.1-0.2s0.1-0.1,0.1-0.1s-0.1-0.1-0.3-0.2c-0.1-0.1-0.3-0.1-0.3-0.1C13.5,29.9,13.5,29.9,13.4,30z M13,31.1
	c0,0.1,0,0.3,0,0.4l0,0.1h0.3h0.3l0-0.2c0-0.1,0-0.2,0-0.2l0-0.1l-0.1,0c0,0-0.2,0-0.3,0C13.2,31.1,13.1,31.1,13,31.1
	C13,31.1,13,31.1,13,31.1z"/>
</svg>
