<?xml version="1.0" encoding="utf-8"?>
<!-- Generator: Adobe Illustrator 24.3.0, SVG Export Plug-In . SVG Version: 6.00 Build 0)  -->
<svg version="1.1" id="Layer_1" xmlns="http://www.w3.org/2000/svg" xmlns:xlink="http://www.w3.org/1999/xlink" x="0px" y="0px"
	 viewBox="0 0 19 22" style="enable-background:new 0 0 19 22;" xml:space="preserve">
<style type="text/css">
	.st0{fill-rule:evenodd;clip-rule:evenodd;fill:#1A1C43;}
	.st1{fill:#D22027;}
</style>
<g>
	<path class="st0" d="M3.4,1.1C2.7,1.3,2.2,1.8,1.8,2.4C1.5,3,1.5,2.4,1.5,11s0,7.9,0.3,8.6c0.3,0.5,0.6,0.9,1.2,1.2
		C3.6,21,3.2,21,9.5,21c4.9,0,5.6,0,5.9-0.1c1-0.2,1.8-1,2-1.9c0.1-0.3,0.1-0.6,0.1-6.4V6.5l-0.1-0.1c-0.2-0.2-5-5.3-5.1-5.3
		s-1.5,0-4.3,0C3.9,1,3.6,1,3.4,1.1z M11.6,3.6c0,1.8,0,2,0.2,2.4C12,6.5,12.4,6.8,13,7l0.3,0.1h1.6h1.6v5.7c0,3.7,0,5.7,0,5.9
		c-0.1,0.6-0.6,1.1-1.2,1.3c-0.2,0-0.9,0-5.8,0c-5.4,0-5.6,0-5.8-0.1c-0.5-0.2-0.9-0.6-1.1-1.1c-0.1-0.2-0.1-0.4-0.1-7.9
		s0-7.6,0.1-7.9c0.2-0.4,0.6-0.8,1.1-1c0.2-0.1,0.4-0.1,4-0.1h3.8L11.6,3.6z M14.4,4.6l1.4,1.5h-1.2c-1.2,0-1.2,0-1.4-0.1
		c-0.3-0.1-0.5-0.3-0.6-0.5S12.5,5.3,12.5,4V2.7l0.2,0.2C12.9,3.1,13.6,3.8,14.4,4.6z"/>
</g>
<g>
	<g>
		<path class="st1" d="M13.6,10.7H5.4c-0.2,0-0.4-0.2-0.4-0.4s0.2-0.4,0.4-0.4h8.1c0.2,0,0.4,0.2,0.4,0.4S13.8,10.7,13.6,10.7z"/>
	</g>
	<g>
		<path class="st1" d="M13.6,13.4H5.4c-0.2,0-0.4-0.2-0.4-0.4s0.2-0.4,0.4-0.4h8.1c0.2,0,0.4,0.2,0.4,0.4S13.8,13.4,13.6,13.4z"/>
	</g>
	<g>
		<path class="st1" d="M13.6,16.1H5.4c-0.2,0-0.4-0.2-0.4-0.4s0.2-0.4,0.4-0.4h8.1c0.2,0,0.4,0.2,0.4,0.4S13.8,16.1,13.6,16.1z"/>
	</g>
</g>
</svg>
