<?xml version="1.0" encoding="utf-8"?>
<!-- Generator: Adobe Illustrator 24.3.0, SVG Export Plug-In . SVG Version: 6.00 Build 0)  -->
<svg version="1.1" id="Layer_1" xmlns="http://www.w3.org/2000/svg" xmlns:xlink="http://www.w3.org/1999/xlink" x="0px" y="0px"
	 viewBox="0 0 19 22" style="enable-background:new 0 0 19 22;" xml:space="preserve">
<style type="text/css">
	.st0{fill-rule:evenodd;clip-rule:evenodd;fill:#FFFFFF;}
	.st1{fill:#D22027;}
	.st2{fill:#F1F1F1;}
</style>
<g>
	<path class="st0" d="M3.9,2C3.3,2.2,2.6,2.7,2.3,3.3S2,3.3,2,11.9s0,7.9,0.3,8.6c0.3,0.5,0.6,0.9,1.2,1.2c0.7,0.2,0.2,0.2,6.5,0.2
		c4.9,0,5.6,0,5.9-0.1c1-0.2,1.8-1,2-1.9c0.1-0.3,0.1-0.6,0.1-6.4V7.4l-0.1-0.1c-0.2-0.2-5-5.3-5.1-5.3c-0.2-0.1-1.5-0.1-4.4-0.1
		C4.4,1.9,4.2,1.9,3.9,2z M12,4.5c0,1.8,0,2,0.2,2.4c0.2,0.5,0.6,0.8,1.2,1L13.7,8h1.6h1.6v5.7c0,3.7,0,5.7,0,5.9
		c-0.1,0.6-0.6,1.1-1.2,1.3c-0.2,0-0.9,0-5.8,0c-5.4,0-5.6,0-5.8-0.1c-0.5-0.2-0.9-0.6-1.1-1.1c-0.1-0.2-0.1-0.4-0.1-7.9
		s0-7.6,0.1-7.9c0.2-0.4,0.6-0.8,1.1-1c0.2-0.1,0.4-0.1,4-0.1h3.8L12,4.5z M14.9,5.5L16.3,7h-1.2c-1.2,0-1.2,0-1.4-0.1
		c-0.3-0.1-0.5-0.3-0.6-0.5S13,6.2,13,4.9V3.6l0.2,0.2C13.4,4,14.1,4.7,14.9,5.5z"/>
	<path class="st1" d="M13.8,11.4h-8c-0.2,0-0.4-0.2-0.4-0.4l0,0c0-0.2,0.2-0.4,0.4-0.4h8c0.2,0,0.4,0.2,0.4,0.4l0,0
		C14.2,11.2,14,11.4,13.8,11.4z"/>
	<path class="st1" d="M13.8,14.1h-8c-0.2,0-0.4-0.2-0.4-0.4l0,0c0-0.2,0.2-0.4,0.4-0.4h8c0.2,0,0.4,0.2,0.4,0.4l0,0
		C14.2,14,14,14.1,13.8,14.1z"/>
	<path class="st1" d="M13.8,16.9h-8c-0.2,0-0.4-0.2-0.4-0.4l0,0c0-0.2,0.2-0.4,0.4-0.4h8c0.2,0,0.4,0.2,0.4,0.4l0,0
		C14.2,16.7,14,16.9,13.8,16.9z"/>
</g>
<g>
	<circle class="st2" cx="4.5" cy="4.5" r="4.5"/>
	<g>
		<path class="st1" d="M4.3,7.8V6.9C3.8,6.9,3.3,6.8,3,6.6L3.2,6c0.3,0.2,0.7,0.3,1.2,0.3c0.6,0,1-0.3,1-0.8c0-0.4-0.3-0.7-0.9-1
			C3.6,4.3,3.1,4,3.1,3.3c0-0.7,0.5-1.2,1.2-1.3V1.1h0.5v0.8c0.5,0,0.8,0.1,1,0.3L5.7,2.7c-0.2-0.1-0.5-0.3-1-0.3
			C4,2.5,3.8,2.8,3.8,3.2c0,0.4,0.3,0.6,1,0.9c0.8,0.3,1.2,0.8,1.2,1.5c0,0.6-0.4,1.2-1.3,1.4v0.8H4.3z"/>
	</g>
</g>
</svg>
