<?xml version="1.0" encoding="utf-8"?>
<!-- Generator: Adobe Illustrator 24.3.0, SVG Export Plug-In . SVG Version: 6.00 Build 0)  -->
<svg version="1.1" id="Layer_1" xmlns="http://www.w3.org/2000/svg" xmlns:xlink="http://www.w3.org/1999/xlink" x="0px" y="0px"
	 viewBox="0 0 27 27" style="enable-background:new 0 0 27 27;" xml:space="preserve">
<style type="text/css">
	.st0{fill:#1A1C43;stroke:#FFFFFF;stroke-width:0.7;stroke-miterlimit:10;}
</style>
<g>
	<path class="st0" d="M11.9,13.5c-0.6-0.6-1.1-1.1-1.6-1.6c-1.5-1.5-3-3-4.6-4.6C5.1,6.8,5.2,6,5.8,5.5c0.4-0.3,1-0.3,1.5,0
		c0.1,0.1,0.1,0.1,0.2,0.2c2.3,2.3,4.5,4.5,6.8,6.8c0.6,0.6,0.6,1.3,0,1.9c-2.3,2.3-4.5,4.5-6.8,6.8c-0.4,0.4-0.8,0.5-1.3,0.4
		c-0.8-0.2-1.1-1.2-0.6-1.8c0.1-0.1,0.2-0.2,0.3-0.3c1.9-1.9,3.9-3.9,5.8-5.8C11.7,13.7,11.8,13.6,11.9,13.5z"/>
	<path class="st0" d="M18.9,13.5c-0.5-0.5-1.1-1.1-1.6-1.6c-1.5-1.5-3-3-4.5-4.5c-0.3-0.3-0.5-0.7-0.3-1.2c0.1-0.4,0.4-0.7,0.9-0.8
		c0.4-0.1,0.8,0,1.1,0.3c0.9,0.9,1.7,1.7,2.6,2.6c1.4,1.4,2.8,2.8,4.2,4.2c0.6,0.6,0.6,1.3,0,1.9c-2.3,2.3-4.6,4.5-6.8,6.8
		c-0.7,0.7-1.8,0.4-2-0.4c-0.1-0.5,0-0.9,0.4-1.2c0.9-0.9,1.8-1.8,2.7-2.7c1.1-1.1,2.2-2.1,3.2-3.2C18.8,13.6,18.8,13.6,18.9,13.5z"
		/>
</g>
</svg>
