<svg width="22" height="26" viewBox="0 0 22 26" fill="none" xmlns="http://www.w3.org/2000/svg">
<g clip-path="url(#clip0_1825_3202)">
<path d="M0 12.9161C0 9.39355 0 5.87097 0 2.18065C0 1.17419 0.643766 0.335484 1.60941 0C1.77036 0 1.9313 0 2.09224 0C7.56425 0 13.3197 0.928571 18.7917 0.928571C19.9183 0.928571 20.9224 0.83871 20.9224 2.34839C20.9224 9.39355 20.9224 16.6065 20.9224 23.6516C20.9224 24.4903 20.6005 25.1613 19.7958 25.6645C18.9911 26.1677 20.0547 25.5747 19.25 25.0714C16.9968 23.5618 13.8725 19.6168 11.4583 18.1071C11.1365 17.9394 7.4383 18.0323 8.70833 19.5C6.45515 21.0097 5.31107 23.9871 3.05789 25.4968C2.09224 26.1677 0.804707 25.8323 0.160941 24.8258C0 24.4903 0 24.1548 0 23.6516C0 20.129 0 16.6065 0 12.9161Z" fill="#1A1C43"/>
<path d="M11 18.2584C10.708 18.5506 10.4159 18.794 10.1239 19.0861C7.93363 21.1798 5.79204 23.2734 3.60177 25.367C2.87168 26.0974 1.9469 26.2434 1.0708 25.7566C0.389381 25.4157 0.0486726 24.8315 0 24.0524C0 23.9551 0 23.809 0 23.7116C0 16.5056 0 9.29963 0 2.09363C0 0.925094 0.876106 0.0486891 2.04425 0C2.09292 0 2.14159 0 2.19027 0C8.07965 0 13.969 0 19.8584 0C20.5885 0 21.1726 0.243446 21.6106 0.827715C21.9027 1.16854 22 1.60674 22 2.04494C22 9.34831 22 16.6517 22 23.9064C22 24.7828 21.5619 25.4644 20.7832 25.8052C19.9071 26.1461 19.1283 26 18.4469 25.367C17.7168 24.6854 16.9867 23.9551 16.2566 23.2247C14.5531 21.618 12.8982 19.9625 11.1947 18.3558C11.0973 18.3558 11.0487 18.3071 11 18.2584ZM19.615 23.2247C19.615 16.2622 19.615 9.34831 19.615 2.38577C13.8717 2.38577 8.12832 2.38577 2.38496 2.38577C2.38496 9.34831 2.38496 16.2622 2.38496 23.2247C5.25664 20.4494 8.12832 17.7228 11 14.9476C13.8717 17.7228 16.7434 20.4494 19.615 23.2247Z" fill="#1A1C43"/>
</g>
<defs>
<clipPath id="clip0_1825_3202">
<rect width="22" height="26" fill="white"/>
</clipPath>
</defs>
</svg>
