<?xml version="1.0" encoding="utf-8"?>
<!-- Generator: Adobe Illustrator 24.3.0, SVG Export Plug-In . SVG Version: 6.00 Build 0)  -->
<svg version="1.1" id="Layer_1" xmlns="http://www.w3.org/2000/svg" xmlns:xlink="http://www.w3.org/1999/xlink" x="0px" y="0px"
	 viewBox="0 0 6 6" style="enable-background:new 0 0 6 6;" xml:space="preserve">
<style type="text/css">
	.st0{fill-rule:evenodd;clip-rule:evenodd;fill:#FFFFFF;}
</style>
<g>
	<path class="st0" d="M5.9,5.9C5.7,6,5.4,6,5.2,5.9L0.1,0.8C0,0.6,0,0.3,0.1,0.1C0.3,0,0.6,0,0.8,0.1l5.1,5.1C6,5.4,6,5.7,5.9,5.9z"
		/>
	<path class="st0" d="M5.9,0.1C6,0.3,6,0.6,5.9,0.8L0.8,5.9C0.6,6,0.3,6,0.1,5.9C0,5.7,0,5.4,0.1,5.2l5.1-5.1C5.4,0,5.7,0,5.9,0.1z"
		/>
</g>
</svg>
