<svg width="11" height="13" viewBox="0 0 11 13" fill="none" xmlns="http://www.w3.org/2000/svg">
<path fill-rule="evenodd" clip-rule="evenodd" d="M4.8112 0.0405852C3.47241 0.276042 2.43224 1.23613 2.11034 2.53349C2.06021 2.7355 2.05464 2.84499 2.04487 3.81449L2.03422 4.8746H1.74201C1.56305 4.8746 1.39016 4.88973 1.296 4.91365C0.87746 5.01994 0.520197 5.36828 0.411187 5.77638C0.37624 5.90722 0.371136 6.30973 0.371136 8.93726C0.371136 12.2504 0.364131 12.0996 0.531187 12.3843C0.633217 12.5582 0.824153 12.7444 1.00251 12.8439C1.29785 13.0086 1.05428 12.9999 5.37109 12.9999C9.68791 12.9999 9.44434 13.0086 9.73968 12.8439C9.91804 12.7444 10.109 12.5582 10.211 12.3843C10.3781 12.0996 10.3711 12.2504 10.3711 8.93726C10.3711 6.30973 10.3659 5.90722 10.331 5.77638C10.222 5.36828 9.86473 5.01994 9.44619 4.91365C9.35174 4.88965 9.17895 4.8746 8.99841 4.8746H8.7044V3.91304C8.7044 2.89626 8.68898 2.71369 8.57013 2.32274C8.26081 1.30542 7.408 0.459674 6.37369 0.144513C5.90645 0.00216765 5.27034 -0.0401602 4.8112 0.0405852ZM5.91796 1.15535C6.64379 1.33932 7.24621 1.89397 7.47545 2.58935C7.57287 2.88475 7.58462 3.03294 7.58462 3.96517V4.8746H5.36945H3.15429L3.16408 3.87797C3.1751 2.75627 3.1778 2.73659 3.37772 2.32274C3.67613 1.70506 4.2441 1.27459 4.95443 1.12778C5.17297 1.08261 5.68922 1.09739 5.91796 1.15535Z" fill="#1A1C43"/>
</svg>
