<svg width="20" height="20" viewBox="0 0 20 20" fill="none" xmlns="http://www.w3.org/2000/svg">
<path d="M11 2H4C2.89543 2 2 2.89543 2 4V16C2 17.1046 2.89543 18 4 18H11" stroke="black" stroke-linecap="round"/>
<path d="M8 9.5C7.72386 9.5 7.5 9.72386 7.5 10C7.5 10.2761 7.72386 10.5 8 10.5V9.5ZM18.3536 10.3536C18.5488 10.1583 18.5488 9.84171 18.3536 9.64645L15.1716 6.46447C14.9763 6.2692 14.6597 6.2692 14.4645 6.46447C14.2692 6.65973 14.2692 6.97631 14.4645 7.17157L17.2929 10L14.4645 12.8284C14.2692 13.0237 14.2692 13.3403 14.4645 13.5355C14.6597 13.7308 14.9763 13.7308 15.1716 13.5355L18.3536 10.3536ZM8 10.5H18V9.5H8V10.5Z" fill="black"/>
</svg>
