<svg width="150" height="150" viewBox="0 0 150 150" fill="none" xmlns="http://www.w3.org/2000/svg">
<circle cx="50.5" cy="50.5" r="50.5" transform="matrix(-1 0 0 1 125 25)" fill="#1A1C43"/>
<circle opacity="0.5" cx="55.5" cy="55.5" r="54" transform="matrix(-1 0 0 1 130 20)" stroke="#1A1C43" stroke-width="3"/>
<path d="M68.9267 98L68.9173 98C67.9071 98.0019 66.9198 97.6696 66.1043 97.0473L66.0411 96.999L50.8719 85.176C50.8717 85.1758 50.8715 85.1757 50.8713 85.1755C50.3767 84.7896 49.9594 84.3066 49.6447 83.7528C49.3299 83.1986 49.1246 82.5851 49.0416 81.9472C48.9587 81.3094 49 80.6612 49.163 80.0402C49.326 79.4193 49.607 78.8391 49.9884 78.3323C50.3698 77.8256 50.8438 77.4026 51.3819 77.0858C51.92 76.7691 52.5123 76.5643 53.1251 76.4817L52.858 74.4996L53.1251 76.4817C53.7378 76.3991 54.3606 76.4402 54.9585 76.6028L55.4834 74.6729L54.9585 76.6028C55.5562 76.7653 56.1186 77.0466 56.6132 77.4323C56.6134 77.4325 56.6136 77.4326 56.6138 77.4328L66.4438 85.1058L68.0477 86.3578L69.2719 84.7326L92.5031 53.8908L92.5032 53.8907C92.8847 53.3842 93.3588 52.9613 93.897 52.6447C94.4352 52.3281 95.0276 52.1236 95.6404 52.0412C96.2531 51.9589 96.8759 52.0001 97.4737 52.163C98.0715 52.3258 98.6341 52.6075 99.1287 52.9936L100.196 51.6265L100.199 51.6292L99.1307 52.9952C100.129 53.7765 100.791 54.9367 100.959 56.2264C101.126 57.516 100.783 58.8164 100.013 59.8414C100.013 59.8417 100.012 59.842 100.012 59.8423L72.6902 96.1151C72.6898 96.1155 72.6895 96.116 72.6891 96.1165C72.2417 96.7079 71.6689 97.1834 71.0171 97.5089C70.3649 97.8346 69.6498 98.002 68.9267 98Z" fill="#F2F2F2" stroke="#1A1C43" stroke-width="4"/>
<circle cx="51.119" cy="19.1004" r="5.9129" fill="#1A1C43"/>
<circle cx="30.1966" cy="16.3714" r="3.18387" fill="#1A1C43"/>
<circle cx="23.8294" cy="40.9319" r="3.18387" fill="#1A1C43"/>
<circle cx="11.5484" cy="73.2261" r="4.54839" fill="#1A1C43"/>
<circle cx="13.8225" cy="113.707" r="3.18387" fill="#1A1C43"/>
<circle cx="27.9224" cy="134.173" r="4.54839" fill="#1A1C43"/>
<circle cx="57.0322" cy="136.903" r="1.81935" fill="#1A1C43"/>
<circle cx="81.1385" cy="141.906" r="4.09355" fill="#1A1C43"/>
<circle cx="101.606" cy="135.993" r="2.72903" fill="#1A1C43"/>
<circle cx="126.623" cy="125.533" r="4.09355" fill="#1A1C43"/>
<circle cx="132.99" cy="106.428" r="2.27419" fill="#1A1C43"/>
<circle cx="141.178" cy="89.1453" r="2.27419" fill="#1A1C43"/>
<circle cx="138.903" cy="55.0328" r="4.54839" fill="#1A1C43"/>
<circle cx="126.168" cy="49.5747" r="2.72903" fill="#1A1C43"/>
<circle cx="105.246" cy="25.0122" r="2.72903" fill="#1A1C43"/>
<circle cx="79.7742" cy="7.72903" r="2.72903" fill="#1A1C43"/>
<circle cx="122.529" cy="18.646" r="4.54839" fill="#1A1C43"/>
</svg>
