<?xml version="1.0" encoding="utf-8"?>
<!-- Generator: Adobe Illustrator 24.3.0, SVG Export Plug-In . SVG Version: 6.00 Build 0)  -->
<svg version="1.1" id="Layer_1" xmlns="http://www.w3.org/2000/svg" xmlns:xlink="http://www.w3.org/1999/xlink" x="0px" y="0px"
	 viewBox="0 0 32 40" style="enable-background:new 0 0 32 40;" xml:space="preserve">
<style type="text/css">
	.st0{fill-rule:evenodd;clip-rule:evenodd;fill:#1A1C43;}
	.st1{fill:#D22027;}
</style>
<path class="st0" d="M6.3,4.1c-1.1,0.4-2,1.1-2.5,2.1c-0.5,1-0.5,0-0.5,13.7c0,13.7,0,12.7,0.5,13.7c0.4,0.8,1,1.4,1.9,1.9
	C6.6,36,6,36,16,36c7.9,0,9,0,9.4-0.1c1.6-0.3,2.9-1.6,3.3-3.1c0.1-0.4,0.1-0.9,0.1-10.2v-9.8l-0.2-0.2c-0.3-0.4-8-8.4-8.1-8.5
	C20.3,4,18,4,13.5,4C7.1,4,6.6,4,6.3,4.1z M19.3,8.1c0,2.9,0,3.1,0.4,3.8c0.4,0.7,1,1.3,1.8,1.6l0.4,0.2l2.6,0l2.6,0v9.1
	c0,5.9,0,9.2-0.1,9.4c-0.2,1-0.9,1.8-1.9,2.1c-0.3,0.1-1.4,0.1-9.2,0.1c-8.7,0-8.9,0-9.3-0.1c-0.8-0.2-1.5-0.9-1.7-1.7
	C4.8,32.2,4.8,32,4.8,20c0-12,0-12.2,0.1-12.6c0.2-0.8,0.9-1.5,1.7-1.7c0.4-0.1,0.7-0.1,6.5-0.1l6.1,0L19.3,8.1z M23.8,9.8l2.2,2.3
	l-1.9,0c-1.9,0-1.9,0-2.2-0.1c-0.4-0.2-0.7-0.5-0.9-0.8c-0.2-0.3-0.2-0.3-0.2-2.4l0-2.1l0.4,0.4C21.4,7.3,22.6,8.5,23.8,9.8z"/>
<g>
	<g>
		<path class="st1" d="M22.5,17.4H9.7c-0.3,0-0.6-0.3-0.6-0.6c0-0.3,0.3-0.6,0.6-0.6h12.7c0.3,0,0.6,0.3,0.6,0.6
			C23,17.1,22.8,17.4,22.5,17.4z"/>
	</g>
	<g>
		<path class="st1" d="M22.5,21.6H9.7C9.4,21.6,9,21.3,9,21c0-0.3,0.3-0.6,0.6-0.6h12.7c0.3,0,0.6,0.3,0.6,0.6
			C23,21.3,22.8,21.6,22.5,21.6z"/>
	</g>
	<g>
		<path class="st1" d="M22.5,25.8H9.7c-0.3,0-0.6-0.3-0.6-0.6c0-0.3,0.3-0.6,0.6-0.6h12.7c0.3,0,0.6,0.3,0.6,0.6
			C23,25.5,22.8,25.8,22.5,25.8z"/>
	</g>
	<g>
		<path class="st1" d="M22.5,30.1H9.7c-0.3,0-0.6-0.3-0.6-0.6c0-0.3,0.3-0.6,0.6-0.6h12.7c0.3,0,0.6,0.3,0.6,0.6
			C23,29.8,22.8,30.1,22.5,30.1z"/>
	</g>
</g>
</svg>
