<svg width="12" height="13" viewBox="0 0 12 13" fill="none" xmlns="http://www.w3.org/2000/svg">
<path d="M7.17333 6.6638C7.328 6.61301 7.544 6.52413 7.65333 6.46826C7.76267 6.41239 7.93867 6.31334 8.04 6.24985C8.14133 6.18382 8.36 6.00606 8.52267 5.85114C8.72533 5.66068 8.87733 5.49053 8.99467 5.31784C9.09067 5.17816 9.21067 4.97753 9.26133 4.87341C9.312 4.76929 9.384 4.59152 9.42133 4.47978C9.45867 4.36804 9.512 4.18011 9.53867 4.06075C9.57333 3.90584 9.58667 3.72807 9.58667 3.42586C9.58667 3.12366 9.57333 2.94589 9.53867 2.79097C9.512 2.67162 9.456 2.47353 9.41333 2.34655M7.17333 6.6638L7.05421 6.28195C7.05324 6.28225 7.05227 6.28256 7.0513 6.28286M7.17333 6.6638C7.01867 6.71205 6.792 6.773 6.66667 6.79586C6.512 6.82633 6.30133 6.83903 6 6.83903C5.68 6.84157 5.49867 6.82887 5.33333 6.79586M7.17333 6.6638L7.04853 6.28377C7.04945 6.28347 7.05037 6.28316 7.0513 6.28286M7.0513 6.28286C7.1898 6.23715 7.38413 6.15662 7.47132 6.11207C7.57024 6.06152 7.73319 5.9698 7.82429 5.91297M7.0513 6.28286C6.90315 6.32895 6.69627 6.38386 6.5949 6.40235L6.5949 6.40231L6.58934 6.4034C6.47479 6.42597 6.29653 6.43903 6 6.43902L5.99683 6.43904C5.68697 6.4415 5.5375 6.42869 5.41211 6.40369M7.82429 5.91297C7.82339 5.91357 7.8225 5.91415 7.82163 5.91472L8.03999 6.24984L7.82763 5.91089C7.82653 5.91158 7.82541 5.91227 7.82429 5.91297ZM7.82429 5.91297C7.89961 5.86319 8.09568 5.70541 8.24681 5.56148L8.24873 5.55966L8.24873 5.55966C8.43811 5.38169 8.56819 5.23378 8.66381 5.09304L8.66501 5.09126C8.75384 4.96204 8.86238 4.7791 8.90166 4.69839C8.94426 4.61085 9.00979 4.44928 9.04195 4.35303C9.07546 4.25271 9.12495 4.07803 9.14829 3.97354L9.14832 3.9734C9.17314 3.86249 9.18667 3.72026 9.18667 3.42586C9.18667 3.13147 9.17314 2.98923 9.14832 2.87833L9.14829 2.87819C9.12525 2.77505 9.07401 2.59315 9.03537 2.47754M9.03537 2.47754C9.03579 2.47872 9.03621 2.47989 9.03662 2.48105L9.41333 2.34655M9.03537 2.47754C9.03497 2.47634 9.03456 2.47515 9.03417 2.47396L9.41333 2.34655M9.03537 2.47754C8.99572 2.36727 8.91952 2.19054 8.86713 2.08801M9.41333 2.34655C9.368 2.21957 9.28267 2.02149 9.22133 1.90213M9.22133 1.90213L8.86881 2.09115C8.86825 2.09011 8.86769 2.08906 8.86713 2.08801M9.22133 1.90213C9.15733 1.78277 9.048 1.59992 8.97333 1.4958C8.90133 1.39168 8.704 1.17328 8.53333 1.01328C8.36533 0.850752 8.14133 0.667904 8.04 0.601875C7.93867 0.538386 7.76267 0.439344 7.65333 0.383473C7.544 0.327603 7.33333 0.241258 7.18667 0.193006M9.22133 1.90213L8.86556 2.08495C8.86608 2.08596 8.8666 2.08698 8.86713 2.08801M8.86713 2.08801C8.80781 1.97777 8.70888 1.81341 8.64828 1.7289L8.64428 1.72334L8.64433 1.7233C8.59557 1.65279 8.42142 1.45665 8.25976 1.30511L8.25517 1.3008L8.25521 1.30077C8.09956 1.15018 7.89886 0.988082 7.82427 0.938744M7.82427 0.938744C7.8254 0.939448 7.82652 0.940147 7.82763 0.94084L8.03999 0.601894L7.82163 0.937008C7.82249 0.93757 7.82337 0.938149 7.82427 0.938744ZM7.82427 0.938744C7.73316 0.881913 7.57023 0.790207 7.47132 0.739662C7.3836 0.694837 7.19255 0.616032 7.06166 0.572972L7.18667 0.193006M7.18667 0.193006L7.06166 0.572972C6.93203 0.530325 6.70364 0.471105 6.56389 0.443486M7.18667 0.193006C7.04 0.144755 6.79467 0.0812659 6.64 0.0507912M6.56389 0.443486C6.38577 0.409631 6.25611 0.400039 5.97507 0.4M6.56389 0.443486C6.56349 0.443406 6.56308 0.443326 6.56267 0.443246L6.64 0.0507912M6.56389 0.443486C6.56431 0.443566 6.56474 0.443647 6.56516 0.443727L6.64 0.0507912M6.64 0.0507912C6.42667 0.0101582 6.26933 0 5.97333 0M5.97333 0C5.68 0.00253956 5.52267 0.0177769 5.32 0.0584099M5.97333 0V0.4C5.97391 0.4 5.97449 0.4 5.97507 0.4M5.97333 0L5.9768 0.399985C5.97622 0.39999 5.97564 0.399995 5.97507 0.4M5.32 0.0584099C5.17333 0.0888846 4.968 0.142215 4.86667 0.17523C4.76533 0.208244 4.58933 0.271733 4.48 0.319984C4.37067 0.368236 4.16 0.482516 4.01333 0.57394C3.832 0.685681 3.65333 0.830436 3.45333 1.02344C3.29067 1.17836 3.09867 1.39168 3.02667 1.4958C2.95467 1.59992 2.84267 1.78277 2.77867 1.90213M5.32 0.0584099L5.39863 0.450605C5.39909 0.450512 5.39956 0.45042 5.40002 0.450328M5.32 0.0584099L5.40137 0.450045C5.40092 0.450139 5.40047 0.450233 5.40002 0.450328M2.77867 1.90213C2.71733 2.02149 2.632 2.21957 2.58667 2.34655M2.77867 1.90213L3.13119 2.09115C3.13174 2.09012 3.1323 2.08908 3.13286 2.08804M2.77867 1.90213L3.13444 2.08495C3.13392 2.08597 3.13339 2.087 3.13286 2.08804M2.58667 2.34655C2.544 2.47353 2.488 2.67162 2.46133 2.79097C2.42667 2.94589 2.41333 3.12366 2.41333 3.42586C2.41333 3.72807 2.42667 3.90584 2.46133 4.06075C2.488 4.18011 2.544 4.38074 2.58667 4.50518M2.58667 2.34655L2.96338 2.48105C2.96379 2.47989 2.96421 2.47873 2.96463 2.47756M2.58667 2.34655L2.96583 2.47396C2.96543 2.47515 2.96503 2.47635 2.96463 2.47756M2.58667 4.50518C2.632 4.62961 2.71733 4.83024 2.77867 4.9496M2.58667 4.50518L2.96504 4.37544C2.96464 4.37425 2.96423 4.37306 2.96382 4.37185M2.58667 4.50518L2.9625 4.36826C2.96294 4.36945 2.96337 4.37065 2.96382 4.37185M2.77867 4.9496C2.84267 5.06896 2.95467 5.25181 3.02667 5.35593C3.09867 5.46005 3.29067 5.67337 3.45333 5.82829C3.648 6.01367 3.83733 6.16605 4.01333 6.27779M2.77867 4.9496L3.13444 4.76678C3.13392 4.76577 3.1334 4.76475 3.13287 4.76372M2.77867 4.9496L3.13119 4.76058C3.13175 4.76162 3.13231 4.76266 3.13287 4.76372M4.01333 6.27779C4.16 6.36921 4.37067 6.48349 4.48 6.53174C4.58933 6.58 4.776 6.64856 4.89333 6.68412C5.01067 6.71967 5.208 6.77046 5.33333 6.79586M4.01333 6.27779L4.22773 5.9401C4.22728 5.93981 4.22683 5.93953 4.22638 5.93924M4.01333 6.27779L4.22493 5.93834C4.22541 5.93864 4.22589 5.93894 4.22638 5.93924M5.33333 6.79586L5.41166 6.4036C5.41181 6.40363 5.41196 6.40366 5.41211 6.40369M5.33333 6.79586L5.41277 6.40383C5.41255 6.40378 5.41233 6.40374 5.41211 6.40369M5.41211 6.40369C5.30037 6.38101 5.1158 6.33357 5.00933 6.30131C4.90641 6.27012 4.73502 6.20707 4.6415 6.1658C4.55493 6.12759 4.36252 6.02399 4.22638 5.93924M4.22638 5.93924C4.07834 5.84509 3.90997 5.71079 3.72919 5.53862C3.57462 5.39142 3.40505 5.19983 3.35567 5.12842C3.29288 5.03762 3.19014 4.87005 3.13287 4.76372M3.13287 4.76372C3.08113 4.66241 3.00452 4.48292 2.96382 4.37185M2.96382 4.37185C2.92621 4.26144 2.87503 4.07791 2.85171 3.97354L2.85168 3.9734C2.82686 3.86249 2.81333 3.72026 2.81333 3.42586C2.81333 3.13147 2.82686 2.98923 2.85168 2.87833L2.85171 2.87819C2.87475 2.77505 2.92598 2.59317 2.96463 2.47756M2.96463 2.47756C3.00426 2.3673 3.08046 2.19057 3.13286 2.08804M3.13286 2.08804C3.19013 1.9817 3.29287 1.81411 3.35567 1.7233C3.40505 1.65189 3.57462 1.4603 3.72919 1.3131L3.72919 1.31311L3.7311 1.31127C3.91774 1.13116 4.07368 1.0066 4.22318 0.914477L4.22318 0.914482L4.22493 0.913392C4.36116 0.828474 4.55462 0.724275 4.6415 0.685931C4.73384 0.645182 4.89593 0.586391 4.99058 0.555554C5.07429 0.528279 5.26386 0.478686 5.40002 0.450328M5.40002 0.450328C5.57068 0.416177 5.70166 0.40242 5.97507 0.4M4.57333 7.65423C4.76533 7.63391 5.23733 7.62122 5.94667 7.61868C6.54133 7.61614 7.152 7.62883 7.30667 7.64153M4.57333 7.65423C4.41333 7.67455 4.14667 7.72026 3.98667 7.75581C3.82667 7.79391 3.57867 7.86501 3.44 7.91326M4.57333 7.65423L4.61542 8.05201C4.61673 8.05187 4.61806 8.05173 4.6194 8.05159M4.57333 7.65423L4.62372 8.05104C4.62229 8.05122 4.62085 8.05141 4.6194 8.05159M3.44 7.91326C3.30133 7.96406 3.06667 8.06056 2.92 8.12913C2.77333 8.20023 2.552 8.31959 2.42667 8.39578M3.44 7.91326L3.57146 8.29105C3.57246 8.2907 3.57346 8.29035 3.57448 8.29M3.44 7.91326L3.57757 8.28886C3.57655 8.28924 3.57551 8.28962 3.57448 8.29M2.42667 8.39578C2.30133 8.47451 2.09867 8.61418 1.97333 8.70815C1.848 8.80211 1.632 8.99258 1.49333 9.12971C1.352 9.26939 1.184 9.4497 1.11733 9.5335C1.05067 9.61731 0.933333 9.77222 0.861333 9.87634C0.789333 9.98046 0.674667 10.1633 0.608 10.2827C0.538667 10.402 0.432 10.6306 0.365333 10.7906C0.298667 10.9506 0.210667 11.202 0.173333 11.3493C0.133333 11.4966 0.08 11.7582 0.0506667 11.9334M2.42667 8.39578L2.63444 8.73758C2.63526 8.73708 2.63609 8.73658 2.63693 8.73608M2.42667 8.39578L2.63943 8.7345C2.6386 8.73502 2.63777 8.73555 2.63693 8.73608M0.0506667 11.9334C0.024 12.1086 0 12.3499 0 12.4743C0 12.6394 0.0133334 12.7206 0.0506667 12.7892C0.0773334 12.8425 0.144 12.9111 0.197333 12.9416L0.293333 13M0.0506667 11.9334L0.445177 11.9994C0.445341 11.9984 0.445506 11.9975 0.445672 11.9965M0.0506667 11.9334L0.446114 11.9936C0.445966 11.9945 0.445819 11.9955 0.445672 11.9965M0.293333 13H11.7067M0.293333 13L0.501247 12.6583L0.406161 12.6004C0.406011 12.6003 0.405856 12.6001 0.405697 12.6M0.293333 13V12.7838V12.7736V12.6679V12.6571V12.6H0.392518H0.39819H0.402887C0.402483 12.5993 0.402102 12.5987 0.401746 12.5981C0.401679 12.598 0.401612 12.5978 0.401547 12.5977C0.399949 12.5967 0.398027 12.5956 0.395781 12.5943L0.401408 12.5975C0.400823 12.5965 0.400315 12.5957 0.399897 12.5951L0.39701 12.5908C0.396996 12.5908 0.398623 12.5929 0.401754 12.5961C0.403175 12.5976 0.404477 12.5989 0.405567 12.5999M11.7067 13C11.856 12.9111 11.9227 12.8425 11.9493 12.7892C11.9867 12.7181 12 12.6394 12 12.4667C12 12.3423 11.976 12.0934 11.9467 11.9131M11.7067 13V12.6679V12.6618V12.6H11.5971C11.6096 12.5782 11.618 12.5735 11.6059 12.5844C11.6031 12.587 11.5995 12.5901 11.595 12.5937M11.7067 13L11.5021 12.6563C11.5424 12.6323 11.5695 12.6134 11.587 12.6M11.9467 11.9131C11.9173 11.7353 11.856 11.4585 11.8107 11.2985M11.9467 11.9131L11.5519 11.9773C11.5519 11.9774 11.5519 11.9775 11.5519 11.9776M11.9467 11.9131L11.552 11.9782C11.552 11.978 11.5519 11.9778 11.5519 11.9776M11.8107 11.2985C11.7653 11.1385 11.6747 10.882 11.608 10.7271C11.544 10.5722 11.44 10.3614 11.3813 10.2573M11.8107 11.2985L11.4258 11.4075C11.3851 11.2639 11.3002 11.0238 11.2406 10.8852L11.2383 10.8798L11.2383 10.8798C11.1811 10.7414 11.0858 10.5482 11.0346 10.4568M11.8107 11.2985L11.4258 11.4075C11.4667 11.5519 11.5248 11.8135 11.5519 11.9776M11.3813 10.2573C11.32 10.1532 11.2107 9.98046 11.1387 9.87634C11.0667 9.77222 10.9493 9.61731 10.8827 9.5335C10.816 9.4497 10.648 9.26939 10.5067 9.12971C10.368 8.99258 10.1627 8.80973 10.0533 8.72592C9.944 8.64212 9.73867 8.4999 9.6 8.41356C9.46133 8.32721 9.19733 8.185 9.01333 8.10119C8.82933 8.01739 8.55467 7.90819 8.4 7.85993C8.24533 7.81168 8 7.75073 7.85333 7.72026M11.3813 10.2573L11.0328 10.4536C11.0334 10.4547 11.034 10.4558 11.0346 10.4568M11.3813 10.2573L11.0367 10.4603C11.036 10.4592 11.0353 10.458 11.0346 10.4568M7.85333 7.72026C7.70667 7.69232 7.46133 7.65677 7.30667 7.64153M7.85333 7.72026L7.77196 8.11189C7.77304 8.11212 7.77413 8.11234 7.77523 8.11257M7.85333 7.72026L7.77849 8.11319C7.77741 8.11299 7.77632 8.11278 7.77523 8.11257M7.30667 7.64153L7.26745 8.0396C7.26861 8.03972 7.26977 8.03983 7.27094 8.03995M7.30667 7.64153L7.27394 8.04019C7.27296 8.04011 7.27196 8.04003 7.27094 8.03995M7.27094 8.03995C7.41274 8.05409 7.64094 8.08716 7.77523 8.11257M7.27094 8.03995C7.13052 8.02893 6.541 8.01614 5.94837 8.01867L5.9481 8.01867C5.23857 8.02121 4.79009 8.03407 4.6194 8.05159M7.77523 8.11257C7.91262 8.14127 8.14239 8.19858 8.28087 8.24178C8.41451 8.28347 8.67289 8.38567 8.84754 8.46521C9.01649 8.54217 9.26519 8.67629 9.38857 8.75311C9.51688 8.833 9.7115 8.9679 9.80999 9.04339C9.90185 9.1138 10.0943 9.28442 10.2254 9.41412L10.2255 9.41422C10.3635 9.5506 10.518 9.71762 10.5696 9.78252C10.6325 9.86159 10.7442 10.0091 10.8097 10.1038C10.8747 10.1979 10.9772 10.3596 11.0346 10.4568M11.5519 11.9776C11.5792 12.1455 11.6 12.3713 11.6 12.4667C11.6 12.5348 11.5976 12.5725 11.595 12.5937M11.595 12.5937C11.5926 12.5957 11.5899 12.5978 11.587 12.6M11.595 12.5937C11.5947 12.596 11.5944 12.5981 11.5941 12.6H11.587M11.587 12.6H0.405697M0.405697 12.6C0.405654 12.6 0.405611 12.5999 0.405567 12.5999M0.405697 12.6H0.405584C0.405579 12.6 0.405573 12.5999 0.405567 12.5999M0.405567 12.5999C0.402821 12.5805 0.4 12.5438 0.4 12.4743C0.4 12.3797 0.420451 12.1632 0.445672 11.9965M0.445672 11.9965C0.473921 11.8284 0.524324 11.5831 0.559352 11.4541L0.559408 11.4541L0.561073 11.4476C0.592237 11.3246 0.672923 11.0924 0.734561 10.9444C0.798593 10.7908 0.89745 10.5807 0.95388 10.4836L0.953929 10.4836L0.95722 10.4777C1.01738 10.37 1.12524 10.198 1.19034 10.1038C1.25584 10.0091 1.36746 9.86159 1.43037 9.78252C1.48199 9.71763 1.6365 9.5506 1.7745 9.41422L1.7746 9.41412C1.90427 9.28588 2.10637 9.10834 2.21327 9.02819C2.32952 8.94104 2.5212 8.80894 2.63693 8.73608M2.63693 8.73608C2.74976 8.66769 2.95585 8.55642 3.09196 8.49029M3.09196 8.49029C3.22654 8.42753 3.44605 8.3372 3.57448 8.29M3.09196 8.49029C3.09281 8.48987 3.09366 8.48946 3.0945 8.48906L2.92 8.12913L3.08941 8.49148C3.09025 8.49109 3.09111 8.49069 3.09196 8.49029ZM3.57448 8.29C3.69829 8.24714 3.92827 8.18105 4.07636 8.14564M4.07636 8.14564C4.22254 8.11332 4.47121 8.07063 4.6194 8.05159M4.07636 8.14564C4.07735 8.1454 4.07833 8.14517 4.07931 8.14493L3.98667 7.75582L4.07343 8.14629C4.07441 8.14607 4.07538 8.14585 4.07636 8.14564Z" stroke="#1A1C43" stroke-width="0.8"/>
</svg>
