<?xml version="1.0" encoding="utf-8"?>
<!-- Generator: Adobe Illustrator 24.3.0, SVG Export Plug-In . SVG Version: 6.00 Build 0)  -->
<svg version="1.1" id="Layer_1" xmlns="http://www.w3.org/2000/svg" xmlns:xlink="http://www.w3.org/1999/xlink" x="0px" y="0px"
	 viewBox="0 0 32 40" style="enable-background:new 0 0 32 40;" xml:space="preserve">
<style type="text/css">
	.st0{fill:#D22027;}
	.st1{fill-rule:evenodd;clip-rule:evenodd;fill:#1A1C43;}
	.st2{fill:#FFFFFF;}
	.st3{fill:#1A1C43;}
</style>
<g>
	<g>
		<path class="st0" d="M22.8,14.6H10c-0.3,0-0.6-0.3-0.6-0.6s0.3-0.6,0.6-0.6h12.7c0.3,0,0.6,0.3,0.6,0.6S23.1,14.6,22.8,14.6z"/>
	</g>
	<g>
		<path class="st0" d="M22.8,18.8H10c-0.3,0-0.6-0.3-0.6-0.6c0-0.3,0.3-0.6,0.6-0.6h12.7c0.3,0,0.6,0.3,0.6,0.6
			C23.3,18.5,23.1,18.8,22.8,18.8z"/>
	</g>
	<g>
		<path class="st0" d="M22.8,23H10c-0.3,0-0.6-0.3-0.6-0.6c0-0.3,0.3-0.6,0.6-0.6h12.7c0.3,0,0.6,0.3,0.6,0.6S23.1,23,22.8,23z"/>
	</g>
</g>
<path class="st1" d="M7.2,2.6c-1,0.3-1.8,1-2.3,1.9s-0.4,0-0.4,12.4s0,11.5,0.4,12.4c0.3,0.8,0.9,1.4,1.7,1.8
	c0.9,0.5,0.3,0.4,9.4,0.4c7.1,0,8.1,0,8.5-0.1c1.4-0.3,2.6-1.4,2.9-2.8c0.1-0.4,0.1-0.8,0.1-9.3v-8.9l-0.2-0.2
	c-0.2-0.3-7.2-7.6-7.4-7.7c-0.1,0-2.2-0.1-6.3-0.1C7.9,2.5,7.5,2.5,7.2,2.6z M18.9,6.3c0,2.6,0,2.8,0.4,3.5s0.9,1.2,1.7,1.4l0.4,0.2
	h2.4h2.4v8.2c0,5.3,0,8.3-0.1,8.5c-0.2,0.9-0.8,1.6-1.7,1.9c-0.3,0.1-1.4,0.1-8.4,0.1c-7.9,0-8.1,0-8.4-0.1
	c-0.7-0.2-1.4-0.8-1.6-1.6C5.9,28,5.9,27.8,5.9,17C5.9,6.1,5.9,5.9,6,5.5c0.2-0.7,0.8-1.3,1.6-1.6c0.3,0,0.6,0,5.8,0h5.5V6.3z
	 M23.1,7.8l2,2.1h-1.7c-1.7,0-1.7,0-2-0.1C21,9.6,20.7,9.4,20.6,9c-0.1-0.3-0.1-0.3-0.2-2.2V4.9l0.3,0.3C20.9,5.5,21.9,6.6,23.1,7.8
	z"/>
<g>
	<circle class="st2" cx="23.8" cy="28.1" r="7"/>
	<path class="st3" d="M23.8,35.7c-4.2,0-7.6-3.4-7.6-7.6s3.4-7.6,7.6-7.6s7.6,3.4,7.6,7.6S28,35.7,23.8,35.7z M23.8,21.7
		c-3.5,0-6.4,2.9-6.4,6.4s2.9,6.4,6.4,6.4s6.4-2.9,6.4-6.4S27.3,21.7,23.8,21.7z"/>
</g>
<g>
	<path class="st0" d="M21.8,33.1c-0.1-0.1-0.2-0.2-0.2-0.3c0-0.2,0-0.3,0-0.5c0-0.2,0.1-0.3,0.3-0.3c0.1,0,0.3,0,0.4,0c0,0,0,0,0,0
		c0-0.1,0-0.2,0-0.2c0-0.4,0.2-0.6,0.6-0.6c0,0,0,0,0,0c0.1,0,0.2,0,0.3,0c0.1,0,0.1-0.2,0.1-0.2c0.1-0.4,0.1-0.9-0.1-1.3
		c0,0-0.1-0.1-0.1-0.1c-0.2-0.1-0.5-0.2-0.7-0.4c0,0-0.1-0.1-0.2-0.1c-0.8-0.2-1.4-0.6-1.8-1.3c-0.4-0.5-0.6-1.1-0.6-1.8
		c0-0.2,0-0.4,0-0.5c0-0.2,0.2-0.4,0.5-0.4c0.3,0,0.7,0,1,0c0,0,0.1,0,0.1,0c0-0.1,0-0.1,0-0.1c-0.1,0-0.1-0.1-0.2-0.1
		c-0.1-0.1-0.1-0.1-0.1-0.2c0-0.1,0-0.3,0-0.4c0-0.2,0.1-0.3,0.3-0.3c0.3,0,0.6,0,1,0c0.1,0,0.2,0.1,0.2,0.1c0,0.1-0.1,0.1-0.2,0.1
		c-0.3,0-0.6,0-0.9,0c-0.1,0-0.1,0-0.1,0.1c0,0.1,0,0.2,0,0.3c0,0.1,0,0.1,0.1,0.1c0,0,0,0,0.1,0c1.6,0,3.2,0,4.9,0
		c0.1,0,0.1,0,0.1-0.1c0-0.1,0-0.2,0-0.3c0-0.1,0-0.1-0.1-0.1c-0.3,0-0.5,0-0.8,0c-0.9,0-1.7,0-2.6,0c0,0-0.1,0-0.1,0
		c-0.1,0-0.1-0.1-0.1-0.1c0-0.1,0-0.1,0.1-0.1c0,0,0.1,0,0.1,0c1.1,0,2.2,0,3.3,0c0.2,0,0.4,0.1,0.4,0.4c0,0.1,0,0.2,0,0.3
		c0,0.2-0.1,0.3-0.3,0.4c0,0,0,0.1,0,0.2c0,0,0.1,0,0.1,0c0.3,0,0.7,0,1,0c0.3,0,0.5,0.2,0.5,0.4c0,1.1-0.3,2-1,2.8
		c-0.4,0.4-0.9,0.7-1.5,0.8c0,0-0.1,0-0.1,0.1c-0.2,0.2-0.4,0.3-0.7,0.4c0,0-0.1,0-0.1,0.1c-0.3,0.4-0.3,0.8-0.2,1.3
		c0,0.1,0,0.2,0.1,0.2c0.1,0,0.2,0,0.3,0c0.4,0,0.6,0.2,0.6,0.6c0,0.1,0,0.1,0,0.2c0.1,0,0.3,0,0.4,0c0.2,0,0.3,0.1,0.3,0.3
		c0,0.2,0,0.3,0,0.5c0,0.2,0,0.3-0.2,0.3C24.6,33.1,23.2,33.1,21.8,33.1z M21.7,24.9C21.7,24.9,21.7,24.9,21.7,24.9
		c0,0.8,0,1.5,0,2.2c0,0.1,0,0.2,0,0.4c0.2,1.2,1.5,2.1,2.7,1.8c1-0.2,1.7-1.1,1.7-2.2c0-0.7,0-1.4,0-2.1c0,0,0-0.1,0-0.1
		C24.6,24.9,23.2,24.9,21.7,24.9z M25.9,28.6c0.3-0.1,0.6-0.3,0.9-0.6c0.7-0.7,1-1.6,1-2.6c0-0.1-0.1-0.2-0.2-0.2
		c-0.4,0-0.7,0-1.1,0c0,0,0,0-0.1,0c0,0.1,0,0.2,0,0.4c0.2,0,0.5,0,0.7,0c0.2,0,0.3,0.1,0.3,0.3c0,0.1,0,0.3-0.1,0.4
		c0,0.1-0.1,0.1-0.2,0.1c-0.1,0-0.1-0.1-0.1-0.2c0-0.1,0-0.3,0.1-0.4c-0.2,0-0.5,0-0.7,0c0,0.5,0,1.1,0,1.6c0,0,0.1-0.1,0.1-0.1
		c0.1-0.2,0.2-0.3,0.3-0.5c0-0.1,0.1-0.1,0.2-0.1c0,0,0.1,0.1,0.1,0.1c0,0,0,0.1,0,0.1c-0.2,0.4-0.5,0.7-0.8,0.9c0,0-0.1,0-0.1,0.1
		C26.1,28.3,26,28.4,25.9,28.6z M21.8,32.8c1.4,0,2.7,0,4.1,0c0-0.2,0-0.4,0-0.6c-1.4,0-2.7,0-4.1,0C21.8,32.4,21.8,32.6,21.8,32.8z
		 M21.9,28.6c-0.1-0.2-0.2-0.4-0.3-0.6c0,0,0,0-0.1-0.1c-0.7-0.5-1-1.2-1.1-2.1c0-0.2,0.1-0.3,0.3-0.3c0.2,0,0.3,0,0.5,0
		c0.1,0,0.1,0,0.2,0c0-0.1,0-0.2,0-0.4c0,0-0.1,0-0.1,0c-0.3,0-0.7,0-1,0c-0.2,0-0.3,0.1-0.2,0.2c0,0.3,0,0.5,0.1,0.8
		c0.2,0.8,0.6,1.5,1.3,2C21.5,28.5,21.7,28.6,21.9,28.6z M25.2,31.9c0-0.1,0-0.2,0-0.3c0-0.2-0.1-0.3-0.3-0.3c-0.1,0-0.3,0-0.4,0
		c-0.5,0-1,0-1.5,0c-0.2,0-0.3,0.1-0.3,0.2c0,0.1,0,0.2,0,0.4C23.5,31.9,24.3,31.9,25.2,31.9z M24.3,31.1c-0.2-0.5-0.2-1,0-1.5
		c-0.3,0-0.5,0-0.8,0c0.2,0.5,0.2,1,0,1.5C23.8,31.1,24,31.1,24.3,31.1z M20.7,25.9c0,0.5,0.4,1.4,0.7,1.6c0-0.5,0-1.1,0-1.6
		C21.1,25.9,20.9,25.9,20.7,25.9z"/>
	<path class="st0" d="M24.4,28.1c-0.1,0-0.1-0.1-0.2-0.1c-0.1,0-0.2-0.1-0.3-0.1c-0.1,0-0.2,0.1-0.3,0.1c-0.1,0-0.1,0.1-0.2,0.1
		c-0.2,0-0.4-0.2-0.3-0.4c0-0.1,0-0.2,0.1-0.3c0-0.1,0-0.1,0-0.1c-0.1-0.1-0.2-0.1-0.2-0.2c-0.1-0.1-0.1-0.2-0.1-0.3
		c0-0.1,0.1-0.2,0.3-0.2c0.1,0,0.2,0,0.3-0.1c0,0,0.1,0,0.1-0.1c0.1-0.1,0.1-0.2,0.1-0.3c0.1-0.1,0.2-0.2,0.3-0.2
		c0.1,0,0.2,0.1,0.3,0.2c0,0.1,0.1,0.2,0.1,0.3c0,0.1,0.1,0.1,0.1,0.1c0.1,0,0.2,0,0.3,0c0.1,0,0.2,0.1,0.3,0.2c0,0.1,0,0.2-0.1,0.3
		c-0.1,0.1-0.2,0.2-0.2,0.2c0,0-0.1,0.1,0,0.1c0,0.1,0,0.2,0.1,0.3C24.8,27.9,24.6,28.1,24.4,28.1z M23.3,27.8
		C23.3,27.8,23.4,27.9,23.3,27.8c0.2,0,0.3,0,0.4-0.1c0.1-0.1,0.2-0.1,0.4,0c0.1,0.1,0.2,0.1,0.3,0.2c0,0,0.1,0,0.1,0c0,0,0,0,0-0.1
		c0-0.1,0-0.2-0.1-0.3c0-0.1,0-0.2,0.1-0.3c0.1-0.1,0.2-0.1,0.2-0.2c0,0,0-0.1,0-0.1c0,0,0,0-0.1,0c-0.1,0-0.2,0-0.3,0
		c-0.1,0-0.2-0.1-0.3-0.2c0-0.1-0.1-0.2-0.1-0.3c0,0,0,0-0.1,0c0,0,0,0-0.1,0c-0.1,0.1-0.1,0.2-0.1,0.3c-0.1,0.1-0.1,0.2-0.3,0.2
		c-0.1,0-0.2,0-0.3,0c0,0-0.1,0-0.1,0c0,0,0,0.1,0.1,0.1c0.1,0.1,0.1,0.1,0.2,0.2c0.1,0.1,0.1,0.2,0.1,0.3
		C23.4,27.5,23.3,27.7,23.3,27.8z"/>
</g>
</svg>
